G04 #@! TF.GenerationSoftware,KiCad,Pcbnew,(5.1.2)-1*
G04 #@! TF.CreationDate,2019-06-11T21:07:52+09:00*
G04 #@! TF.ProjectId,JuicyLight32,4a756963-794c-4696-9768-7433322e6b69,rev?*
G04 #@! TF.SameCoordinates,Original*
G04 #@! TF.FileFunction,Profile,NP*
%FSLAX46Y46*%
G04 Gerber Fmt 4.6, Leading zero omitted, Abs format (unit mm)*
G04 Created by KiCad (PCBNEW (5.1.2)-1) date 2019-06-11 21:07:52*
%MOMM*%
%LPD*%
G04 APERTURE LIST*
%ADD10C,0.200000*%
G04 APERTURE END LIST*
D10*
X161600000Y-110550000D02*
X166000000Y-110500000D01*
X156650000Y-110600000D02*
X159400000Y-110575000D01*
X151600000Y-110675000D02*
X154450000Y-110650000D01*
X146575000Y-110700000D02*
X149399870Y-110673061D01*
X141600000Y-110775000D02*
X144425000Y-110725000D01*
X136600000Y-110825000D02*
X139400851Y-110799961D01*
X131600000Y-110875000D02*
X134400851Y-110849961D01*
X126600000Y-110950000D02*
X129400000Y-110925000D01*
X121600051Y-111004545D02*
X124399974Y-110972728D01*
X159400216Y-89429790D02*
X156600000Y-89400000D01*
X154400000Y-89350000D02*
X151628271Y-89348715D01*
X149375000Y-89300000D02*
X146600000Y-89300000D01*
X144400192Y-89234429D02*
X141600000Y-89200000D01*
X139400000Y-89175000D02*
X136600000Y-89150000D01*
X134400203Y-89132561D02*
X131600000Y-89100000D01*
X126600000Y-89050000D02*
X129400000Y-89100000D01*
X119449762Y-88971021D02*
X100000000Y-88750000D01*
X119401654Y-111020693D02*
G75*
G02X121600000Y-111004545I1098346J120693D01*
G01*
X134400851Y-110849961D02*
G75*
G02X136600000Y-110825000I1099149J49961D01*
G01*
X144425291Y-110724993D02*
G75*
G02X146575000Y-110700000I1074709J24993D01*
G01*
X139400851Y-110799961D02*
G75*
G02X141600000Y-110775000I1099149J49961D01*
G01*
X124401263Y-110972643D02*
G75*
G02X126600000Y-110950000I1098737J72643D01*
G01*
X129400000Y-110925000D02*
G75*
G02X131600000Y-110875000I1100000J25000D01*
G01*
X149399869Y-110673061D02*
G75*
G02X151600000Y-110675000I1100131J73061D01*
G01*
X159400284Y-110574994D02*
G75*
G02X161600000Y-110550000I1099716J24994D01*
G01*
X154451135Y-110649948D02*
G75*
G02X156650000Y-110600000I1098865J49948D01*
G01*
X121553362Y-88999680D02*
G75*
G02X119449762Y-88971021I-1053362J-100320D01*
G01*
X126600000Y-89050000D02*
G75*
G02X124400000Y-89050000I-1100000J-50000D01*
G01*
X161600886Y-89449960D02*
G75*
G02X159400216Y-89429790I-1100886J-50040D01*
G01*
X156601136Y-89400000D02*
G75*
G02X154400000Y-89350000I-1101136J0D01*
G01*
X151628271Y-89348715D02*
G75*
G02X149375000Y-89300000I-1128271J-51285D01*
G01*
X146601759Y-89298088D02*
G75*
G02X144400192Y-89234429I-1101759J-1912D01*
G01*
X141600284Y-89200000D02*
G75*
G02X139400000Y-89175000I-1100284J0D01*
G01*
X136600726Y-89149967D02*
G75*
G02X134400203Y-89132561I-1100726J-50033D01*
G01*
X131600000Y-89100000D02*
G75*
G02X129400000Y-89100000I-1100000J0D01*
G01*
X124400000Y-89050000D02*
X121553362Y-88999680D01*
X166000000Y-89500000D02*
X161600000Y-89450000D01*
X166000000Y-89500000D02*
X166000000Y-110500000D01*
X100000000Y-111250000D02*
X119400000Y-111020000D01*
X100000000Y-88750000D02*
X100000000Y-111250000D01*
M02*
