G04 #@! TF.GenerationSoftware,KiCad,Pcbnew,(5.1.2)-1*
G04 #@! TF.CreationDate,2019-06-11T21:07:52+09:00*
G04 #@! TF.ProjectId,JuicyLight32,4a756963-794c-4696-9768-7433322e6b69,rev?*
G04 #@! TF.SameCoordinates,Original*
G04 #@! TF.FileFunction,Soldermask,Top*
G04 #@! TF.FilePolarity,Negative*
%FSLAX46Y46*%
G04 Gerber Fmt 4.6, Leading zero omitted, Abs format (unit mm)*
G04 Created by KiCad (PCBNEW (5.1.2)-1) date 2019-06-11 21:07:52*
%MOMM*%
%LPD*%
G04 APERTURE LIST*
%ADD10C,0.100000*%
G04 APERTURE END LIST*
D10*
G36*
X166077900Y-89420700D02*
G01*
X166116000Y-92227400D01*
X122059700Y-92329000D01*
X122097800Y-90639900D01*
X122097800Y-89154000D01*
X166077900Y-89420700D01*
G37*
X166077900Y-89420700D02*
X166116000Y-92227400D01*
X122059700Y-92329000D01*
X122097800Y-90639900D01*
X122097800Y-89154000D01*
X166077900Y-89420700D01*
G36*
X165839238Y-110311225D02*
G01*
X126492000Y-110934500D01*
X126487500Y-104200000D01*
X165919650Y-104078900D01*
X165839238Y-110311225D01*
G37*
X165839238Y-110311225D02*
X126492000Y-110934500D01*
X126487500Y-104200000D01*
X165919650Y-104078900D01*
X165839238Y-110311225D01*
G36*
X110321968Y-106828565D02*
G01*
X110360638Y-106840296D01*
X110396277Y-106859346D01*
X110427517Y-106884983D01*
X110453154Y-106916223D01*
X110472204Y-106951862D01*
X110483935Y-106990532D01*
X110488500Y-107036888D01*
X110488500Y-108113112D01*
X110483935Y-108159468D01*
X110472204Y-108198138D01*
X110453154Y-108233777D01*
X110427517Y-108265017D01*
X110396277Y-108290654D01*
X110360638Y-108309704D01*
X110321968Y-108321435D01*
X110275612Y-108326000D01*
X109624388Y-108326000D01*
X109578032Y-108321435D01*
X109539362Y-108309704D01*
X109503723Y-108290654D01*
X109472483Y-108265017D01*
X109446846Y-108233777D01*
X109427796Y-108198138D01*
X109416065Y-108159468D01*
X109411500Y-108113112D01*
X109411500Y-107036888D01*
X109416065Y-106990532D01*
X109427796Y-106951862D01*
X109446846Y-106916223D01*
X109472483Y-106884983D01*
X109503723Y-106859346D01*
X109539362Y-106840296D01*
X109578032Y-106828565D01*
X109624388Y-106824000D01*
X110275612Y-106824000D01*
X110321968Y-106828565D01*
X110321968Y-106828565D01*
G37*
G36*
X112196968Y-106828565D02*
G01*
X112235638Y-106840296D01*
X112271277Y-106859346D01*
X112302517Y-106884983D01*
X112328154Y-106916223D01*
X112347204Y-106951862D01*
X112358935Y-106990532D01*
X112363500Y-107036888D01*
X112363500Y-108113112D01*
X112358935Y-108159468D01*
X112347204Y-108198138D01*
X112328154Y-108233777D01*
X112302517Y-108265017D01*
X112271277Y-108290654D01*
X112235638Y-108309704D01*
X112196968Y-108321435D01*
X112150612Y-108326000D01*
X111499388Y-108326000D01*
X111453032Y-108321435D01*
X111414362Y-108309704D01*
X111378723Y-108290654D01*
X111347483Y-108265017D01*
X111321846Y-108233777D01*
X111302796Y-108198138D01*
X111291065Y-108159468D01*
X111286500Y-108113112D01*
X111286500Y-107036888D01*
X111291065Y-106990532D01*
X111302796Y-106951862D01*
X111321846Y-106916223D01*
X111347483Y-106884983D01*
X111378723Y-106859346D01*
X111414362Y-106840296D01*
X111453032Y-106828565D01*
X111499388Y-106824000D01*
X112150612Y-106824000D01*
X112196968Y-106828565D01*
X112196968Y-106828565D01*
G37*
G36*
X115671968Y-106828565D02*
G01*
X115710638Y-106840296D01*
X115746277Y-106859346D01*
X115777517Y-106884983D01*
X115803154Y-106916223D01*
X115822204Y-106951862D01*
X115833935Y-106990532D01*
X115838500Y-107036888D01*
X115838500Y-108113112D01*
X115833935Y-108159468D01*
X115822204Y-108198138D01*
X115803154Y-108233777D01*
X115777517Y-108265017D01*
X115746277Y-108290654D01*
X115710638Y-108309704D01*
X115671968Y-108321435D01*
X115625612Y-108326000D01*
X114974388Y-108326000D01*
X114928032Y-108321435D01*
X114889362Y-108309704D01*
X114853723Y-108290654D01*
X114822483Y-108265017D01*
X114796846Y-108233777D01*
X114777796Y-108198138D01*
X114766065Y-108159468D01*
X114761500Y-108113112D01*
X114761500Y-107036888D01*
X114766065Y-106990532D01*
X114777796Y-106951862D01*
X114796846Y-106916223D01*
X114822483Y-106884983D01*
X114853723Y-106859346D01*
X114889362Y-106840296D01*
X114928032Y-106828565D01*
X114974388Y-106824000D01*
X115625612Y-106824000D01*
X115671968Y-106828565D01*
X115671968Y-106828565D01*
G37*
G36*
X113796968Y-106828565D02*
G01*
X113835638Y-106840296D01*
X113871277Y-106859346D01*
X113902517Y-106884983D01*
X113928154Y-106916223D01*
X113947204Y-106951862D01*
X113958935Y-106990532D01*
X113963500Y-107036888D01*
X113963500Y-108113112D01*
X113958935Y-108159468D01*
X113947204Y-108198138D01*
X113928154Y-108233777D01*
X113902517Y-108265017D01*
X113871277Y-108290654D01*
X113835638Y-108309704D01*
X113796968Y-108321435D01*
X113750612Y-108326000D01*
X113099388Y-108326000D01*
X113053032Y-108321435D01*
X113014362Y-108309704D01*
X112978723Y-108290654D01*
X112947483Y-108265017D01*
X112921846Y-108233777D01*
X112902796Y-108198138D01*
X112891065Y-108159468D01*
X112886500Y-108113112D01*
X112886500Y-107036888D01*
X112891065Y-106990532D01*
X112902796Y-106951862D01*
X112921846Y-106916223D01*
X112947483Y-106884983D01*
X112978723Y-106859346D01*
X113014362Y-106840296D01*
X113053032Y-106828565D01*
X113099388Y-106824000D01*
X113750612Y-106824000D01*
X113796968Y-106828565D01*
X113796968Y-106828565D01*
G37*
G36*
X117260721Y-107020174D02*
G01*
X117360995Y-107061709D01*
X117360996Y-107061710D01*
X117451242Y-107122010D01*
X117527990Y-107198758D01*
X117527991Y-107198760D01*
X117588291Y-107289005D01*
X117629826Y-107389279D01*
X117651000Y-107495730D01*
X117651000Y-107604270D01*
X117629826Y-107710721D01*
X117588291Y-107810995D01*
X117588290Y-107810996D01*
X117527990Y-107901242D01*
X117451242Y-107977990D01*
X117405812Y-108008345D01*
X117360995Y-108038291D01*
X117260721Y-108079826D01*
X117154270Y-108101000D01*
X117045730Y-108101000D01*
X116939279Y-108079826D01*
X116839005Y-108038291D01*
X116794188Y-108008345D01*
X116748758Y-107977990D01*
X116672010Y-107901242D01*
X116611710Y-107810996D01*
X116611709Y-107810995D01*
X116570174Y-107710721D01*
X116549000Y-107604270D01*
X116549000Y-107495730D01*
X116570174Y-107389279D01*
X116611709Y-107289005D01*
X116672009Y-107198760D01*
X116672010Y-107198758D01*
X116748758Y-107122010D01*
X116839004Y-107061710D01*
X116839005Y-107061709D01*
X116939279Y-107020174D01*
X117045730Y-106999000D01*
X117154270Y-106999000D01*
X117260721Y-107020174D01*
X117260721Y-107020174D01*
G37*
G36*
X103796228Y-104863483D02*
G01*
X103984922Y-104920723D01*
X104158815Y-105013671D01*
X104311239Y-105138761D01*
X104436329Y-105291185D01*
X104529277Y-105465078D01*
X104586517Y-105653772D01*
X104605843Y-105850000D01*
X104586517Y-106046228D01*
X104529277Y-106234922D01*
X104436329Y-106408815D01*
X104311239Y-106561239D01*
X104158815Y-106686329D01*
X103984922Y-106779277D01*
X103796228Y-106836517D01*
X103649175Y-106851000D01*
X101950825Y-106851000D01*
X101803772Y-106836517D01*
X101615078Y-106779277D01*
X101441185Y-106686329D01*
X101288761Y-106561239D01*
X101163671Y-106408815D01*
X101070723Y-106234922D01*
X101013483Y-106046228D01*
X100994157Y-105850000D01*
X101013483Y-105653772D01*
X101070723Y-105465078D01*
X101163671Y-105291185D01*
X101288761Y-105138761D01*
X101441185Y-105013671D01*
X101615078Y-104920723D01*
X101803772Y-104863483D01*
X101950825Y-104849000D01*
X103649175Y-104849000D01*
X103796228Y-104863483D01*
X103796228Y-104863483D01*
G37*
G36*
X120560721Y-103940174D02*
G01*
X120660995Y-103981709D01*
X120660996Y-103981710D01*
X120751242Y-104042010D01*
X120827990Y-104118758D01*
X120827991Y-104118760D01*
X120888291Y-104209005D01*
X120929826Y-104309279D01*
X120951000Y-104415730D01*
X120951000Y-104524270D01*
X120929826Y-104630721D01*
X120888291Y-104730995D01*
X120888290Y-104730996D01*
X120827990Y-104821242D01*
X120751242Y-104897990D01*
X120717221Y-104920722D01*
X120660995Y-104958291D01*
X120560721Y-104999826D01*
X120454270Y-105021000D01*
X120345730Y-105021000D01*
X120239279Y-104999826D01*
X120139005Y-104958291D01*
X120082779Y-104920722D01*
X120048758Y-104897990D01*
X119972010Y-104821242D01*
X119911710Y-104730996D01*
X119911709Y-104730995D01*
X119870174Y-104630721D01*
X119849000Y-104524270D01*
X119849000Y-104415730D01*
X119870174Y-104309279D01*
X119911709Y-104209005D01*
X119972009Y-104118760D01*
X119972010Y-104118758D01*
X120048758Y-104042010D01*
X120139004Y-103981710D01*
X120139005Y-103981709D01*
X120239279Y-103940174D01*
X120345730Y-103919000D01*
X120454270Y-103919000D01*
X120560721Y-103940174D01*
X120560721Y-103940174D01*
G37*
G36*
X105477395Y-102585546D02*
G01*
X105650466Y-102657234D01*
X105650467Y-102657235D01*
X105806227Y-102761310D01*
X105938690Y-102893773D01*
X105938691Y-102893775D01*
X106042766Y-103049534D01*
X106114454Y-103222605D01*
X106151000Y-103406333D01*
X106151000Y-103593667D01*
X106114454Y-103777395D01*
X106042766Y-103950466D01*
X106042765Y-103950467D01*
X105938690Y-104106227D01*
X105806227Y-104238690D01*
X105727818Y-104291081D01*
X105650466Y-104342766D01*
X105477395Y-104414454D01*
X105293667Y-104451000D01*
X105106333Y-104451000D01*
X104922605Y-104414454D01*
X104749534Y-104342766D01*
X104672182Y-104291081D01*
X104593773Y-104238690D01*
X104461310Y-104106227D01*
X104357235Y-103950467D01*
X104357234Y-103950466D01*
X104285546Y-103777395D01*
X104249000Y-103593667D01*
X104249000Y-103406333D01*
X104285546Y-103222605D01*
X104357234Y-103049534D01*
X104461309Y-102893775D01*
X104461310Y-102893773D01*
X104593773Y-102761310D01*
X104749533Y-102657235D01*
X104749534Y-102657234D01*
X104922605Y-102585546D01*
X105106333Y-102549000D01*
X105293667Y-102549000D01*
X105477395Y-102585546D01*
X105477395Y-102585546D01*
G37*
G36*
X113633642Y-102479781D02*
G01*
X113766179Y-102534680D01*
X113779416Y-102540163D01*
X113910608Y-102627822D01*
X114022178Y-102739392D01*
X114051048Y-102782600D01*
X114109838Y-102870586D01*
X114170219Y-103016358D01*
X114201000Y-103171107D01*
X114201000Y-103328893D01*
X114170219Y-103483642D01*
X114124646Y-103593665D01*
X114109837Y-103629416D01*
X114022178Y-103760608D01*
X113910608Y-103872178D01*
X113779416Y-103959837D01*
X113779415Y-103959838D01*
X113779414Y-103959838D01*
X113633642Y-104020219D01*
X113478893Y-104051000D01*
X113321107Y-104051000D01*
X113166358Y-104020219D01*
X113020586Y-103959838D01*
X113020585Y-103959838D01*
X113020584Y-103959837D01*
X112889392Y-103872178D01*
X112777822Y-103760608D01*
X112690163Y-103629416D01*
X112675354Y-103593665D01*
X112629781Y-103483642D01*
X112599000Y-103328893D01*
X112599000Y-103171107D01*
X112629781Y-103016358D01*
X112690162Y-102870586D01*
X112748952Y-102782600D01*
X112777822Y-102739392D01*
X112889392Y-102627822D01*
X113020584Y-102540163D01*
X113033821Y-102534680D01*
X113166358Y-102479781D01*
X113321107Y-102449000D01*
X113478893Y-102449000D01*
X113633642Y-102479781D01*
X113633642Y-102479781D01*
G37*
G36*
X109133642Y-102479781D02*
G01*
X109266179Y-102534680D01*
X109279416Y-102540163D01*
X109410608Y-102627822D01*
X109522178Y-102739392D01*
X109551048Y-102782600D01*
X109609838Y-102870586D01*
X109670219Y-103016358D01*
X109701000Y-103171107D01*
X109701000Y-103328893D01*
X109670219Y-103483642D01*
X109624646Y-103593665D01*
X109609837Y-103629416D01*
X109522178Y-103760608D01*
X109410608Y-103872178D01*
X109279416Y-103959837D01*
X109279415Y-103959838D01*
X109279414Y-103959838D01*
X109133642Y-104020219D01*
X108978893Y-104051000D01*
X108821107Y-104051000D01*
X108666358Y-104020219D01*
X108520586Y-103959838D01*
X108520585Y-103959838D01*
X108520584Y-103959837D01*
X108389392Y-103872178D01*
X108277822Y-103760608D01*
X108190163Y-103629416D01*
X108175354Y-103593665D01*
X108129781Y-103483642D01*
X108099000Y-103328893D01*
X108099000Y-103171107D01*
X108129781Y-103016358D01*
X108190162Y-102870586D01*
X108248952Y-102782600D01*
X108277822Y-102739392D01*
X108389392Y-102627822D01*
X108520584Y-102540163D01*
X108533821Y-102534680D01*
X108666358Y-102479781D01*
X108821107Y-102449000D01*
X108978893Y-102449000D01*
X109133642Y-102479781D01*
X109133642Y-102479781D01*
G37*
G36*
X138451000Y-103351000D02*
G01*
X137149000Y-103351000D01*
X137149000Y-101449000D01*
X138451000Y-101449000D01*
X138451000Y-103351000D01*
X138451000Y-103351000D01*
G37*
G36*
X124251000Y-103351000D02*
G01*
X122949000Y-103351000D01*
X122949000Y-101449000D01*
X124251000Y-101449000D01*
X124251000Y-103351000D01*
X124251000Y-103351000D01*
G37*
G36*
X121051000Y-103351000D02*
G01*
X119749000Y-103351000D01*
X119749000Y-101449000D01*
X121051000Y-101449000D01*
X121051000Y-103351000D01*
X121051000Y-103351000D01*
G37*
G36*
X130051000Y-103351000D02*
G01*
X128749000Y-103351000D01*
X128749000Y-101449000D01*
X130051000Y-101449000D01*
X130051000Y-103351000D01*
X130051000Y-103351000D01*
G37*
G36*
X126851000Y-103351000D02*
G01*
X125549000Y-103351000D01*
X125549000Y-101449000D01*
X126851000Y-101449000D01*
X126851000Y-103351000D01*
X126851000Y-103351000D01*
G37*
G36*
X135851000Y-103351000D02*
G01*
X134549000Y-103351000D01*
X134549000Y-101449000D01*
X135851000Y-101449000D01*
X135851000Y-103351000D01*
X135851000Y-103351000D01*
G37*
G36*
X132651000Y-103351000D02*
G01*
X131349000Y-103351000D01*
X131349000Y-101449000D01*
X132651000Y-101449000D01*
X132651000Y-103351000D01*
X132651000Y-103351000D01*
G37*
G36*
X141651000Y-103351000D02*
G01*
X140349000Y-103351000D01*
X140349000Y-101449000D01*
X141651000Y-101449000D01*
X141651000Y-103351000D01*
X141651000Y-103351000D01*
G37*
G36*
X144251000Y-103351000D02*
G01*
X142949000Y-103351000D01*
X142949000Y-101449000D01*
X144251000Y-101449000D01*
X144251000Y-103351000D01*
X144251000Y-103351000D01*
G37*
G36*
X153251000Y-103351000D02*
G01*
X151949000Y-103351000D01*
X151949000Y-101449000D01*
X153251000Y-101449000D01*
X153251000Y-103351000D01*
X153251000Y-103351000D01*
G37*
G36*
X150051000Y-103351000D02*
G01*
X148749000Y-103351000D01*
X148749000Y-101449000D01*
X150051000Y-101449000D01*
X150051000Y-103351000D01*
X150051000Y-103351000D01*
G37*
G36*
X164851000Y-103351000D02*
G01*
X163549000Y-103351000D01*
X163549000Y-101449000D01*
X164851000Y-101449000D01*
X164851000Y-103351000D01*
X164851000Y-103351000D01*
G37*
G36*
X159051000Y-103351000D02*
G01*
X157749000Y-103351000D01*
X157749000Y-101449000D01*
X159051000Y-101449000D01*
X159051000Y-103351000D01*
X159051000Y-103351000D01*
G37*
G36*
X155851000Y-103351000D02*
G01*
X154549000Y-103351000D01*
X154549000Y-101449000D01*
X155851000Y-101449000D01*
X155851000Y-103351000D01*
X155851000Y-103351000D01*
G37*
G36*
X161651000Y-103351000D02*
G01*
X160349000Y-103351000D01*
X160349000Y-101449000D01*
X161651000Y-101449000D01*
X161651000Y-103351000D01*
X161651000Y-103351000D01*
G37*
G36*
X147451000Y-103351000D02*
G01*
X146149000Y-103351000D01*
X146149000Y-101449000D01*
X147451000Y-101449000D01*
X147451000Y-103351000D01*
X147451000Y-103351000D01*
G37*
G36*
X102919597Y-101661015D02*
G01*
X102975305Y-101672096D01*
X103007340Y-101685365D01*
X103084680Y-101717400D01*
X103183115Y-101783173D01*
X103266827Y-101866885D01*
X103332600Y-101965320D01*
X103377904Y-102074696D01*
X103401000Y-102190805D01*
X103401000Y-102309195D01*
X103377904Y-102425304D01*
X103332600Y-102534680D01*
X103266827Y-102633115D01*
X103183115Y-102716827D01*
X103084680Y-102782600D01*
X103007340Y-102814635D01*
X102975305Y-102827904D01*
X102936601Y-102835603D01*
X102859195Y-102851000D01*
X102740805Y-102851000D01*
X102663399Y-102835603D01*
X102624695Y-102827904D01*
X102592660Y-102814635D01*
X102515320Y-102782600D01*
X102416885Y-102716827D01*
X102333173Y-102633115D01*
X102267400Y-102534680D01*
X102222096Y-102425304D01*
X102199000Y-102309195D01*
X102199000Y-102190805D01*
X102222096Y-102074696D01*
X102267400Y-101965320D01*
X102333173Y-101866885D01*
X102416885Y-101783173D01*
X102515320Y-101717400D01*
X102592660Y-101685365D01*
X102624695Y-101672096D01*
X102680403Y-101661015D01*
X102740805Y-101649000D01*
X102859195Y-101649000D01*
X102919597Y-101661015D01*
X102919597Y-101661015D01*
G37*
G36*
X105448228Y-100181703D02*
G01*
X105603100Y-100245853D01*
X105742481Y-100338985D01*
X105861015Y-100457519D01*
X105954147Y-100596900D01*
X106018297Y-100751772D01*
X106051000Y-100916184D01*
X106051000Y-101083816D01*
X106018297Y-101248228D01*
X105954147Y-101403100D01*
X105861015Y-101542481D01*
X105742481Y-101661015D01*
X105603100Y-101754147D01*
X105448228Y-101818297D01*
X105283816Y-101851000D01*
X105116184Y-101851000D01*
X104951772Y-101818297D01*
X104796900Y-101754147D01*
X104657519Y-101661015D01*
X104538985Y-101542481D01*
X104445853Y-101403100D01*
X104381703Y-101248228D01*
X104349000Y-101083816D01*
X104349000Y-100916184D01*
X104381703Y-100751772D01*
X104445853Y-100596900D01*
X104538985Y-100457519D01*
X104657519Y-100338985D01*
X104796900Y-100245853D01*
X104951772Y-100181703D01*
X105116184Y-100149000D01*
X105283816Y-100149000D01*
X105448228Y-100181703D01*
X105448228Y-100181703D01*
G37*
G36*
X105448228Y-98181703D02*
G01*
X105603100Y-98245853D01*
X105742481Y-98338985D01*
X105861015Y-98457519D01*
X105954147Y-98596900D01*
X106018297Y-98751772D01*
X106051000Y-98916184D01*
X106051000Y-99083816D01*
X106018297Y-99248228D01*
X105954147Y-99403100D01*
X105861015Y-99542481D01*
X105742481Y-99661015D01*
X105603100Y-99754147D01*
X105448228Y-99818297D01*
X105283816Y-99851000D01*
X105116184Y-99851000D01*
X104951772Y-99818297D01*
X104796900Y-99754147D01*
X104657519Y-99661015D01*
X104538985Y-99542481D01*
X104445853Y-99403100D01*
X104381703Y-99248228D01*
X104349000Y-99083816D01*
X104349000Y-98916184D01*
X104381703Y-98751772D01*
X104445853Y-98596900D01*
X104538985Y-98457519D01*
X104657519Y-98338985D01*
X104796900Y-98245853D01*
X104951772Y-98181703D01*
X105116184Y-98149000D01*
X105283816Y-98149000D01*
X105448228Y-98181703D01*
X105448228Y-98181703D01*
G37*
G36*
X121051000Y-98551000D02*
G01*
X119749000Y-98551000D01*
X119749000Y-96649000D01*
X121051000Y-96649000D01*
X121051000Y-98551000D01*
X121051000Y-98551000D01*
G37*
G36*
X144251000Y-98551000D02*
G01*
X142949000Y-98551000D01*
X142949000Y-96649000D01*
X144251000Y-96649000D01*
X144251000Y-98551000D01*
X144251000Y-98551000D01*
G37*
G36*
X147451000Y-98551000D02*
G01*
X146149000Y-98551000D01*
X146149000Y-96649000D01*
X147451000Y-96649000D01*
X147451000Y-98551000D01*
X147451000Y-98551000D01*
G37*
G36*
X153251000Y-98551000D02*
G01*
X151949000Y-98551000D01*
X151949000Y-96649000D01*
X153251000Y-96649000D01*
X153251000Y-98551000D01*
X153251000Y-98551000D01*
G37*
G36*
X138451000Y-98551000D02*
G01*
X137149000Y-98551000D01*
X137149000Y-96649000D01*
X138451000Y-96649000D01*
X138451000Y-98551000D01*
X138451000Y-98551000D01*
G37*
G36*
X141651000Y-98551000D02*
G01*
X140349000Y-98551000D01*
X140349000Y-96649000D01*
X141651000Y-96649000D01*
X141651000Y-98551000D01*
X141651000Y-98551000D01*
G37*
G36*
X164851000Y-98551000D02*
G01*
X163549000Y-98551000D01*
X163549000Y-96649000D01*
X164851000Y-96649000D01*
X164851000Y-98551000D01*
X164851000Y-98551000D01*
G37*
G36*
X161651000Y-98551000D02*
G01*
X160349000Y-98551000D01*
X160349000Y-96649000D01*
X161651000Y-96649000D01*
X161651000Y-98551000D01*
X161651000Y-98551000D01*
G37*
G36*
X135851000Y-98551000D02*
G01*
X134549000Y-98551000D01*
X134549000Y-96649000D01*
X135851000Y-96649000D01*
X135851000Y-98551000D01*
X135851000Y-98551000D01*
G37*
G36*
X159051000Y-98551000D02*
G01*
X157749000Y-98551000D01*
X157749000Y-96649000D01*
X159051000Y-96649000D01*
X159051000Y-98551000D01*
X159051000Y-98551000D01*
G37*
G36*
X126851000Y-98551000D02*
G01*
X125549000Y-98551000D01*
X125549000Y-96649000D01*
X126851000Y-96649000D01*
X126851000Y-98551000D01*
X126851000Y-98551000D01*
G37*
G36*
X130051000Y-98551000D02*
G01*
X128749000Y-98551000D01*
X128749000Y-96649000D01*
X130051000Y-96649000D01*
X130051000Y-98551000D01*
X130051000Y-98551000D01*
G37*
G36*
X155851000Y-98551000D02*
G01*
X154549000Y-98551000D01*
X154549000Y-96649000D01*
X155851000Y-96649000D01*
X155851000Y-98551000D01*
X155851000Y-98551000D01*
G37*
G36*
X124251000Y-98551000D02*
G01*
X122949000Y-98551000D01*
X122949000Y-96649000D01*
X124251000Y-96649000D01*
X124251000Y-98551000D01*
X124251000Y-98551000D01*
G37*
G36*
X150051000Y-98551000D02*
G01*
X148749000Y-98551000D01*
X148749000Y-96649000D01*
X150051000Y-96649000D01*
X150051000Y-98551000D01*
X150051000Y-98551000D01*
G37*
G36*
X132651000Y-98551000D02*
G01*
X131349000Y-98551000D01*
X131349000Y-96649000D01*
X132651000Y-96649000D01*
X132651000Y-98551000D01*
X132651000Y-98551000D01*
G37*
G36*
X102936601Y-97164397D02*
G01*
X102975305Y-97172096D01*
X103007340Y-97185365D01*
X103084680Y-97217400D01*
X103183115Y-97283173D01*
X103266827Y-97366885D01*
X103332600Y-97465320D01*
X103377904Y-97574696D01*
X103401000Y-97690805D01*
X103401000Y-97809195D01*
X103377904Y-97925304D01*
X103332600Y-98034680D01*
X103266827Y-98133115D01*
X103183115Y-98216827D01*
X103084680Y-98282600D01*
X103007340Y-98314635D01*
X102975305Y-98327904D01*
X102936601Y-98335603D01*
X102859195Y-98351000D01*
X102740805Y-98351000D01*
X102663399Y-98335603D01*
X102624695Y-98327904D01*
X102592660Y-98314635D01*
X102515320Y-98282600D01*
X102416885Y-98216827D01*
X102333173Y-98133115D01*
X102267400Y-98034680D01*
X102222096Y-97925304D01*
X102199000Y-97809195D01*
X102199000Y-97690805D01*
X102222096Y-97574696D01*
X102267400Y-97465320D01*
X102333173Y-97366885D01*
X102416885Y-97283173D01*
X102515320Y-97217400D01*
X102592660Y-97185365D01*
X102624695Y-97172096D01*
X102663399Y-97164397D01*
X102740805Y-97149000D01*
X102859195Y-97149000D01*
X102936601Y-97164397D01*
X102936601Y-97164397D01*
G37*
G36*
X109133642Y-95979781D02*
G01*
X109279414Y-96040162D01*
X109279416Y-96040163D01*
X109410608Y-96127822D01*
X109522178Y-96239392D01*
X109609837Y-96370584D01*
X109609838Y-96370586D01*
X109670219Y-96516358D01*
X109701000Y-96671107D01*
X109701000Y-96828893D01*
X109670219Y-96983642D01*
X109619443Y-97106225D01*
X109609837Y-97129416D01*
X109522178Y-97260608D01*
X109410608Y-97372178D01*
X109279416Y-97459837D01*
X109279415Y-97459838D01*
X109279414Y-97459838D01*
X109133642Y-97520219D01*
X108978893Y-97551000D01*
X108821107Y-97551000D01*
X108666358Y-97520219D01*
X108520586Y-97459838D01*
X108520585Y-97459838D01*
X108520584Y-97459837D01*
X108389392Y-97372178D01*
X108277822Y-97260608D01*
X108190163Y-97129416D01*
X108180557Y-97106225D01*
X108129781Y-96983642D01*
X108099000Y-96828893D01*
X108099000Y-96671107D01*
X108129781Y-96516358D01*
X108190162Y-96370586D01*
X108190163Y-96370584D01*
X108277822Y-96239392D01*
X108389392Y-96127822D01*
X108520584Y-96040163D01*
X108520586Y-96040162D01*
X108666358Y-95979781D01*
X108821107Y-95949000D01*
X108978893Y-95949000D01*
X109133642Y-95979781D01*
X109133642Y-95979781D01*
G37*
G36*
X113633642Y-95979781D02*
G01*
X113779414Y-96040162D01*
X113779416Y-96040163D01*
X113910608Y-96127822D01*
X114022178Y-96239392D01*
X114109837Y-96370584D01*
X114109838Y-96370586D01*
X114170219Y-96516358D01*
X114201000Y-96671107D01*
X114201000Y-96828893D01*
X114170219Y-96983642D01*
X114119443Y-97106225D01*
X114109837Y-97129416D01*
X114022178Y-97260608D01*
X113910608Y-97372178D01*
X113779416Y-97459837D01*
X113779415Y-97459838D01*
X113779414Y-97459838D01*
X113633642Y-97520219D01*
X113478893Y-97551000D01*
X113321107Y-97551000D01*
X113166358Y-97520219D01*
X113020586Y-97459838D01*
X113020585Y-97459838D01*
X113020584Y-97459837D01*
X112889392Y-97372178D01*
X112777822Y-97260608D01*
X112690163Y-97129416D01*
X112680557Y-97106225D01*
X112629781Y-96983642D01*
X112599000Y-96828893D01*
X112599000Y-96671107D01*
X112629781Y-96516358D01*
X112690162Y-96370586D01*
X112690163Y-96370584D01*
X112777822Y-96239392D01*
X112889392Y-96127822D01*
X113020584Y-96040163D01*
X113020586Y-96040162D01*
X113166358Y-95979781D01*
X113321107Y-95949000D01*
X113478893Y-95949000D01*
X113633642Y-95979781D01*
X113633642Y-95979781D01*
G37*
G36*
X105477395Y-95585546D02*
G01*
X105650466Y-95657234D01*
X105650467Y-95657235D01*
X105806227Y-95761310D01*
X105938690Y-95893773D01*
X105938691Y-95893775D01*
X106042766Y-96049534D01*
X106114454Y-96222605D01*
X106151000Y-96406333D01*
X106151000Y-96593667D01*
X106114454Y-96777395D01*
X106042766Y-96950466D01*
X106042765Y-96950467D01*
X105938690Y-97106227D01*
X105806227Y-97238690D01*
X105773424Y-97260608D01*
X105650466Y-97342766D01*
X105477395Y-97414454D01*
X105293667Y-97451000D01*
X105106333Y-97451000D01*
X104922605Y-97414454D01*
X104749534Y-97342766D01*
X104626576Y-97260608D01*
X104593773Y-97238690D01*
X104461310Y-97106227D01*
X104357235Y-96950467D01*
X104357234Y-96950466D01*
X104285546Y-96777395D01*
X104249000Y-96593667D01*
X104249000Y-96406333D01*
X104285546Y-96222605D01*
X104357234Y-96049534D01*
X104461309Y-95893775D01*
X104461310Y-95893773D01*
X104593773Y-95761310D01*
X104749533Y-95657235D01*
X104749534Y-95657234D01*
X104922605Y-95585546D01*
X105106333Y-95549000D01*
X105293667Y-95549000D01*
X105477395Y-95585546D01*
X105477395Y-95585546D01*
G37*
G36*
X156934468Y-94253565D02*
G01*
X156973138Y-94265296D01*
X157008777Y-94284346D01*
X157040017Y-94309983D01*
X157065654Y-94341223D01*
X157084704Y-94376862D01*
X157096435Y-94415532D01*
X157101000Y-94461888D01*
X157101000Y-95538112D01*
X157096435Y-95584468D01*
X157084704Y-95623138D01*
X157065654Y-95658777D01*
X157040017Y-95690017D01*
X157008777Y-95715654D01*
X156973138Y-95734704D01*
X156934468Y-95746435D01*
X156888112Y-95751000D01*
X156236888Y-95751000D01*
X156190532Y-95746435D01*
X156151862Y-95734704D01*
X156116223Y-95715654D01*
X156084983Y-95690017D01*
X156059346Y-95658777D01*
X156040296Y-95623138D01*
X156028565Y-95584468D01*
X156024000Y-95538112D01*
X156024000Y-94461888D01*
X156028565Y-94415532D01*
X156040296Y-94376862D01*
X156059346Y-94341223D01*
X156084983Y-94309983D01*
X156116223Y-94284346D01*
X156151862Y-94265296D01*
X156190532Y-94253565D01*
X156236888Y-94249000D01*
X156888112Y-94249000D01*
X156934468Y-94253565D01*
X156934468Y-94253565D01*
G37*
G36*
X151184468Y-94253565D02*
G01*
X151223138Y-94265296D01*
X151258777Y-94284346D01*
X151290017Y-94309983D01*
X151315654Y-94341223D01*
X151334704Y-94376862D01*
X151346435Y-94415532D01*
X151351000Y-94461888D01*
X151351000Y-95538112D01*
X151346435Y-95584468D01*
X151334704Y-95623138D01*
X151315654Y-95658777D01*
X151290017Y-95690017D01*
X151258777Y-95715654D01*
X151223138Y-95734704D01*
X151184468Y-95746435D01*
X151138112Y-95751000D01*
X150486888Y-95751000D01*
X150440532Y-95746435D01*
X150401862Y-95734704D01*
X150366223Y-95715654D01*
X150334983Y-95690017D01*
X150309346Y-95658777D01*
X150290296Y-95623138D01*
X150278565Y-95584468D01*
X150274000Y-95538112D01*
X150274000Y-94461888D01*
X150278565Y-94415532D01*
X150290296Y-94376862D01*
X150309346Y-94341223D01*
X150334983Y-94309983D01*
X150366223Y-94284346D01*
X150401862Y-94265296D01*
X150440532Y-94253565D01*
X150486888Y-94249000D01*
X151138112Y-94249000D01*
X151184468Y-94253565D01*
X151184468Y-94253565D01*
G37*
G36*
X145434468Y-94253565D02*
G01*
X145473138Y-94265296D01*
X145508777Y-94284346D01*
X145540017Y-94309983D01*
X145565654Y-94341223D01*
X145584704Y-94376862D01*
X145596435Y-94415532D01*
X145601000Y-94461888D01*
X145601000Y-95538112D01*
X145596435Y-95584468D01*
X145584704Y-95623138D01*
X145565654Y-95658777D01*
X145540017Y-95690017D01*
X145508777Y-95715654D01*
X145473138Y-95734704D01*
X145434468Y-95746435D01*
X145388112Y-95751000D01*
X144736888Y-95751000D01*
X144690532Y-95746435D01*
X144651862Y-95734704D01*
X144616223Y-95715654D01*
X144584983Y-95690017D01*
X144559346Y-95658777D01*
X144540296Y-95623138D01*
X144528565Y-95584468D01*
X144524000Y-95538112D01*
X144524000Y-94461888D01*
X144528565Y-94415532D01*
X144540296Y-94376862D01*
X144559346Y-94341223D01*
X144584983Y-94309983D01*
X144616223Y-94284346D01*
X144651862Y-94265296D01*
X144690532Y-94253565D01*
X144736888Y-94249000D01*
X145388112Y-94249000D01*
X145434468Y-94253565D01*
X145434468Y-94253565D01*
G37*
G36*
X141509468Y-94253565D02*
G01*
X141548138Y-94265296D01*
X141583777Y-94284346D01*
X141615017Y-94309983D01*
X141640654Y-94341223D01*
X141659704Y-94376862D01*
X141671435Y-94415532D01*
X141676000Y-94461888D01*
X141676000Y-95538112D01*
X141671435Y-95584468D01*
X141659704Y-95623138D01*
X141640654Y-95658777D01*
X141615017Y-95690017D01*
X141583777Y-95715654D01*
X141548138Y-95734704D01*
X141509468Y-95746435D01*
X141463112Y-95751000D01*
X140811888Y-95751000D01*
X140765532Y-95746435D01*
X140726862Y-95734704D01*
X140691223Y-95715654D01*
X140659983Y-95690017D01*
X140634346Y-95658777D01*
X140615296Y-95623138D01*
X140603565Y-95584468D01*
X140599000Y-95538112D01*
X140599000Y-94461888D01*
X140603565Y-94415532D01*
X140615296Y-94376862D01*
X140634346Y-94341223D01*
X140659983Y-94309983D01*
X140691223Y-94284346D01*
X140726862Y-94265296D01*
X140765532Y-94253565D01*
X140811888Y-94249000D01*
X141463112Y-94249000D01*
X141509468Y-94253565D01*
X141509468Y-94253565D01*
G37*
G36*
X139634468Y-94253565D02*
G01*
X139673138Y-94265296D01*
X139708777Y-94284346D01*
X139740017Y-94309983D01*
X139765654Y-94341223D01*
X139784704Y-94376862D01*
X139796435Y-94415532D01*
X139801000Y-94461888D01*
X139801000Y-95538112D01*
X139796435Y-95584468D01*
X139784704Y-95623138D01*
X139765654Y-95658777D01*
X139740017Y-95690017D01*
X139708777Y-95715654D01*
X139673138Y-95734704D01*
X139634468Y-95746435D01*
X139588112Y-95751000D01*
X138936888Y-95751000D01*
X138890532Y-95746435D01*
X138851862Y-95734704D01*
X138816223Y-95715654D01*
X138784983Y-95690017D01*
X138759346Y-95658777D01*
X138740296Y-95623138D01*
X138728565Y-95584468D01*
X138724000Y-95538112D01*
X138724000Y-94461888D01*
X138728565Y-94415532D01*
X138740296Y-94376862D01*
X138759346Y-94341223D01*
X138784983Y-94309983D01*
X138816223Y-94284346D01*
X138851862Y-94265296D01*
X138890532Y-94253565D01*
X138936888Y-94249000D01*
X139588112Y-94249000D01*
X139634468Y-94253565D01*
X139634468Y-94253565D01*
G37*
G36*
X135709468Y-94253565D02*
G01*
X135748138Y-94265296D01*
X135783777Y-94284346D01*
X135815017Y-94309983D01*
X135840654Y-94341223D01*
X135859704Y-94376862D01*
X135871435Y-94415532D01*
X135876000Y-94461888D01*
X135876000Y-95538112D01*
X135871435Y-95584468D01*
X135859704Y-95623138D01*
X135840654Y-95658777D01*
X135815017Y-95690017D01*
X135783777Y-95715654D01*
X135748138Y-95734704D01*
X135709468Y-95746435D01*
X135663112Y-95751000D01*
X135011888Y-95751000D01*
X134965532Y-95746435D01*
X134926862Y-95734704D01*
X134891223Y-95715654D01*
X134859983Y-95690017D01*
X134834346Y-95658777D01*
X134815296Y-95623138D01*
X134803565Y-95584468D01*
X134799000Y-95538112D01*
X134799000Y-94461888D01*
X134803565Y-94415532D01*
X134815296Y-94376862D01*
X134834346Y-94341223D01*
X134859983Y-94309983D01*
X134891223Y-94284346D01*
X134926862Y-94265296D01*
X134965532Y-94253565D01*
X135011888Y-94249000D01*
X135663112Y-94249000D01*
X135709468Y-94253565D01*
X135709468Y-94253565D01*
G37*
G36*
X133834468Y-94253565D02*
G01*
X133873138Y-94265296D01*
X133908777Y-94284346D01*
X133940017Y-94309983D01*
X133965654Y-94341223D01*
X133984704Y-94376862D01*
X133996435Y-94415532D01*
X134001000Y-94461888D01*
X134001000Y-95538112D01*
X133996435Y-95584468D01*
X133984704Y-95623138D01*
X133965654Y-95658777D01*
X133940017Y-95690017D01*
X133908777Y-95715654D01*
X133873138Y-95734704D01*
X133834468Y-95746435D01*
X133788112Y-95751000D01*
X133136888Y-95751000D01*
X133090532Y-95746435D01*
X133051862Y-95734704D01*
X133016223Y-95715654D01*
X132984983Y-95690017D01*
X132959346Y-95658777D01*
X132940296Y-95623138D01*
X132928565Y-95584468D01*
X132924000Y-95538112D01*
X132924000Y-94461888D01*
X132928565Y-94415532D01*
X132940296Y-94376862D01*
X132959346Y-94341223D01*
X132984983Y-94309983D01*
X133016223Y-94284346D01*
X133051862Y-94265296D01*
X133090532Y-94253565D01*
X133136888Y-94249000D01*
X133788112Y-94249000D01*
X133834468Y-94253565D01*
X133834468Y-94253565D01*
G37*
G36*
X129709468Y-94253565D02*
G01*
X129748138Y-94265296D01*
X129783777Y-94284346D01*
X129815017Y-94309983D01*
X129840654Y-94341223D01*
X129859704Y-94376862D01*
X129871435Y-94415532D01*
X129876000Y-94461888D01*
X129876000Y-95538112D01*
X129871435Y-95584468D01*
X129859704Y-95623138D01*
X129840654Y-95658777D01*
X129815017Y-95690017D01*
X129783777Y-95715654D01*
X129748138Y-95734704D01*
X129709468Y-95746435D01*
X129663112Y-95751000D01*
X129011888Y-95751000D01*
X128965532Y-95746435D01*
X128926862Y-95734704D01*
X128891223Y-95715654D01*
X128859983Y-95690017D01*
X128834346Y-95658777D01*
X128815296Y-95623138D01*
X128803565Y-95584468D01*
X128799000Y-95538112D01*
X128799000Y-94461888D01*
X128803565Y-94415532D01*
X128815296Y-94376862D01*
X128834346Y-94341223D01*
X128859983Y-94309983D01*
X128891223Y-94284346D01*
X128926862Y-94265296D01*
X128965532Y-94253565D01*
X129011888Y-94249000D01*
X129663112Y-94249000D01*
X129709468Y-94253565D01*
X129709468Y-94253565D01*
G37*
G36*
X127834468Y-94253565D02*
G01*
X127873138Y-94265296D01*
X127908777Y-94284346D01*
X127940017Y-94309983D01*
X127965654Y-94341223D01*
X127984704Y-94376862D01*
X127996435Y-94415532D01*
X128001000Y-94461888D01*
X128001000Y-95538112D01*
X127996435Y-95584468D01*
X127984704Y-95623138D01*
X127965654Y-95658777D01*
X127940017Y-95690017D01*
X127908777Y-95715654D01*
X127873138Y-95734704D01*
X127834468Y-95746435D01*
X127788112Y-95751000D01*
X127136888Y-95751000D01*
X127090532Y-95746435D01*
X127051862Y-95734704D01*
X127016223Y-95715654D01*
X126984983Y-95690017D01*
X126959346Y-95658777D01*
X126940296Y-95623138D01*
X126928565Y-95584468D01*
X126924000Y-95538112D01*
X126924000Y-94461888D01*
X126928565Y-94415532D01*
X126940296Y-94376862D01*
X126959346Y-94341223D01*
X126984983Y-94309983D01*
X127016223Y-94284346D01*
X127051862Y-94265296D01*
X127090532Y-94253565D01*
X127136888Y-94249000D01*
X127788112Y-94249000D01*
X127834468Y-94253565D01*
X127834468Y-94253565D01*
G37*
G36*
X124009468Y-94253565D02*
G01*
X124048138Y-94265296D01*
X124083777Y-94284346D01*
X124115017Y-94309983D01*
X124140654Y-94341223D01*
X124159704Y-94376862D01*
X124171435Y-94415532D01*
X124176000Y-94461888D01*
X124176000Y-95538112D01*
X124171435Y-95584468D01*
X124159704Y-95623138D01*
X124140654Y-95658777D01*
X124115017Y-95690017D01*
X124083777Y-95715654D01*
X124048138Y-95734704D01*
X124009468Y-95746435D01*
X123963112Y-95751000D01*
X123311888Y-95751000D01*
X123265532Y-95746435D01*
X123226862Y-95734704D01*
X123191223Y-95715654D01*
X123159983Y-95690017D01*
X123134346Y-95658777D01*
X123115296Y-95623138D01*
X123103565Y-95584468D01*
X123099000Y-95538112D01*
X123099000Y-94461888D01*
X123103565Y-94415532D01*
X123115296Y-94376862D01*
X123134346Y-94341223D01*
X123159983Y-94309983D01*
X123191223Y-94284346D01*
X123226862Y-94265296D01*
X123265532Y-94253565D01*
X123311888Y-94249000D01*
X123963112Y-94249000D01*
X124009468Y-94253565D01*
X124009468Y-94253565D01*
G37*
G36*
X122134468Y-94253565D02*
G01*
X122173138Y-94265296D01*
X122208777Y-94284346D01*
X122240017Y-94309983D01*
X122265654Y-94341223D01*
X122284704Y-94376862D01*
X122296435Y-94415532D01*
X122301000Y-94461888D01*
X122301000Y-95538112D01*
X122296435Y-95584468D01*
X122284704Y-95623138D01*
X122265654Y-95658777D01*
X122240017Y-95690017D01*
X122208777Y-95715654D01*
X122173138Y-95734704D01*
X122134468Y-95746435D01*
X122088112Y-95751000D01*
X121436888Y-95751000D01*
X121390532Y-95746435D01*
X121351862Y-95734704D01*
X121316223Y-95715654D01*
X121284983Y-95690017D01*
X121259346Y-95658777D01*
X121240296Y-95623138D01*
X121228565Y-95584468D01*
X121224000Y-95538112D01*
X121224000Y-94461888D01*
X121228565Y-94415532D01*
X121240296Y-94376862D01*
X121259346Y-94341223D01*
X121284983Y-94309983D01*
X121316223Y-94284346D01*
X121351862Y-94265296D01*
X121390532Y-94253565D01*
X121436888Y-94249000D01*
X122088112Y-94249000D01*
X122134468Y-94253565D01*
X122134468Y-94253565D01*
G37*
G36*
X158809468Y-94253565D02*
G01*
X158848138Y-94265296D01*
X158883777Y-94284346D01*
X158915017Y-94309983D01*
X158940654Y-94341223D01*
X158959704Y-94376862D01*
X158971435Y-94415532D01*
X158976000Y-94461888D01*
X158976000Y-95538112D01*
X158971435Y-95584468D01*
X158959704Y-95623138D01*
X158940654Y-95658777D01*
X158915017Y-95690017D01*
X158883777Y-95715654D01*
X158848138Y-95734704D01*
X158809468Y-95746435D01*
X158763112Y-95751000D01*
X158111888Y-95751000D01*
X158065532Y-95746435D01*
X158026862Y-95734704D01*
X157991223Y-95715654D01*
X157959983Y-95690017D01*
X157934346Y-95658777D01*
X157915296Y-95623138D01*
X157903565Y-95584468D01*
X157899000Y-95538112D01*
X157899000Y-94461888D01*
X157903565Y-94415532D01*
X157915296Y-94376862D01*
X157934346Y-94341223D01*
X157959983Y-94309983D01*
X157991223Y-94284346D01*
X158026862Y-94265296D01*
X158065532Y-94253565D01*
X158111888Y-94249000D01*
X158763112Y-94249000D01*
X158809468Y-94253565D01*
X158809468Y-94253565D01*
G37*
G36*
X162709468Y-94253565D02*
G01*
X162748138Y-94265296D01*
X162783777Y-94284346D01*
X162815017Y-94309983D01*
X162840654Y-94341223D01*
X162859704Y-94376862D01*
X162871435Y-94415532D01*
X162876000Y-94461888D01*
X162876000Y-95538112D01*
X162871435Y-95584468D01*
X162859704Y-95623138D01*
X162840654Y-95658777D01*
X162815017Y-95690017D01*
X162783777Y-95715654D01*
X162748138Y-95734704D01*
X162709468Y-95746435D01*
X162663112Y-95751000D01*
X162011888Y-95751000D01*
X161965532Y-95746435D01*
X161926862Y-95734704D01*
X161891223Y-95715654D01*
X161859983Y-95690017D01*
X161834346Y-95658777D01*
X161815296Y-95623138D01*
X161803565Y-95584468D01*
X161799000Y-95538112D01*
X161799000Y-94461888D01*
X161803565Y-94415532D01*
X161815296Y-94376862D01*
X161834346Y-94341223D01*
X161859983Y-94309983D01*
X161891223Y-94284346D01*
X161926862Y-94265296D01*
X161965532Y-94253565D01*
X162011888Y-94249000D01*
X162663112Y-94249000D01*
X162709468Y-94253565D01*
X162709468Y-94253565D01*
G37*
G36*
X153059468Y-94253565D02*
G01*
X153098138Y-94265296D01*
X153133777Y-94284346D01*
X153165017Y-94309983D01*
X153190654Y-94341223D01*
X153209704Y-94376862D01*
X153221435Y-94415532D01*
X153226000Y-94461888D01*
X153226000Y-95538112D01*
X153221435Y-95584468D01*
X153209704Y-95623138D01*
X153190654Y-95658777D01*
X153165017Y-95690017D01*
X153133777Y-95715654D01*
X153098138Y-95734704D01*
X153059468Y-95746435D01*
X153013112Y-95751000D01*
X152361888Y-95751000D01*
X152315532Y-95746435D01*
X152276862Y-95734704D01*
X152241223Y-95715654D01*
X152209983Y-95690017D01*
X152184346Y-95658777D01*
X152165296Y-95623138D01*
X152153565Y-95584468D01*
X152149000Y-95538112D01*
X152149000Y-94461888D01*
X152153565Y-94415532D01*
X152165296Y-94376862D01*
X152184346Y-94341223D01*
X152209983Y-94309983D01*
X152241223Y-94284346D01*
X152276862Y-94265296D01*
X152315532Y-94253565D01*
X152361888Y-94249000D01*
X153013112Y-94249000D01*
X153059468Y-94253565D01*
X153059468Y-94253565D01*
G37*
G36*
X147309468Y-94253565D02*
G01*
X147348138Y-94265296D01*
X147383777Y-94284346D01*
X147415017Y-94309983D01*
X147440654Y-94341223D01*
X147459704Y-94376862D01*
X147471435Y-94415532D01*
X147476000Y-94461888D01*
X147476000Y-95538112D01*
X147471435Y-95584468D01*
X147459704Y-95623138D01*
X147440654Y-95658777D01*
X147415017Y-95690017D01*
X147383777Y-95715654D01*
X147348138Y-95734704D01*
X147309468Y-95746435D01*
X147263112Y-95751000D01*
X146611888Y-95751000D01*
X146565532Y-95746435D01*
X146526862Y-95734704D01*
X146491223Y-95715654D01*
X146459983Y-95690017D01*
X146434346Y-95658777D01*
X146415296Y-95623138D01*
X146403565Y-95584468D01*
X146399000Y-95538112D01*
X146399000Y-94461888D01*
X146403565Y-94415532D01*
X146415296Y-94376862D01*
X146434346Y-94341223D01*
X146459983Y-94309983D01*
X146491223Y-94284346D01*
X146526862Y-94265296D01*
X146565532Y-94253565D01*
X146611888Y-94249000D01*
X147263112Y-94249000D01*
X147309468Y-94253565D01*
X147309468Y-94253565D01*
G37*
G36*
X164584468Y-94253565D02*
G01*
X164623138Y-94265296D01*
X164658777Y-94284346D01*
X164690017Y-94309983D01*
X164715654Y-94341223D01*
X164734704Y-94376862D01*
X164746435Y-94415532D01*
X164751000Y-94461888D01*
X164751000Y-95538112D01*
X164746435Y-95584468D01*
X164734704Y-95623138D01*
X164715654Y-95658777D01*
X164690017Y-95690017D01*
X164658777Y-95715654D01*
X164623138Y-95734704D01*
X164584468Y-95746435D01*
X164538112Y-95751000D01*
X163886888Y-95751000D01*
X163840532Y-95746435D01*
X163801862Y-95734704D01*
X163766223Y-95715654D01*
X163734983Y-95690017D01*
X163709346Y-95658777D01*
X163690296Y-95623138D01*
X163678565Y-95584468D01*
X163674000Y-95538112D01*
X163674000Y-94461888D01*
X163678565Y-94415532D01*
X163690296Y-94376862D01*
X163709346Y-94341223D01*
X163734983Y-94309983D01*
X163766223Y-94284346D01*
X163801862Y-94265296D01*
X163840532Y-94253565D01*
X163886888Y-94249000D01*
X164538112Y-94249000D01*
X164584468Y-94253565D01*
X164584468Y-94253565D01*
G37*
G36*
X103796228Y-93163483D02*
G01*
X103984922Y-93220723D01*
X104158815Y-93313671D01*
X104311239Y-93438761D01*
X104436329Y-93591185D01*
X104529277Y-93765078D01*
X104586517Y-93953772D01*
X104605843Y-94150000D01*
X104586517Y-94346228D01*
X104529277Y-94534922D01*
X104436329Y-94708815D01*
X104311239Y-94861239D01*
X104158815Y-94986329D01*
X103984922Y-95079277D01*
X103796228Y-95136517D01*
X103649175Y-95151000D01*
X101950825Y-95151000D01*
X101803772Y-95136517D01*
X101615078Y-95079277D01*
X101441185Y-94986329D01*
X101288761Y-94861239D01*
X101163671Y-94708815D01*
X101070723Y-94534922D01*
X101013483Y-94346228D01*
X100994157Y-94150000D01*
X101013483Y-93953772D01*
X101070723Y-93765078D01*
X101163671Y-93591185D01*
X101288761Y-93438761D01*
X101441185Y-93313671D01*
X101615078Y-93220723D01*
X101803772Y-93163483D01*
X101950825Y-93149000D01*
X103649175Y-93149000D01*
X103796228Y-93163483D01*
X103796228Y-93163483D01*
G37*
G36*
X108696968Y-93053565D02*
G01*
X108735638Y-93065296D01*
X108771277Y-93084346D01*
X108802517Y-93109983D01*
X108828154Y-93141223D01*
X108847204Y-93176862D01*
X108858935Y-93215532D01*
X108863500Y-93261888D01*
X108863500Y-94338112D01*
X108858935Y-94384468D01*
X108847204Y-94423138D01*
X108828154Y-94458777D01*
X108802517Y-94490017D01*
X108771277Y-94515654D01*
X108735638Y-94534704D01*
X108696968Y-94546435D01*
X108650612Y-94551000D01*
X107999388Y-94551000D01*
X107953032Y-94546435D01*
X107914362Y-94534704D01*
X107878723Y-94515654D01*
X107847483Y-94490017D01*
X107821846Y-94458777D01*
X107802796Y-94423138D01*
X107791065Y-94384468D01*
X107786500Y-94338112D01*
X107786500Y-93261888D01*
X107791065Y-93215532D01*
X107802796Y-93176862D01*
X107821846Y-93141223D01*
X107847483Y-93109983D01*
X107878723Y-93084346D01*
X107914362Y-93065296D01*
X107953032Y-93053565D01*
X107999388Y-93049000D01*
X108650612Y-93049000D01*
X108696968Y-93053565D01*
X108696968Y-93053565D01*
G37*
G36*
X110571968Y-93053565D02*
G01*
X110610638Y-93065296D01*
X110646277Y-93084346D01*
X110677517Y-93109983D01*
X110703154Y-93141223D01*
X110722204Y-93176862D01*
X110733935Y-93215532D01*
X110738500Y-93261888D01*
X110738500Y-94338112D01*
X110733935Y-94384468D01*
X110722204Y-94423138D01*
X110703154Y-94458777D01*
X110677517Y-94490017D01*
X110646277Y-94515654D01*
X110610638Y-94534704D01*
X110571968Y-94546435D01*
X110525612Y-94551000D01*
X109874388Y-94551000D01*
X109828032Y-94546435D01*
X109789362Y-94534704D01*
X109753723Y-94515654D01*
X109722483Y-94490017D01*
X109696846Y-94458777D01*
X109677796Y-94423138D01*
X109666065Y-94384468D01*
X109661500Y-94338112D01*
X109661500Y-93261888D01*
X109666065Y-93215532D01*
X109677796Y-93176862D01*
X109696846Y-93141223D01*
X109722483Y-93109983D01*
X109753723Y-93084346D01*
X109789362Y-93065296D01*
X109828032Y-93053565D01*
X109874388Y-93049000D01*
X110525612Y-93049000D01*
X110571968Y-93053565D01*
X110571968Y-93053565D01*
G37*
G36*
X113971968Y-93053565D02*
G01*
X114010638Y-93065296D01*
X114046277Y-93084346D01*
X114077517Y-93109983D01*
X114103154Y-93141223D01*
X114122204Y-93176862D01*
X114133935Y-93215532D01*
X114138500Y-93261888D01*
X114138500Y-94338112D01*
X114133935Y-94384468D01*
X114122204Y-94423138D01*
X114103154Y-94458777D01*
X114077517Y-94490017D01*
X114046277Y-94515654D01*
X114010638Y-94534704D01*
X113971968Y-94546435D01*
X113925612Y-94551000D01*
X113274388Y-94551000D01*
X113228032Y-94546435D01*
X113189362Y-94534704D01*
X113153723Y-94515654D01*
X113122483Y-94490017D01*
X113096846Y-94458777D01*
X113077796Y-94423138D01*
X113066065Y-94384468D01*
X113061500Y-94338112D01*
X113061500Y-93261888D01*
X113066065Y-93215532D01*
X113077796Y-93176862D01*
X113096846Y-93141223D01*
X113122483Y-93109983D01*
X113153723Y-93084346D01*
X113189362Y-93065296D01*
X113228032Y-93053565D01*
X113274388Y-93049000D01*
X113925612Y-93049000D01*
X113971968Y-93053565D01*
X113971968Y-93053565D01*
G37*
G36*
X112096968Y-93053565D02*
G01*
X112135638Y-93065296D01*
X112171277Y-93084346D01*
X112202517Y-93109983D01*
X112228154Y-93141223D01*
X112247204Y-93176862D01*
X112258935Y-93215532D01*
X112263500Y-93261888D01*
X112263500Y-94338112D01*
X112258935Y-94384468D01*
X112247204Y-94423138D01*
X112228154Y-94458777D01*
X112202517Y-94490017D01*
X112171277Y-94515654D01*
X112135638Y-94534704D01*
X112096968Y-94546435D01*
X112050612Y-94551000D01*
X111399388Y-94551000D01*
X111353032Y-94546435D01*
X111314362Y-94534704D01*
X111278723Y-94515654D01*
X111247483Y-94490017D01*
X111221846Y-94458777D01*
X111202796Y-94423138D01*
X111191065Y-94384468D01*
X111186500Y-94338112D01*
X111186500Y-93261888D01*
X111191065Y-93215532D01*
X111202796Y-93176862D01*
X111221846Y-93141223D01*
X111247483Y-93109983D01*
X111278723Y-93084346D01*
X111314362Y-93065296D01*
X111353032Y-93053565D01*
X111399388Y-93049000D01*
X112050612Y-93049000D01*
X112096968Y-93053565D01*
X112096968Y-93053565D01*
G37*
M02*
