G04 #@! TF.GenerationSoftware,KiCad,Pcbnew,(5.1.0)-1*
G04 #@! TF.CreationDate,2019-03-21T22:28:08+09:00*
G04 #@! TF.ProjectId,JuicyLight32,4a756963-794c-4696-9768-7433322e6b69,rev?*
G04 #@! TF.SameCoordinates,Original*
G04 #@! TF.FileFunction,Soldermask,Bot*
G04 #@! TF.FilePolarity,Negative*
%FSLAX46Y46*%
G04 Gerber Fmt 4.6, Leading zero omitted, Abs format (unit mm)*
G04 Created by KiCad (PCBNEW (5.1.0)-1) date 2019-03-21 22:28:08*
%MOMM*%
%LPD*%
G04 APERTURE LIST*
%ADD10C,0.100000*%
G04 APERTURE END LIST*
D10*
G36*
X117471968Y-108653565D02*
G01*
X117510638Y-108665296D01*
X117546277Y-108684346D01*
X117577517Y-108709983D01*
X117603154Y-108741223D01*
X117622204Y-108776862D01*
X117633935Y-108815532D01*
X117638500Y-108861888D01*
X117638500Y-109938112D01*
X117633935Y-109984468D01*
X117622204Y-110023138D01*
X117603154Y-110058777D01*
X117577517Y-110090017D01*
X117546277Y-110115654D01*
X117510638Y-110134704D01*
X117471968Y-110146435D01*
X117425612Y-110151000D01*
X116774388Y-110151000D01*
X116728032Y-110146435D01*
X116689362Y-110134704D01*
X116653723Y-110115654D01*
X116622483Y-110090017D01*
X116596846Y-110058777D01*
X116577796Y-110023138D01*
X116566065Y-109984468D01*
X116561500Y-109938112D01*
X116561500Y-108861888D01*
X116566065Y-108815532D01*
X116577796Y-108776862D01*
X116596846Y-108741223D01*
X116622483Y-108709983D01*
X116653723Y-108684346D01*
X116689362Y-108665296D01*
X116728032Y-108653565D01*
X116774388Y-108649000D01*
X117425612Y-108649000D01*
X117471968Y-108653565D01*
X117471968Y-108653565D01*
G37*
G36*
X115596968Y-108653565D02*
G01*
X115635638Y-108665296D01*
X115671277Y-108684346D01*
X115702517Y-108709983D01*
X115728154Y-108741223D01*
X115747204Y-108776862D01*
X115758935Y-108815532D01*
X115763500Y-108861888D01*
X115763500Y-109938112D01*
X115758935Y-109984468D01*
X115747204Y-110023138D01*
X115728154Y-110058777D01*
X115702517Y-110090017D01*
X115671277Y-110115654D01*
X115635638Y-110134704D01*
X115596968Y-110146435D01*
X115550612Y-110151000D01*
X114899388Y-110151000D01*
X114853032Y-110146435D01*
X114814362Y-110134704D01*
X114778723Y-110115654D01*
X114747483Y-110090017D01*
X114721846Y-110058777D01*
X114702796Y-110023138D01*
X114691065Y-109984468D01*
X114686500Y-109938112D01*
X114686500Y-108861888D01*
X114691065Y-108815532D01*
X114702796Y-108776862D01*
X114721846Y-108741223D01*
X114747483Y-108709983D01*
X114778723Y-108684346D01*
X114814362Y-108665296D01*
X114853032Y-108653565D01*
X114899388Y-108649000D01*
X115550612Y-108649000D01*
X115596968Y-108653565D01*
X115596968Y-108653565D01*
G37*
G36*
X105321968Y-107853565D02*
G01*
X105360638Y-107865296D01*
X105396277Y-107884346D01*
X105427517Y-107909983D01*
X105453154Y-107941223D01*
X105472204Y-107976862D01*
X105483935Y-108015532D01*
X105488500Y-108061888D01*
X105488500Y-109138112D01*
X105483935Y-109184468D01*
X105472204Y-109223138D01*
X105453154Y-109258777D01*
X105427517Y-109290017D01*
X105396277Y-109315654D01*
X105360638Y-109334704D01*
X105321968Y-109346435D01*
X105275612Y-109351000D01*
X104624388Y-109351000D01*
X104578032Y-109346435D01*
X104539362Y-109334704D01*
X104503723Y-109315654D01*
X104472483Y-109290017D01*
X104446846Y-109258777D01*
X104427796Y-109223138D01*
X104416065Y-109184468D01*
X104411500Y-109138112D01*
X104411500Y-108061888D01*
X104416065Y-108015532D01*
X104427796Y-107976862D01*
X104446846Y-107941223D01*
X104472483Y-107909983D01*
X104503723Y-107884346D01*
X104539362Y-107865296D01*
X104578032Y-107853565D01*
X104624388Y-107849000D01*
X105275612Y-107849000D01*
X105321968Y-107853565D01*
X105321968Y-107853565D01*
G37*
G36*
X103446968Y-107853565D02*
G01*
X103485638Y-107865296D01*
X103521277Y-107884346D01*
X103552517Y-107909983D01*
X103578154Y-107941223D01*
X103597204Y-107976862D01*
X103608935Y-108015532D01*
X103613500Y-108061888D01*
X103613500Y-109138112D01*
X103608935Y-109184468D01*
X103597204Y-109223138D01*
X103578154Y-109258777D01*
X103552517Y-109290017D01*
X103521277Y-109315654D01*
X103485638Y-109334704D01*
X103446968Y-109346435D01*
X103400612Y-109351000D01*
X102749388Y-109351000D01*
X102703032Y-109346435D01*
X102664362Y-109334704D01*
X102628723Y-109315654D01*
X102597483Y-109290017D01*
X102571846Y-109258777D01*
X102552796Y-109223138D01*
X102541065Y-109184468D01*
X102536500Y-109138112D01*
X102536500Y-108061888D01*
X102541065Y-108015532D01*
X102552796Y-107976862D01*
X102571846Y-107941223D01*
X102597483Y-107909983D01*
X102628723Y-107884346D01*
X102664362Y-107865296D01*
X102703032Y-107853565D01*
X102749388Y-107849000D01*
X103400612Y-107849000D01*
X103446968Y-107853565D01*
X103446968Y-107853565D01*
G37*
G36*
X119911000Y-108841000D02*
G01*
X119009000Y-108841000D01*
X119009000Y-107839000D01*
X119911000Y-107839000D01*
X119911000Y-108841000D01*
X119911000Y-108841000D01*
G37*
G36*
X121811000Y-108841000D02*
G01*
X120909000Y-108841000D01*
X120909000Y-107839000D01*
X121811000Y-107839000D01*
X121811000Y-108841000D01*
X121811000Y-108841000D01*
G37*
G36*
X113084468Y-107716065D02*
G01*
X113123138Y-107727796D01*
X113158777Y-107746846D01*
X113190017Y-107772483D01*
X113215654Y-107803723D01*
X113234704Y-107839362D01*
X113246435Y-107878032D01*
X113251000Y-107924388D01*
X113251000Y-108575612D01*
X113246435Y-108621968D01*
X113234704Y-108660638D01*
X113215654Y-108696277D01*
X113190017Y-108727517D01*
X113158777Y-108753154D01*
X113123138Y-108772204D01*
X113084468Y-108783935D01*
X113038112Y-108788500D01*
X111961888Y-108788500D01*
X111915532Y-108783935D01*
X111876862Y-108772204D01*
X111841223Y-108753154D01*
X111809983Y-108727517D01*
X111784346Y-108696277D01*
X111765296Y-108660638D01*
X111753565Y-108621968D01*
X111749000Y-108575612D01*
X111749000Y-107924388D01*
X111753565Y-107878032D01*
X111765296Y-107839362D01*
X111784346Y-107803723D01*
X111809983Y-107772483D01*
X111841223Y-107746846D01*
X111876862Y-107727796D01*
X111915532Y-107716065D01*
X111961888Y-107711500D01*
X113038112Y-107711500D01*
X113084468Y-107716065D01*
X113084468Y-107716065D01*
G37*
G36*
X107091000Y-108656000D02*
G01*
X105929000Y-108656000D01*
X105929000Y-106004000D01*
X107091000Y-106004000D01*
X107091000Y-108656000D01*
X107091000Y-108656000D01*
G37*
G36*
X109291000Y-108656000D02*
G01*
X108129000Y-108656000D01*
X108129000Y-107904000D01*
X109291000Y-107904000D01*
X109291000Y-108656000D01*
X109291000Y-108656000D01*
G37*
G36*
X117260721Y-107020174D02*
G01*
X117360995Y-107061709D01*
X117360996Y-107061710D01*
X117451242Y-107122010D01*
X117527990Y-107198758D01*
X117555973Y-107240638D01*
X117588291Y-107289005D01*
X117629826Y-107389279D01*
X117651000Y-107495730D01*
X117651000Y-107604270D01*
X117629826Y-107710721D01*
X117588291Y-107810995D01*
X117569337Y-107839362D01*
X117527990Y-107901242D01*
X117451242Y-107977990D01*
X117447111Y-107980750D01*
X117360995Y-108038291D01*
X117260721Y-108079826D01*
X117154270Y-108101000D01*
X117045730Y-108101000D01*
X116939279Y-108079826D01*
X116839005Y-108038291D01*
X116752889Y-107980750D01*
X116748758Y-107977990D01*
X116672010Y-107901242D01*
X116630663Y-107839362D01*
X116611709Y-107810995D01*
X116570174Y-107710721D01*
X116549000Y-107604270D01*
X116549000Y-107495730D01*
X116570174Y-107389279D01*
X116611709Y-107289005D01*
X116644027Y-107240638D01*
X116672010Y-107198758D01*
X116748758Y-107122010D01*
X116839004Y-107061710D01*
X116839005Y-107061709D01*
X116939279Y-107020174D01*
X117045730Y-106999000D01*
X117154270Y-106999000D01*
X117260721Y-107020174D01*
X117260721Y-107020174D01*
G37*
G36*
X111114468Y-106296065D02*
G01*
X111153138Y-106307796D01*
X111188777Y-106326846D01*
X111220017Y-106352483D01*
X111245654Y-106383723D01*
X111264704Y-106419362D01*
X111276435Y-106458032D01*
X111281000Y-106504388D01*
X111281000Y-107155612D01*
X111276435Y-107201968D01*
X111264704Y-107240638D01*
X111245654Y-107276277D01*
X111220017Y-107307517D01*
X111188777Y-107333154D01*
X111153138Y-107352204D01*
X111114468Y-107363935D01*
X111068112Y-107368500D01*
X109991888Y-107368500D01*
X109945532Y-107363935D01*
X109906862Y-107352204D01*
X109871223Y-107333154D01*
X109839983Y-107307517D01*
X109814346Y-107276277D01*
X109795296Y-107240638D01*
X109783565Y-107201968D01*
X109779000Y-107155612D01*
X109779000Y-106504388D01*
X109783565Y-106458032D01*
X109795296Y-106419362D01*
X109814346Y-106383723D01*
X109839983Y-106352483D01*
X109871223Y-106326846D01*
X109906862Y-106307796D01*
X109945532Y-106296065D01*
X109991888Y-106291500D01*
X111068112Y-106291500D01*
X111114468Y-106296065D01*
X111114468Y-106296065D01*
G37*
G36*
X113084468Y-105841065D02*
G01*
X113123138Y-105852796D01*
X113158777Y-105871846D01*
X113190017Y-105897483D01*
X113215654Y-105928723D01*
X113234704Y-105964362D01*
X113246435Y-106003032D01*
X113251000Y-106049388D01*
X113251000Y-106700612D01*
X113246435Y-106746968D01*
X113234704Y-106785638D01*
X113215654Y-106821277D01*
X113190017Y-106852517D01*
X113158777Y-106878154D01*
X113123138Y-106897204D01*
X113084468Y-106908935D01*
X113038112Y-106913500D01*
X111961888Y-106913500D01*
X111915532Y-106908935D01*
X111876862Y-106897204D01*
X111841223Y-106878154D01*
X111809983Y-106852517D01*
X111784346Y-106821277D01*
X111765296Y-106785638D01*
X111753565Y-106746968D01*
X111749000Y-106700612D01*
X111749000Y-106049388D01*
X111753565Y-106003032D01*
X111765296Y-105964362D01*
X111784346Y-105928723D01*
X111809983Y-105897483D01*
X111841223Y-105871846D01*
X111876862Y-105852796D01*
X111915532Y-105841065D01*
X111961888Y-105836500D01*
X113038112Y-105836500D01*
X113084468Y-105841065D01*
X113084468Y-105841065D01*
G37*
G36*
X103796228Y-104863483D02*
G01*
X103984922Y-104920723D01*
X104158815Y-105013671D01*
X104311239Y-105138761D01*
X104436329Y-105291185D01*
X104529277Y-105465078D01*
X104586517Y-105653772D01*
X104605843Y-105850000D01*
X104586517Y-106046228D01*
X104529277Y-106234922D01*
X104436329Y-106408815D01*
X104311239Y-106561239D01*
X104158815Y-106686329D01*
X103984922Y-106779277D01*
X103796228Y-106836517D01*
X103649175Y-106851000D01*
X101950825Y-106851000D01*
X101803772Y-106836517D01*
X101615078Y-106779277D01*
X101441185Y-106686329D01*
X101288761Y-106561239D01*
X101163671Y-106408815D01*
X101070723Y-106234922D01*
X101013483Y-106046228D01*
X100994157Y-105850000D01*
X101013483Y-105653772D01*
X101070723Y-105465078D01*
X101163671Y-105291185D01*
X101288761Y-105138761D01*
X101441185Y-105013671D01*
X101615078Y-104920723D01*
X101803772Y-104863483D01*
X101950825Y-104849000D01*
X103649175Y-104849000D01*
X103796228Y-104863483D01*
X103796228Y-104863483D01*
G37*
G36*
X120861000Y-106841000D02*
G01*
X119959000Y-106841000D01*
X119959000Y-105839000D01*
X120861000Y-105839000D01*
X120861000Y-106841000D01*
X120861000Y-106841000D01*
G37*
G36*
X109291000Y-106756000D02*
G01*
X108129000Y-106756000D01*
X108129000Y-106004000D01*
X109291000Y-106004000D01*
X109291000Y-106756000D01*
X109291000Y-106756000D01*
G37*
G36*
X115096968Y-104653565D02*
G01*
X115135638Y-104665296D01*
X115171277Y-104684346D01*
X115202517Y-104709983D01*
X115228154Y-104741223D01*
X115247204Y-104776862D01*
X115258935Y-104815532D01*
X115263500Y-104861888D01*
X115263500Y-105938112D01*
X115258935Y-105984468D01*
X115247204Y-106023138D01*
X115228154Y-106058777D01*
X115202517Y-106090017D01*
X115171277Y-106115654D01*
X115135638Y-106134704D01*
X115096968Y-106146435D01*
X115050612Y-106151000D01*
X114399388Y-106151000D01*
X114353032Y-106146435D01*
X114314362Y-106134704D01*
X114278723Y-106115654D01*
X114247483Y-106090017D01*
X114221846Y-106058777D01*
X114202796Y-106023138D01*
X114191065Y-105984468D01*
X114186500Y-105938112D01*
X114186500Y-104861888D01*
X114191065Y-104815532D01*
X114202796Y-104776862D01*
X114221846Y-104741223D01*
X114247483Y-104709983D01*
X114278723Y-104684346D01*
X114314362Y-104665296D01*
X114353032Y-104653565D01*
X114399388Y-104649000D01*
X115050612Y-104649000D01*
X115096968Y-104653565D01*
X115096968Y-104653565D01*
G37*
G36*
X116971968Y-104653565D02*
G01*
X117010638Y-104665296D01*
X117046277Y-104684346D01*
X117077517Y-104709983D01*
X117103154Y-104741223D01*
X117122204Y-104776862D01*
X117133935Y-104815532D01*
X117138500Y-104861888D01*
X117138500Y-105938112D01*
X117133935Y-105984468D01*
X117122204Y-106023138D01*
X117103154Y-106058777D01*
X117077517Y-106090017D01*
X117046277Y-106115654D01*
X117010638Y-106134704D01*
X116971968Y-106146435D01*
X116925612Y-106151000D01*
X116274388Y-106151000D01*
X116228032Y-106146435D01*
X116189362Y-106134704D01*
X116153723Y-106115654D01*
X116122483Y-106090017D01*
X116096846Y-106058777D01*
X116077796Y-106023138D01*
X116066065Y-105984468D01*
X116061500Y-105938112D01*
X116061500Y-104861888D01*
X116066065Y-104815532D01*
X116077796Y-104776862D01*
X116096846Y-104741223D01*
X116122483Y-104709983D01*
X116153723Y-104684346D01*
X116189362Y-104665296D01*
X116228032Y-104653565D01*
X116274388Y-104649000D01*
X116925612Y-104649000D01*
X116971968Y-104653565D01*
X116971968Y-104653565D01*
G37*
G36*
X123814468Y-104523565D02*
G01*
X123853138Y-104535296D01*
X123888777Y-104554346D01*
X123920017Y-104579983D01*
X123945654Y-104611223D01*
X123964704Y-104646862D01*
X123976435Y-104685532D01*
X123981000Y-104731888D01*
X123981000Y-105808112D01*
X123976435Y-105854468D01*
X123964704Y-105893138D01*
X123945654Y-105928777D01*
X123920017Y-105960017D01*
X123888777Y-105985654D01*
X123853138Y-106004704D01*
X123814468Y-106016435D01*
X123768112Y-106021000D01*
X123116888Y-106021000D01*
X123070532Y-106016435D01*
X123031862Y-106004704D01*
X122996223Y-105985654D01*
X122964983Y-105960017D01*
X122939346Y-105928777D01*
X122920296Y-105893138D01*
X122908565Y-105854468D01*
X122904000Y-105808112D01*
X122904000Y-104731888D01*
X122908565Y-104685532D01*
X122920296Y-104646862D01*
X122939346Y-104611223D01*
X122964983Y-104579983D01*
X122996223Y-104554346D01*
X123031862Y-104535296D01*
X123070532Y-104523565D01*
X123116888Y-104519000D01*
X123768112Y-104519000D01*
X123814468Y-104523565D01*
X123814468Y-104523565D01*
G37*
G36*
X125689468Y-104523565D02*
G01*
X125728138Y-104535296D01*
X125763777Y-104554346D01*
X125795017Y-104579983D01*
X125820654Y-104611223D01*
X125839704Y-104646862D01*
X125851435Y-104685532D01*
X125856000Y-104731888D01*
X125856000Y-105808112D01*
X125851435Y-105854468D01*
X125839704Y-105893138D01*
X125820654Y-105928777D01*
X125795017Y-105960017D01*
X125763777Y-105985654D01*
X125728138Y-106004704D01*
X125689468Y-106016435D01*
X125643112Y-106021000D01*
X124991888Y-106021000D01*
X124945532Y-106016435D01*
X124906862Y-106004704D01*
X124871223Y-105985654D01*
X124839983Y-105960017D01*
X124814346Y-105928777D01*
X124795296Y-105893138D01*
X124783565Y-105854468D01*
X124779000Y-105808112D01*
X124779000Y-104731888D01*
X124783565Y-104685532D01*
X124795296Y-104646862D01*
X124814346Y-104611223D01*
X124839983Y-104579983D01*
X124871223Y-104554346D01*
X124906862Y-104535296D01*
X124945532Y-104523565D01*
X124991888Y-104519000D01*
X125643112Y-104519000D01*
X125689468Y-104523565D01*
X125689468Y-104523565D01*
G37*
G36*
X111114468Y-104421065D02*
G01*
X111153138Y-104432796D01*
X111188777Y-104451846D01*
X111220017Y-104477483D01*
X111245654Y-104508723D01*
X111264704Y-104544362D01*
X111276435Y-104583032D01*
X111281000Y-104629388D01*
X111281000Y-105280612D01*
X111276435Y-105326968D01*
X111264704Y-105365638D01*
X111245654Y-105401277D01*
X111220017Y-105432517D01*
X111188777Y-105458154D01*
X111153138Y-105477204D01*
X111114468Y-105488935D01*
X111068112Y-105493500D01*
X109991888Y-105493500D01*
X109945532Y-105488935D01*
X109906862Y-105477204D01*
X109871223Y-105458154D01*
X109839983Y-105432517D01*
X109814346Y-105401277D01*
X109795296Y-105365638D01*
X109783565Y-105326968D01*
X109779000Y-105280612D01*
X109779000Y-104629388D01*
X109783565Y-104583032D01*
X109795296Y-104544362D01*
X109814346Y-104508723D01*
X109839983Y-104477483D01*
X109871223Y-104451846D01*
X109906862Y-104432796D01*
X109945532Y-104421065D01*
X109991888Y-104416500D01*
X111068112Y-104416500D01*
X111114468Y-104421065D01*
X111114468Y-104421065D01*
G37*
G36*
X120560721Y-103940174D02*
G01*
X120660995Y-103981709D01*
X120660996Y-103981710D01*
X120751242Y-104042010D01*
X120827990Y-104118758D01*
X120827991Y-104118760D01*
X120888291Y-104209005D01*
X120929826Y-104309279D01*
X120951000Y-104415730D01*
X120951000Y-104524270D01*
X120929826Y-104630721D01*
X120888291Y-104730995D01*
X120881457Y-104741223D01*
X120827990Y-104821242D01*
X120751242Y-104897990D01*
X120717221Y-104920722D01*
X120660995Y-104958291D01*
X120560721Y-104999826D01*
X120454270Y-105021000D01*
X120345730Y-105021000D01*
X120239279Y-104999826D01*
X120139005Y-104958291D01*
X120082779Y-104920722D01*
X120048758Y-104897990D01*
X119972010Y-104821242D01*
X119918543Y-104741223D01*
X119911709Y-104730995D01*
X119870174Y-104630721D01*
X119849000Y-104524270D01*
X119849000Y-104415730D01*
X119870174Y-104309279D01*
X119911709Y-104209005D01*
X119972009Y-104118760D01*
X119972010Y-104118758D01*
X120048758Y-104042010D01*
X120139004Y-103981710D01*
X120139005Y-103981709D01*
X120239279Y-103940174D01*
X120345730Y-103919000D01*
X120454270Y-103919000D01*
X120560721Y-103940174D01*
X120560721Y-103940174D01*
G37*
G36*
X105477395Y-102585546D02*
G01*
X105650466Y-102657234D01*
X105650467Y-102657235D01*
X105806227Y-102761310D01*
X105938690Y-102893773D01*
X105938691Y-102893775D01*
X106042766Y-103049534D01*
X106114454Y-103222605D01*
X106151000Y-103406333D01*
X106151000Y-103593667D01*
X106114454Y-103777395D01*
X106042766Y-103950466D01*
X106042765Y-103950467D01*
X105938690Y-104106227D01*
X105806227Y-104238690D01*
X105727818Y-104291081D01*
X105650466Y-104342766D01*
X105477395Y-104414454D01*
X105293667Y-104451000D01*
X105106333Y-104451000D01*
X104922605Y-104414454D01*
X104749534Y-104342766D01*
X104672182Y-104291081D01*
X104593773Y-104238690D01*
X104461310Y-104106227D01*
X104357235Y-103950467D01*
X104357234Y-103950466D01*
X104285546Y-103777395D01*
X104249000Y-103593667D01*
X104249000Y-103406333D01*
X104285546Y-103222605D01*
X104357234Y-103049534D01*
X104461309Y-102893775D01*
X104461310Y-102893773D01*
X104593773Y-102761310D01*
X104749533Y-102657235D01*
X104749534Y-102657234D01*
X104922605Y-102585546D01*
X105106333Y-102549000D01*
X105293667Y-102549000D01*
X105477395Y-102585546D01*
X105477395Y-102585546D01*
G37*
G36*
X113633642Y-102479781D02*
G01*
X113766179Y-102534680D01*
X113779416Y-102540163D01*
X113910608Y-102627822D01*
X114022178Y-102739392D01*
X114051048Y-102782600D01*
X114109838Y-102870586D01*
X114170219Y-103016358D01*
X114201000Y-103171107D01*
X114201000Y-103328893D01*
X114170219Y-103483642D01*
X114124646Y-103593665D01*
X114109837Y-103629416D01*
X114022178Y-103760608D01*
X113910608Y-103872178D01*
X113779416Y-103959837D01*
X113779415Y-103959838D01*
X113779414Y-103959838D01*
X113633642Y-104020219D01*
X113478893Y-104051000D01*
X113321107Y-104051000D01*
X113166358Y-104020219D01*
X113020586Y-103959838D01*
X113020585Y-103959838D01*
X113020584Y-103959837D01*
X112889392Y-103872178D01*
X112777822Y-103760608D01*
X112690163Y-103629416D01*
X112675354Y-103593665D01*
X112629781Y-103483642D01*
X112599000Y-103328893D01*
X112599000Y-103171107D01*
X112629781Y-103016358D01*
X112690162Y-102870586D01*
X112748952Y-102782600D01*
X112777822Y-102739392D01*
X112889392Y-102627822D01*
X113020584Y-102540163D01*
X113033821Y-102534680D01*
X113166358Y-102479781D01*
X113321107Y-102449000D01*
X113478893Y-102449000D01*
X113633642Y-102479781D01*
X113633642Y-102479781D01*
G37*
G36*
X109133642Y-102479781D02*
G01*
X109266179Y-102534680D01*
X109279416Y-102540163D01*
X109410608Y-102627822D01*
X109522178Y-102739392D01*
X109551048Y-102782600D01*
X109609838Y-102870586D01*
X109670219Y-103016358D01*
X109701000Y-103171107D01*
X109701000Y-103328893D01*
X109670219Y-103483642D01*
X109624646Y-103593665D01*
X109609837Y-103629416D01*
X109522178Y-103760608D01*
X109410608Y-103872178D01*
X109279416Y-103959837D01*
X109279415Y-103959838D01*
X109279414Y-103959838D01*
X109133642Y-104020219D01*
X108978893Y-104051000D01*
X108821107Y-104051000D01*
X108666358Y-104020219D01*
X108520586Y-103959838D01*
X108520585Y-103959838D01*
X108520584Y-103959837D01*
X108389392Y-103872178D01*
X108277822Y-103760608D01*
X108190163Y-103629416D01*
X108175354Y-103593665D01*
X108129781Y-103483642D01*
X108099000Y-103328893D01*
X108099000Y-103171107D01*
X108129781Y-103016358D01*
X108190162Y-102870586D01*
X108248952Y-102782600D01*
X108277822Y-102739392D01*
X108389392Y-102627822D01*
X108520584Y-102540163D01*
X108533821Y-102534680D01*
X108666358Y-102479781D01*
X108821107Y-102449000D01*
X108978893Y-102449000D01*
X109133642Y-102479781D01*
X109133642Y-102479781D01*
G37*
G36*
X118126000Y-103776000D02*
G01*
X116574000Y-103776000D01*
X116574000Y-97374000D01*
X118126000Y-97374000D01*
X118126000Y-103776000D01*
X118126000Y-103776000D01*
G37*
G36*
X112226000Y-103776000D02*
G01*
X110674000Y-103776000D01*
X110674000Y-97374000D01*
X112226000Y-97374000D01*
X112226000Y-103776000D01*
X112226000Y-103776000D01*
G37*
G36*
X141051000Y-103351000D02*
G01*
X139749000Y-103351000D01*
X139749000Y-101449000D01*
X141051000Y-101449000D01*
X141051000Y-103351000D01*
X141051000Y-103351000D01*
G37*
G36*
X164251000Y-103351000D02*
G01*
X162949000Y-103351000D01*
X162949000Y-101449000D01*
X164251000Y-101449000D01*
X164251000Y-103351000D01*
X164251000Y-103351000D01*
G37*
G36*
X161051000Y-103351000D02*
G01*
X159749000Y-103351000D01*
X159749000Y-101449000D01*
X161051000Y-101449000D01*
X161051000Y-103351000D01*
X161051000Y-103351000D01*
G37*
G36*
X154251000Y-103351000D02*
G01*
X152949000Y-103351000D01*
X152949000Y-101449000D01*
X154251000Y-101449000D01*
X154251000Y-103351000D01*
X154251000Y-103351000D01*
G37*
G36*
X121051000Y-103351000D02*
G01*
X119749000Y-103351000D01*
X119749000Y-101449000D01*
X121051000Y-101449000D01*
X121051000Y-103351000D01*
X121051000Y-103351000D01*
G37*
G36*
X131051000Y-103351000D02*
G01*
X129749000Y-103351000D01*
X129749000Y-101449000D01*
X131051000Y-101449000D01*
X131051000Y-103351000D01*
X131051000Y-103351000D01*
G37*
G36*
X134251000Y-103351000D02*
G01*
X132949000Y-103351000D01*
X132949000Y-101449000D01*
X134251000Y-101449000D01*
X134251000Y-103351000D01*
X134251000Y-103351000D01*
G37*
G36*
X144251000Y-103351000D02*
G01*
X142949000Y-103351000D01*
X142949000Y-101449000D01*
X144251000Y-101449000D01*
X144251000Y-103351000D01*
X144251000Y-103351000D01*
G37*
G36*
X151051000Y-103351000D02*
G01*
X149749000Y-103351000D01*
X149749000Y-101449000D01*
X151051000Y-101449000D01*
X151051000Y-103351000D01*
X151051000Y-103351000D01*
G37*
G36*
X124251000Y-103351000D02*
G01*
X122949000Y-103351000D01*
X122949000Y-101449000D01*
X124251000Y-101449000D01*
X124251000Y-103351000D01*
X124251000Y-103351000D01*
G37*
G36*
X102919597Y-101661015D02*
G01*
X102975305Y-101672096D01*
X103007340Y-101685365D01*
X103084680Y-101717400D01*
X103183115Y-101783173D01*
X103266827Y-101866885D01*
X103332600Y-101965320D01*
X103377904Y-102074696D01*
X103401000Y-102190805D01*
X103401000Y-102309195D01*
X103377904Y-102425304D01*
X103332600Y-102534680D01*
X103266827Y-102633115D01*
X103183115Y-102716827D01*
X103084680Y-102782600D01*
X103007340Y-102814635D01*
X102975305Y-102827904D01*
X102936601Y-102835603D01*
X102859195Y-102851000D01*
X102740805Y-102851000D01*
X102663399Y-102835603D01*
X102624695Y-102827904D01*
X102592660Y-102814635D01*
X102515320Y-102782600D01*
X102416885Y-102716827D01*
X102333173Y-102633115D01*
X102267400Y-102534680D01*
X102222096Y-102425304D01*
X102199000Y-102309195D01*
X102199000Y-102190805D01*
X102222096Y-102074696D01*
X102267400Y-101965320D01*
X102333173Y-101866885D01*
X102416885Y-101783173D01*
X102515320Y-101717400D01*
X102592660Y-101685365D01*
X102624695Y-101672096D01*
X102680403Y-101661015D01*
X102740805Y-101649000D01*
X102859195Y-101649000D01*
X102919597Y-101661015D01*
X102919597Y-101661015D01*
G37*
G36*
X105448228Y-100181703D02*
G01*
X105603100Y-100245853D01*
X105742481Y-100338985D01*
X105861015Y-100457519D01*
X105954147Y-100596900D01*
X106018297Y-100751772D01*
X106051000Y-100916184D01*
X106051000Y-101083816D01*
X106018297Y-101248228D01*
X105954147Y-101403100D01*
X105861015Y-101542481D01*
X105742481Y-101661015D01*
X105603100Y-101754147D01*
X105448228Y-101818297D01*
X105283816Y-101851000D01*
X105116184Y-101851000D01*
X104951772Y-101818297D01*
X104796900Y-101754147D01*
X104657519Y-101661015D01*
X104538985Y-101542481D01*
X104445853Y-101403100D01*
X104381703Y-101248228D01*
X104349000Y-101083816D01*
X104349000Y-100916184D01*
X104381703Y-100751772D01*
X104445853Y-100596900D01*
X104538985Y-100457519D01*
X104657519Y-100338985D01*
X104796900Y-100245853D01*
X104951772Y-100181703D01*
X105116184Y-100149000D01*
X105283816Y-100149000D01*
X105448228Y-100181703D01*
X105448228Y-100181703D01*
G37*
G36*
X109484468Y-100366065D02*
G01*
X109523138Y-100377796D01*
X109558777Y-100396846D01*
X109590017Y-100422483D01*
X109615654Y-100453723D01*
X109634704Y-100489362D01*
X109646435Y-100528032D01*
X109651000Y-100574388D01*
X109651000Y-101225612D01*
X109646435Y-101271968D01*
X109634704Y-101310638D01*
X109615654Y-101346277D01*
X109590017Y-101377517D01*
X109558777Y-101403154D01*
X109523138Y-101422204D01*
X109484468Y-101433935D01*
X109438112Y-101438500D01*
X108361888Y-101438500D01*
X108315532Y-101433935D01*
X108276862Y-101422204D01*
X108241223Y-101403154D01*
X108209983Y-101377517D01*
X108184346Y-101346277D01*
X108165296Y-101310638D01*
X108153565Y-101271968D01*
X108149000Y-101225612D01*
X108149000Y-100574388D01*
X108153565Y-100528032D01*
X108165296Y-100489362D01*
X108184346Y-100453723D01*
X108209983Y-100422483D01*
X108241223Y-100396846D01*
X108276862Y-100377796D01*
X108315532Y-100366065D01*
X108361888Y-100361500D01*
X109438112Y-100361500D01*
X109484468Y-100366065D01*
X109484468Y-100366065D01*
G37*
G36*
X105448228Y-98181703D02*
G01*
X105603100Y-98245853D01*
X105742481Y-98338985D01*
X105861015Y-98457519D01*
X105954147Y-98596900D01*
X106018297Y-98751772D01*
X106051000Y-98916184D01*
X106051000Y-99083816D01*
X106018297Y-99248228D01*
X105954147Y-99403100D01*
X105861015Y-99542481D01*
X105742481Y-99661015D01*
X105603100Y-99754147D01*
X105448228Y-99818297D01*
X105283816Y-99851000D01*
X105116184Y-99851000D01*
X104951772Y-99818297D01*
X104796900Y-99754147D01*
X104657519Y-99661015D01*
X104538985Y-99542481D01*
X104445853Y-99403100D01*
X104381703Y-99248228D01*
X104349000Y-99083816D01*
X104349000Y-98916184D01*
X104381703Y-98751772D01*
X104445853Y-98596900D01*
X104538985Y-98457519D01*
X104657519Y-98338985D01*
X104796900Y-98245853D01*
X104951772Y-98181703D01*
X105116184Y-98149000D01*
X105283816Y-98149000D01*
X105448228Y-98181703D01*
X105448228Y-98181703D01*
G37*
G36*
X109484468Y-98491065D02*
G01*
X109523138Y-98502796D01*
X109558777Y-98521846D01*
X109590017Y-98547483D01*
X109615654Y-98578723D01*
X109634704Y-98614362D01*
X109646435Y-98653032D01*
X109651000Y-98699388D01*
X109651000Y-99350612D01*
X109646435Y-99396968D01*
X109634704Y-99435638D01*
X109615654Y-99471277D01*
X109590017Y-99502517D01*
X109558777Y-99528154D01*
X109523138Y-99547204D01*
X109484468Y-99558935D01*
X109438112Y-99563500D01*
X108361888Y-99563500D01*
X108315532Y-99558935D01*
X108276862Y-99547204D01*
X108241223Y-99528154D01*
X108209983Y-99502517D01*
X108184346Y-99471277D01*
X108165296Y-99435638D01*
X108153565Y-99396968D01*
X108149000Y-99350612D01*
X108149000Y-98699388D01*
X108153565Y-98653032D01*
X108165296Y-98614362D01*
X108184346Y-98578723D01*
X108209983Y-98547483D01*
X108241223Y-98521846D01*
X108276862Y-98502796D01*
X108315532Y-98491065D01*
X108361888Y-98486500D01*
X109438112Y-98486500D01*
X109484468Y-98491065D01*
X109484468Y-98491065D01*
G37*
G36*
X115734260Y-98020371D02*
G01*
X115768071Y-98034376D01*
X115811784Y-98052482D01*
X115811787Y-98052484D01*
X115881559Y-98099104D01*
X115940896Y-98158441D01*
X115940897Y-98158443D01*
X115987518Y-98228216D01*
X115994823Y-98245853D01*
X116019629Y-98305740D01*
X116036000Y-98388043D01*
X116036000Y-98471957D01*
X116019629Y-98554260D01*
X116010624Y-98576000D01*
X115987518Y-98631784D01*
X115987516Y-98631787D01*
X115940896Y-98701559D01*
X115881559Y-98760896D01*
X115811787Y-98807516D01*
X115811784Y-98807518D01*
X115768071Y-98825624D01*
X115734260Y-98839629D01*
X115651957Y-98856000D01*
X115568043Y-98856000D01*
X115485740Y-98839629D01*
X115451929Y-98825624D01*
X115408216Y-98807518D01*
X115408213Y-98807516D01*
X115338441Y-98760896D01*
X115279104Y-98701559D01*
X115232484Y-98631787D01*
X115232482Y-98631784D01*
X115209376Y-98576000D01*
X115200371Y-98554260D01*
X115184000Y-98471957D01*
X115184000Y-98388043D01*
X115200371Y-98305740D01*
X115225177Y-98245853D01*
X115232482Y-98228216D01*
X115279103Y-98158443D01*
X115279104Y-98158441D01*
X115338441Y-98099104D01*
X115408213Y-98052484D01*
X115408216Y-98052482D01*
X115451929Y-98034376D01*
X115485740Y-98020371D01*
X115568043Y-98004000D01*
X115651957Y-98004000D01*
X115734260Y-98020371D01*
X115734260Y-98020371D01*
G37*
G36*
X124251000Y-98551000D02*
G01*
X122949000Y-98551000D01*
X122949000Y-96649000D01*
X124251000Y-96649000D01*
X124251000Y-98551000D01*
X124251000Y-98551000D01*
G37*
G36*
X144251000Y-98551000D02*
G01*
X142949000Y-98551000D01*
X142949000Y-96649000D01*
X144251000Y-96649000D01*
X144251000Y-98551000D01*
X144251000Y-98551000D01*
G37*
G36*
X141051000Y-98551000D02*
G01*
X139749000Y-98551000D01*
X139749000Y-96649000D01*
X141051000Y-96649000D01*
X141051000Y-98551000D01*
X141051000Y-98551000D01*
G37*
G36*
X154251000Y-98551000D02*
G01*
X152949000Y-98551000D01*
X152949000Y-96649000D01*
X154251000Y-96649000D01*
X154251000Y-98551000D01*
X154251000Y-98551000D01*
G37*
G36*
X151051000Y-98551000D02*
G01*
X149749000Y-98551000D01*
X149749000Y-96649000D01*
X151051000Y-96649000D01*
X151051000Y-98551000D01*
X151051000Y-98551000D01*
G37*
G36*
X134251000Y-98551000D02*
G01*
X132949000Y-98551000D01*
X132949000Y-96649000D01*
X134251000Y-96649000D01*
X134251000Y-98551000D01*
X134251000Y-98551000D01*
G37*
G36*
X131051000Y-98551000D02*
G01*
X129749000Y-98551000D01*
X129749000Y-96649000D01*
X131051000Y-96649000D01*
X131051000Y-98551000D01*
X131051000Y-98551000D01*
G37*
G36*
X164251000Y-98551000D02*
G01*
X162949000Y-98551000D01*
X162949000Y-96649000D01*
X164251000Y-96649000D01*
X164251000Y-98551000D01*
X164251000Y-98551000D01*
G37*
G36*
X161051000Y-98551000D02*
G01*
X159749000Y-98551000D01*
X159749000Y-96649000D01*
X161051000Y-96649000D01*
X161051000Y-98551000D01*
X161051000Y-98551000D01*
G37*
G36*
X121051000Y-98551000D02*
G01*
X119749000Y-98551000D01*
X119749000Y-96649000D01*
X121051000Y-96649000D01*
X121051000Y-98551000D01*
X121051000Y-98551000D01*
G37*
G36*
X102936601Y-97164397D02*
G01*
X102975305Y-97172096D01*
X103007340Y-97185365D01*
X103084680Y-97217400D01*
X103183115Y-97283173D01*
X103266827Y-97366885D01*
X103332600Y-97465320D01*
X103377904Y-97574696D01*
X103401000Y-97690805D01*
X103401000Y-97809195D01*
X103377904Y-97925304D01*
X103332600Y-98034680D01*
X103266827Y-98133115D01*
X103183115Y-98216827D01*
X103084680Y-98282600D01*
X103007340Y-98314635D01*
X102975305Y-98327904D01*
X102936601Y-98335603D01*
X102859195Y-98351000D01*
X102740805Y-98351000D01*
X102663399Y-98335603D01*
X102624695Y-98327904D01*
X102592660Y-98314635D01*
X102515320Y-98282600D01*
X102416885Y-98216827D01*
X102333173Y-98133115D01*
X102267400Y-98034680D01*
X102222096Y-97925304D01*
X102199000Y-97809195D01*
X102199000Y-97690805D01*
X102222096Y-97574696D01*
X102267400Y-97465320D01*
X102333173Y-97366885D01*
X102416885Y-97283173D01*
X102515320Y-97217400D01*
X102592660Y-97185365D01*
X102624695Y-97172096D01*
X102663399Y-97164397D01*
X102740805Y-97149000D01*
X102859195Y-97149000D01*
X102936601Y-97164397D01*
X102936601Y-97164397D01*
G37*
G36*
X109133642Y-95979781D02*
G01*
X109279414Y-96040162D01*
X109279416Y-96040163D01*
X109410608Y-96127822D01*
X109522178Y-96239392D01*
X109609837Y-96370584D01*
X109609838Y-96370586D01*
X109670219Y-96516358D01*
X109701000Y-96671107D01*
X109701000Y-96828893D01*
X109670219Y-96983642D01*
X109619443Y-97106225D01*
X109609837Y-97129416D01*
X109522178Y-97260608D01*
X109410608Y-97372178D01*
X109279416Y-97459837D01*
X109279415Y-97459838D01*
X109279414Y-97459838D01*
X109133642Y-97520219D01*
X108978893Y-97551000D01*
X108821107Y-97551000D01*
X108666358Y-97520219D01*
X108520586Y-97459838D01*
X108520585Y-97459838D01*
X108520584Y-97459837D01*
X108389392Y-97372178D01*
X108277822Y-97260608D01*
X108190163Y-97129416D01*
X108180557Y-97106225D01*
X108129781Y-96983642D01*
X108099000Y-96828893D01*
X108099000Y-96671107D01*
X108129781Y-96516358D01*
X108190162Y-96370586D01*
X108190163Y-96370584D01*
X108277822Y-96239392D01*
X108389392Y-96127822D01*
X108520584Y-96040163D01*
X108520586Y-96040162D01*
X108666358Y-95979781D01*
X108821107Y-95949000D01*
X108978893Y-95949000D01*
X109133642Y-95979781D01*
X109133642Y-95979781D01*
G37*
G36*
X113633642Y-95979781D02*
G01*
X113779414Y-96040162D01*
X113779416Y-96040163D01*
X113910608Y-96127822D01*
X114022178Y-96239392D01*
X114109837Y-96370584D01*
X114109838Y-96370586D01*
X114170219Y-96516358D01*
X114201000Y-96671107D01*
X114201000Y-96828893D01*
X114170219Y-96983642D01*
X114119443Y-97106225D01*
X114109837Y-97129416D01*
X114022178Y-97260608D01*
X113910608Y-97372178D01*
X113779416Y-97459837D01*
X113779415Y-97459838D01*
X113779414Y-97459838D01*
X113633642Y-97520219D01*
X113478893Y-97551000D01*
X113321107Y-97551000D01*
X113166358Y-97520219D01*
X113020586Y-97459838D01*
X113020585Y-97459838D01*
X113020584Y-97459837D01*
X112889392Y-97372178D01*
X112777822Y-97260608D01*
X112690163Y-97129416D01*
X112680557Y-97106225D01*
X112629781Y-96983642D01*
X112599000Y-96828893D01*
X112599000Y-96671107D01*
X112629781Y-96516358D01*
X112690162Y-96370586D01*
X112690163Y-96370584D01*
X112777822Y-96239392D01*
X112889392Y-96127822D01*
X113020584Y-96040163D01*
X113020586Y-96040162D01*
X113166358Y-95979781D01*
X113321107Y-95949000D01*
X113478893Y-95949000D01*
X113633642Y-95979781D01*
X113633642Y-95979781D01*
G37*
G36*
X105477395Y-95585546D02*
G01*
X105650466Y-95657234D01*
X105650467Y-95657235D01*
X105806227Y-95761310D01*
X105938690Y-95893773D01*
X105938691Y-95893775D01*
X106042766Y-96049534D01*
X106114454Y-96222605D01*
X106151000Y-96406333D01*
X106151000Y-96593667D01*
X106114454Y-96777395D01*
X106042766Y-96950466D01*
X106042765Y-96950467D01*
X105938690Y-97106227D01*
X105806227Y-97238690D01*
X105773424Y-97260608D01*
X105650466Y-97342766D01*
X105477395Y-97414454D01*
X105293667Y-97451000D01*
X105106333Y-97451000D01*
X104922605Y-97414454D01*
X104749534Y-97342766D01*
X104626576Y-97260608D01*
X104593773Y-97238690D01*
X104461310Y-97106227D01*
X104357235Y-96950467D01*
X104357234Y-96950466D01*
X104285546Y-96777395D01*
X104249000Y-96593667D01*
X104249000Y-96406333D01*
X104285546Y-96222605D01*
X104357234Y-96049534D01*
X104461309Y-95893775D01*
X104461310Y-95893773D01*
X104593773Y-95761310D01*
X104749533Y-95657235D01*
X104749534Y-95657234D01*
X104922605Y-95585546D01*
X105106333Y-95549000D01*
X105293667Y-95549000D01*
X105477395Y-95585546D01*
X105477395Y-95585546D01*
G37*
G36*
X140784468Y-94253565D02*
G01*
X140823138Y-94265296D01*
X140858777Y-94284346D01*
X140890017Y-94309983D01*
X140915654Y-94341223D01*
X140934704Y-94376862D01*
X140946435Y-94415532D01*
X140951000Y-94461888D01*
X140951000Y-95538112D01*
X140946435Y-95584468D01*
X140934704Y-95623138D01*
X140915654Y-95658777D01*
X140890017Y-95690017D01*
X140858777Y-95715654D01*
X140823138Y-95734704D01*
X140784468Y-95746435D01*
X140738112Y-95751000D01*
X140086888Y-95751000D01*
X140040532Y-95746435D01*
X140001862Y-95734704D01*
X139966223Y-95715654D01*
X139934983Y-95690017D01*
X139909346Y-95658777D01*
X139890296Y-95623138D01*
X139878565Y-95584468D01*
X139874000Y-95538112D01*
X139874000Y-94461888D01*
X139878565Y-94415532D01*
X139890296Y-94376862D01*
X139909346Y-94341223D01*
X139934983Y-94309983D01*
X139966223Y-94284346D01*
X140001862Y-94265296D01*
X140040532Y-94253565D01*
X140086888Y-94249000D01*
X140738112Y-94249000D01*
X140784468Y-94253565D01*
X140784468Y-94253565D01*
G37*
G36*
X120684468Y-94253565D02*
G01*
X120723138Y-94265296D01*
X120758777Y-94284346D01*
X120790017Y-94309983D01*
X120815654Y-94341223D01*
X120834704Y-94376862D01*
X120846435Y-94415532D01*
X120851000Y-94461888D01*
X120851000Y-95538112D01*
X120846435Y-95584468D01*
X120834704Y-95623138D01*
X120815654Y-95658777D01*
X120790017Y-95690017D01*
X120758777Y-95715654D01*
X120723138Y-95734704D01*
X120684468Y-95746435D01*
X120638112Y-95751000D01*
X119986888Y-95751000D01*
X119940532Y-95746435D01*
X119901862Y-95734704D01*
X119866223Y-95715654D01*
X119834983Y-95690017D01*
X119809346Y-95658777D01*
X119790296Y-95623138D01*
X119778565Y-95584468D01*
X119774000Y-95538112D01*
X119774000Y-94461888D01*
X119778565Y-94415532D01*
X119790296Y-94376862D01*
X119809346Y-94341223D01*
X119834983Y-94309983D01*
X119866223Y-94284346D01*
X119901862Y-94265296D01*
X119940532Y-94253565D01*
X119986888Y-94249000D01*
X120638112Y-94249000D01*
X120684468Y-94253565D01*
X120684468Y-94253565D01*
G37*
G36*
X122559468Y-94253565D02*
G01*
X122598138Y-94265296D01*
X122633777Y-94284346D01*
X122665017Y-94309983D01*
X122690654Y-94341223D01*
X122709704Y-94376862D01*
X122721435Y-94415532D01*
X122726000Y-94461888D01*
X122726000Y-95538112D01*
X122721435Y-95584468D01*
X122709704Y-95623138D01*
X122690654Y-95658777D01*
X122665017Y-95690017D01*
X122633777Y-95715654D01*
X122598138Y-95734704D01*
X122559468Y-95746435D01*
X122513112Y-95751000D01*
X121861888Y-95751000D01*
X121815532Y-95746435D01*
X121776862Y-95734704D01*
X121741223Y-95715654D01*
X121709983Y-95690017D01*
X121684346Y-95658777D01*
X121665296Y-95623138D01*
X121653565Y-95584468D01*
X121649000Y-95538112D01*
X121649000Y-94461888D01*
X121653565Y-94415532D01*
X121665296Y-94376862D01*
X121684346Y-94341223D01*
X121709983Y-94309983D01*
X121741223Y-94284346D01*
X121776862Y-94265296D01*
X121815532Y-94253565D01*
X121861888Y-94249000D01*
X122513112Y-94249000D01*
X122559468Y-94253565D01*
X122559468Y-94253565D01*
G37*
G36*
X162659468Y-94253565D02*
G01*
X162698138Y-94265296D01*
X162733777Y-94284346D01*
X162765017Y-94309983D01*
X162790654Y-94341223D01*
X162809704Y-94376862D01*
X162821435Y-94415532D01*
X162826000Y-94461888D01*
X162826000Y-95538112D01*
X162821435Y-95584468D01*
X162809704Y-95623138D01*
X162790654Y-95658777D01*
X162765017Y-95690017D01*
X162733777Y-95715654D01*
X162698138Y-95734704D01*
X162659468Y-95746435D01*
X162613112Y-95751000D01*
X161961888Y-95751000D01*
X161915532Y-95746435D01*
X161876862Y-95734704D01*
X161841223Y-95715654D01*
X161809983Y-95690017D01*
X161784346Y-95658777D01*
X161765296Y-95623138D01*
X161753565Y-95584468D01*
X161749000Y-95538112D01*
X161749000Y-94461888D01*
X161753565Y-94415532D01*
X161765296Y-94376862D01*
X161784346Y-94341223D01*
X161809983Y-94309983D01*
X161841223Y-94284346D01*
X161876862Y-94265296D01*
X161915532Y-94253565D01*
X161961888Y-94249000D01*
X162613112Y-94249000D01*
X162659468Y-94253565D01*
X162659468Y-94253565D01*
G37*
G36*
X160784468Y-94253565D02*
G01*
X160823138Y-94265296D01*
X160858777Y-94284346D01*
X160890017Y-94309983D01*
X160915654Y-94341223D01*
X160934704Y-94376862D01*
X160946435Y-94415532D01*
X160951000Y-94461888D01*
X160951000Y-95538112D01*
X160946435Y-95584468D01*
X160934704Y-95623138D01*
X160915654Y-95658777D01*
X160890017Y-95690017D01*
X160858777Y-95715654D01*
X160823138Y-95734704D01*
X160784468Y-95746435D01*
X160738112Y-95751000D01*
X160086888Y-95751000D01*
X160040532Y-95746435D01*
X160001862Y-95734704D01*
X159966223Y-95715654D01*
X159934983Y-95690017D01*
X159909346Y-95658777D01*
X159890296Y-95623138D01*
X159878565Y-95584468D01*
X159874000Y-95538112D01*
X159874000Y-94461888D01*
X159878565Y-94415532D01*
X159890296Y-94376862D01*
X159909346Y-94341223D01*
X159934983Y-94309983D01*
X159966223Y-94284346D01*
X160001862Y-94265296D01*
X160040532Y-94253565D01*
X160086888Y-94249000D01*
X160738112Y-94249000D01*
X160784468Y-94253565D01*
X160784468Y-94253565D01*
G37*
G36*
X150809468Y-94253565D02*
G01*
X150848138Y-94265296D01*
X150883777Y-94284346D01*
X150915017Y-94309983D01*
X150940654Y-94341223D01*
X150959704Y-94376862D01*
X150971435Y-94415532D01*
X150976000Y-94461888D01*
X150976000Y-95538112D01*
X150971435Y-95584468D01*
X150959704Y-95623138D01*
X150940654Y-95658777D01*
X150915017Y-95690017D01*
X150883777Y-95715654D01*
X150848138Y-95734704D01*
X150809468Y-95746435D01*
X150763112Y-95751000D01*
X150111888Y-95751000D01*
X150065532Y-95746435D01*
X150026862Y-95734704D01*
X149991223Y-95715654D01*
X149959983Y-95690017D01*
X149934346Y-95658777D01*
X149915296Y-95623138D01*
X149903565Y-95584468D01*
X149899000Y-95538112D01*
X149899000Y-94461888D01*
X149903565Y-94415532D01*
X149915296Y-94376862D01*
X149934346Y-94341223D01*
X149959983Y-94309983D01*
X149991223Y-94284346D01*
X150026862Y-94265296D01*
X150065532Y-94253565D01*
X150111888Y-94249000D01*
X150763112Y-94249000D01*
X150809468Y-94253565D01*
X150809468Y-94253565D01*
G37*
G36*
X152684468Y-94253565D02*
G01*
X152723138Y-94265296D01*
X152758777Y-94284346D01*
X152790017Y-94309983D01*
X152815654Y-94341223D01*
X152834704Y-94376862D01*
X152846435Y-94415532D01*
X152851000Y-94461888D01*
X152851000Y-95538112D01*
X152846435Y-95584468D01*
X152834704Y-95623138D01*
X152815654Y-95658777D01*
X152790017Y-95690017D01*
X152758777Y-95715654D01*
X152723138Y-95734704D01*
X152684468Y-95746435D01*
X152638112Y-95751000D01*
X151986888Y-95751000D01*
X151940532Y-95746435D01*
X151901862Y-95734704D01*
X151866223Y-95715654D01*
X151834983Y-95690017D01*
X151809346Y-95658777D01*
X151790296Y-95623138D01*
X151778565Y-95584468D01*
X151774000Y-95538112D01*
X151774000Y-94461888D01*
X151778565Y-94415532D01*
X151790296Y-94376862D01*
X151809346Y-94341223D01*
X151834983Y-94309983D01*
X151866223Y-94284346D01*
X151901862Y-94265296D01*
X151940532Y-94253565D01*
X151986888Y-94249000D01*
X152638112Y-94249000D01*
X152684468Y-94253565D01*
X152684468Y-94253565D01*
G37*
G36*
X142659468Y-94253565D02*
G01*
X142698138Y-94265296D01*
X142733777Y-94284346D01*
X142765017Y-94309983D01*
X142790654Y-94341223D01*
X142809704Y-94376862D01*
X142821435Y-94415532D01*
X142826000Y-94461888D01*
X142826000Y-95538112D01*
X142821435Y-95584468D01*
X142809704Y-95623138D01*
X142790654Y-95658777D01*
X142765017Y-95690017D01*
X142733777Y-95715654D01*
X142698138Y-95734704D01*
X142659468Y-95746435D01*
X142613112Y-95751000D01*
X141961888Y-95751000D01*
X141915532Y-95746435D01*
X141876862Y-95734704D01*
X141841223Y-95715654D01*
X141809983Y-95690017D01*
X141784346Y-95658777D01*
X141765296Y-95623138D01*
X141753565Y-95584468D01*
X141749000Y-95538112D01*
X141749000Y-94461888D01*
X141753565Y-94415532D01*
X141765296Y-94376862D01*
X141784346Y-94341223D01*
X141809983Y-94309983D01*
X141841223Y-94284346D01*
X141876862Y-94265296D01*
X141915532Y-94253565D01*
X141961888Y-94249000D01*
X142613112Y-94249000D01*
X142659468Y-94253565D01*
X142659468Y-94253565D01*
G37*
G36*
X130759468Y-94253565D02*
G01*
X130798138Y-94265296D01*
X130833777Y-94284346D01*
X130865017Y-94309983D01*
X130890654Y-94341223D01*
X130909704Y-94376862D01*
X130921435Y-94415532D01*
X130926000Y-94461888D01*
X130926000Y-95538112D01*
X130921435Y-95584468D01*
X130909704Y-95623138D01*
X130890654Y-95658777D01*
X130865017Y-95690017D01*
X130833777Y-95715654D01*
X130798138Y-95734704D01*
X130759468Y-95746435D01*
X130713112Y-95751000D01*
X130061888Y-95751000D01*
X130015532Y-95746435D01*
X129976862Y-95734704D01*
X129941223Y-95715654D01*
X129909983Y-95690017D01*
X129884346Y-95658777D01*
X129865296Y-95623138D01*
X129853565Y-95584468D01*
X129849000Y-95538112D01*
X129849000Y-94461888D01*
X129853565Y-94415532D01*
X129865296Y-94376862D01*
X129884346Y-94341223D01*
X129909983Y-94309983D01*
X129941223Y-94284346D01*
X129976862Y-94265296D01*
X130015532Y-94253565D01*
X130061888Y-94249000D01*
X130713112Y-94249000D01*
X130759468Y-94253565D01*
X130759468Y-94253565D01*
G37*
G36*
X132634468Y-94253565D02*
G01*
X132673138Y-94265296D01*
X132708777Y-94284346D01*
X132740017Y-94309983D01*
X132765654Y-94341223D01*
X132784704Y-94376862D01*
X132796435Y-94415532D01*
X132801000Y-94461888D01*
X132801000Y-95538112D01*
X132796435Y-95584468D01*
X132784704Y-95623138D01*
X132765654Y-95658777D01*
X132740017Y-95690017D01*
X132708777Y-95715654D01*
X132673138Y-95734704D01*
X132634468Y-95746435D01*
X132588112Y-95751000D01*
X131936888Y-95751000D01*
X131890532Y-95746435D01*
X131851862Y-95734704D01*
X131816223Y-95715654D01*
X131784983Y-95690017D01*
X131759346Y-95658777D01*
X131740296Y-95623138D01*
X131728565Y-95584468D01*
X131724000Y-95538112D01*
X131724000Y-94461888D01*
X131728565Y-94415532D01*
X131740296Y-94376862D01*
X131759346Y-94341223D01*
X131784983Y-94309983D01*
X131816223Y-94284346D01*
X131851862Y-94265296D01*
X131890532Y-94253565D01*
X131936888Y-94249000D01*
X132588112Y-94249000D01*
X132634468Y-94253565D01*
X132634468Y-94253565D01*
G37*
G36*
X103796228Y-93163483D02*
G01*
X103984922Y-93220723D01*
X104158815Y-93313671D01*
X104311239Y-93438761D01*
X104436329Y-93591185D01*
X104529277Y-93765078D01*
X104586517Y-93953772D01*
X104605843Y-94150000D01*
X104586517Y-94346228D01*
X104529277Y-94534922D01*
X104436329Y-94708815D01*
X104311239Y-94861239D01*
X104158815Y-94986329D01*
X103984922Y-95079277D01*
X103796228Y-95136517D01*
X103649175Y-95151000D01*
X101950825Y-95151000D01*
X101803772Y-95136517D01*
X101615078Y-95079277D01*
X101441185Y-94986329D01*
X101288761Y-94861239D01*
X101163671Y-94708815D01*
X101070723Y-94534922D01*
X101013483Y-94346228D01*
X100994157Y-94150000D01*
X101013483Y-93953772D01*
X101070723Y-93765078D01*
X101163671Y-93591185D01*
X101288761Y-93438761D01*
X101441185Y-93313671D01*
X101615078Y-93220723D01*
X101803772Y-93163483D01*
X101950825Y-93149000D01*
X103649175Y-93149000D01*
X103796228Y-93163483D01*
X103796228Y-93163483D01*
G37*
G36*
X113259928Y-93076764D02*
G01*
X113281009Y-93083160D01*
X113300445Y-93093548D01*
X113317476Y-93107524D01*
X113331452Y-93124555D01*
X113341840Y-93143991D01*
X113348236Y-93165072D01*
X113351000Y-93193140D01*
X113351000Y-94606860D01*
X113348236Y-94634928D01*
X113341840Y-94656009D01*
X113331452Y-94675445D01*
X113317476Y-94692476D01*
X113300445Y-94706452D01*
X113281009Y-94716840D01*
X113259928Y-94723236D01*
X113231860Y-94726000D01*
X112768140Y-94726000D01*
X112740072Y-94723236D01*
X112718991Y-94716840D01*
X112699555Y-94706452D01*
X112682524Y-94692476D01*
X112668548Y-94675445D01*
X112658160Y-94656009D01*
X112651764Y-94634928D01*
X112649000Y-94606860D01*
X112649000Y-93193140D01*
X112651764Y-93165072D01*
X112658160Y-93143991D01*
X112668548Y-93124555D01*
X112682524Y-93107524D01*
X112699555Y-93093548D01*
X112718991Y-93083160D01*
X112740072Y-93076764D01*
X112768140Y-93074000D01*
X113231860Y-93074000D01*
X113259928Y-93076764D01*
X113259928Y-93076764D01*
G37*
G36*
X109259928Y-93076764D02*
G01*
X109281009Y-93083160D01*
X109300445Y-93093548D01*
X109317476Y-93107524D01*
X109331452Y-93124555D01*
X109341840Y-93143991D01*
X109348236Y-93165072D01*
X109351000Y-93193140D01*
X109351000Y-94606860D01*
X109348236Y-94634928D01*
X109341840Y-94656009D01*
X109331452Y-94675445D01*
X109317476Y-94692476D01*
X109300445Y-94706452D01*
X109281009Y-94716840D01*
X109259928Y-94723236D01*
X109231860Y-94726000D01*
X108768140Y-94726000D01*
X108740072Y-94723236D01*
X108718991Y-94716840D01*
X108699555Y-94706452D01*
X108682524Y-94692476D01*
X108668548Y-94675445D01*
X108658160Y-94656009D01*
X108651764Y-94634928D01*
X108649000Y-94606860D01*
X108649000Y-93193140D01*
X108651764Y-93165072D01*
X108658160Y-93143991D01*
X108668548Y-93124555D01*
X108682524Y-93107524D01*
X108699555Y-93093548D01*
X108718991Y-93083160D01*
X108740072Y-93076764D01*
X108768140Y-93074000D01*
X109231860Y-93074000D01*
X109259928Y-93076764D01*
X109259928Y-93076764D01*
G37*
G36*
X110259928Y-93076764D02*
G01*
X110281009Y-93083160D01*
X110300445Y-93093548D01*
X110317476Y-93107524D01*
X110331452Y-93124555D01*
X110341840Y-93143991D01*
X110348236Y-93165072D01*
X110351000Y-93193140D01*
X110351000Y-94606860D01*
X110348236Y-94634928D01*
X110341840Y-94656009D01*
X110331452Y-94675445D01*
X110317476Y-94692476D01*
X110300445Y-94706452D01*
X110281009Y-94716840D01*
X110259928Y-94723236D01*
X110231860Y-94726000D01*
X109768140Y-94726000D01*
X109740072Y-94723236D01*
X109718991Y-94716840D01*
X109699555Y-94706452D01*
X109682524Y-94692476D01*
X109668548Y-94675445D01*
X109658160Y-94656009D01*
X109651764Y-94634928D01*
X109649000Y-94606860D01*
X109649000Y-93193140D01*
X109651764Y-93165072D01*
X109658160Y-93143991D01*
X109668548Y-93124555D01*
X109682524Y-93107524D01*
X109699555Y-93093548D01*
X109718991Y-93083160D01*
X109740072Y-93076764D01*
X109768140Y-93074000D01*
X110231860Y-93074000D01*
X110259928Y-93076764D01*
X110259928Y-93076764D01*
G37*
G36*
X111259928Y-93076764D02*
G01*
X111281009Y-93083160D01*
X111300445Y-93093548D01*
X111317476Y-93107524D01*
X111331452Y-93124555D01*
X111341840Y-93143991D01*
X111348236Y-93165072D01*
X111351000Y-93193140D01*
X111351000Y-94606860D01*
X111348236Y-94634928D01*
X111341840Y-94656009D01*
X111331452Y-94675445D01*
X111317476Y-94692476D01*
X111300445Y-94706452D01*
X111281009Y-94716840D01*
X111259928Y-94723236D01*
X111231860Y-94726000D01*
X110768140Y-94726000D01*
X110740072Y-94723236D01*
X110718991Y-94716840D01*
X110699555Y-94706452D01*
X110682524Y-94692476D01*
X110668548Y-94675445D01*
X110658160Y-94656009D01*
X110651764Y-94634928D01*
X110649000Y-94606860D01*
X110649000Y-93193140D01*
X110651764Y-93165072D01*
X110658160Y-93143991D01*
X110668548Y-93124555D01*
X110682524Y-93107524D01*
X110699555Y-93093548D01*
X110718991Y-93083160D01*
X110740072Y-93076764D01*
X110768140Y-93074000D01*
X111231860Y-93074000D01*
X111259928Y-93076764D01*
X111259928Y-93076764D01*
G37*
G36*
X112259928Y-93076764D02*
G01*
X112281009Y-93083160D01*
X112300445Y-93093548D01*
X112317476Y-93107524D01*
X112331452Y-93124555D01*
X112341840Y-93143991D01*
X112348236Y-93165072D01*
X112351000Y-93193140D01*
X112351000Y-94606860D01*
X112348236Y-94634928D01*
X112341840Y-94656009D01*
X112331452Y-94675445D01*
X112317476Y-94692476D01*
X112300445Y-94706452D01*
X112281009Y-94716840D01*
X112259928Y-94723236D01*
X112231860Y-94726000D01*
X111768140Y-94726000D01*
X111740072Y-94723236D01*
X111718991Y-94716840D01*
X111699555Y-94706452D01*
X111682524Y-94692476D01*
X111668548Y-94675445D01*
X111658160Y-94656009D01*
X111651764Y-94634928D01*
X111649000Y-94606860D01*
X111649000Y-93193140D01*
X111651764Y-93165072D01*
X111658160Y-93143991D01*
X111668548Y-93124555D01*
X111682524Y-93107524D01*
X111699555Y-93093548D01*
X111718991Y-93083160D01*
X111740072Y-93076764D01*
X111768140Y-93074000D01*
X112231860Y-93074000D01*
X112259928Y-93076764D01*
X112259928Y-93076764D01*
G37*
G36*
X114259928Y-93076764D02*
G01*
X114281009Y-93083160D01*
X114300445Y-93093548D01*
X114317476Y-93107524D01*
X114331452Y-93124555D01*
X114341840Y-93143991D01*
X114348236Y-93165072D01*
X114351000Y-93193140D01*
X114351000Y-94606860D01*
X114348236Y-94634928D01*
X114341840Y-94656009D01*
X114331452Y-94675445D01*
X114317476Y-94692476D01*
X114300445Y-94706452D01*
X114281009Y-94716840D01*
X114259928Y-94723236D01*
X114231860Y-94726000D01*
X113768140Y-94726000D01*
X113740072Y-94723236D01*
X113718991Y-94716840D01*
X113699555Y-94706452D01*
X113682524Y-94692476D01*
X113668548Y-94675445D01*
X113658160Y-94656009D01*
X113651764Y-94634928D01*
X113649000Y-94606860D01*
X113649000Y-93193140D01*
X113651764Y-93165072D01*
X113658160Y-93143991D01*
X113668548Y-93124555D01*
X113682524Y-93107524D01*
X113699555Y-93093548D01*
X113718991Y-93083160D01*
X113740072Y-93076764D01*
X113768140Y-93074000D01*
X114231860Y-93074000D01*
X114259928Y-93076764D01*
X114259928Y-93076764D01*
G37*
G36*
X115791656Y-89078394D02*
G01*
X115828656Y-89089618D01*
X115862748Y-89107840D01*
X115892634Y-89132366D01*
X115917160Y-89162252D01*
X115935382Y-89196344D01*
X115946606Y-89233344D01*
X115951000Y-89277956D01*
X115951000Y-90772044D01*
X115946606Y-90816656D01*
X115935382Y-90853656D01*
X115917160Y-90887748D01*
X115892634Y-90917634D01*
X115862748Y-90942160D01*
X115828656Y-90960382D01*
X115791656Y-90971606D01*
X115747044Y-90976000D01*
X114852956Y-90976000D01*
X114808344Y-90971606D01*
X114771344Y-90960382D01*
X114737252Y-90942160D01*
X114707366Y-90917634D01*
X114682840Y-90887748D01*
X114664618Y-90853656D01*
X114653394Y-90816656D01*
X114649000Y-90772044D01*
X114649000Y-89277956D01*
X114653394Y-89233344D01*
X114664618Y-89196344D01*
X114682840Y-89162252D01*
X114707366Y-89132366D01*
X114737252Y-89107840D01*
X114771344Y-89089618D01*
X114808344Y-89078394D01*
X114852956Y-89074000D01*
X115747044Y-89074000D01*
X115791656Y-89078394D01*
X115791656Y-89078394D01*
G37*
G36*
X108191656Y-89078394D02*
G01*
X108228656Y-89089618D01*
X108262748Y-89107840D01*
X108292634Y-89132366D01*
X108317160Y-89162252D01*
X108335382Y-89196344D01*
X108346606Y-89233344D01*
X108351000Y-89277956D01*
X108351000Y-90772044D01*
X108346606Y-90816656D01*
X108335382Y-90853656D01*
X108317160Y-90887748D01*
X108292634Y-90917634D01*
X108262748Y-90942160D01*
X108228656Y-90960382D01*
X108191656Y-90971606D01*
X108147044Y-90976000D01*
X107252956Y-90976000D01*
X107208344Y-90971606D01*
X107171344Y-90960382D01*
X107137252Y-90942160D01*
X107107366Y-90917634D01*
X107082840Y-90887748D01*
X107064618Y-90853656D01*
X107053394Y-90816656D01*
X107049000Y-90772044D01*
X107049000Y-89277956D01*
X107053394Y-89233344D01*
X107064618Y-89196344D01*
X107082840Y-89162252D01*
X107107366Y-89132366D01*
X107137252Y-89107840D01*
X107171344Y-89089618D01*
X107208344Y-89078394D01*
X107252956Y-89074000D01*
X108147044Y-89074000D01*
X108191656Y-89078394D01*
X108191656Y-89078394D01*
G37*
M02*
