M48
; DRILL file {KiCad (5.1.2)-1} date 2019/06/11 21:07:41
; FORMAT={-:-/ absolute / inch / decimal}
; #@! TF.CreationDate,2019-06-11T21:07:41+09:00
; #@! TF.GenerationSoftware,Kicad,Pcbnew,(5.1.2)-1
; #@! TF.FileFunction,Plated,1,2,PTH
FMAT,2
INCH
T1C0.0157
T2C0.0197
T3C0.0394
T4C0.0472
T5C0.0591
%
G90
G05
T1
X4.2638Y-3.6378
X4.2795Y-4.3189
X4.2914Y-3.752
X4.4087Y-3.7614
X4.4488Y-4.0039
X4.5177Y-3.9331
X4.5614Y-4.0492
X4.5638Y-4.0885
X4.622Y-3.7756
X4.9004Y-4.2126
X4.9173Y-3.7402
X5.1447Y-3.7402
X5.6043Y-3.7402
X6.0591Y-3.7402
X6.2874Y-3.7411
X6.4646Y-3.9085
T2
X4.6102Y-4.2343
X4.7402Y-4.113
T3
X4.2874Y-3.8091
X4.2874Y-4.065
X4.4646Y-3.8091
X4.4646Y-4.065
X4.1417Y-3.7992
X4.1417Y-3.8976
X4.1417Y-3.9764
X4.1417Y-4.0748
T4
X5.0394Y-3.5827
X5.2362Y-3.5827
X5.4331Y-3.5827
X5.6299Y-3.5827
X5.8268Y-3.5827
X6.0236Y-3.5827
X6.2205Y-3.5827
X6.4173Y-3.5827
T5
X5.0394Y-4.2126
X5.2362Y-4.2126
X5.4331Y-4.2126
X5.6299Y-4.2126
X5.8268Y-4.2126
X6.0236Y-4.2126
X6.2205Y-4.2126
X6.4173Y-4.2126
T4
G00X4.0728Y-3.7067
M15
G01X4.0217Y-3.7067
M16
G05
G00X4.0728Y-4.1673
M15
G01X4.0217Y-4.1673
M16
G05
T0
M30
