G04 #@! TF.GenerationSoftware,KiCad,Pcbnew,(5.1.2)-1*
G04 #@! TF.CreationDate,2019-06-11T21:07:52+09:00*
G04 #@! TF.ProjectId,JuicyLight32,4a756963-794c-4696-9768-7433322e6b69,rev?*
G04 #@! TF.SameCoordinates,Original*
G04 #@! TF.FileFunction,Legend,Bot*
G04 #@! TF.FilePolarity,Positive*
%FSLAX46Y46*%
G04 Gerber Fmt 4.6, Leading zero omitted, Abs format (unit mm)*
G04 Created by KiCad (PCBNEW (5.1.2)-1) date 2019-06-11 21:07:52*
%MOMM*%
%LPD*%
G04 APERTURE LIST*
%ADD10C,0.150000*%
%ADD11C,0.120000*%
G04 APERTURE END LIST*
D10*
X110337600Y-103466900D02*
G75*
G03X110337600Y-103466900I-140276J0D01*
G01*
D11*
X159850000Y-96350000D02*
X159850000Y-103650000D01*
X165350000Y-96350000D02*
X165350000Y-103000000D01*
X165350000Y-103050000D02*
X164700000Y-103700000D01*
X118830000Y-106580000D02*
X119760000Y-106580000D01*
X121990000Y-106580000D02*
X121060000Y-106580000D01*
X121990000Y-106580000D02*
X121990000Y-108740000D01*
X118830000Y-106580000D02*
X118830000Y-108040000D01*
X124638578Y-104560000D02*
X124121422Y-104560000D01*
X124638578Y-105980000D02*
X124121422Y-105980000D01*
X115403922Y-106110000D02*
X115921078Y-106110000D01*
X115403922Y-104690000D02*
X115921078Y-104690000D01*
X115903922Y-110110000D02*
X116421078Y-110110000D01*
X115903922Y-108690000D02*
X116421078Y-108690000D01*
X111790000Y-107571078D02*
X111790000Y-107053922D01*
X113210000Y-107571078D02*
X113210000Y-107053922D01*
X111240000Y-106151078D02*
X111240000Y-105633922D01*
X109820000Y-106151078D02*
X109820000Y-105633922D01*
D10*
X112175000Y-97125000D02*
X116625000Y-97125000D01*
X110650000Y-104025000D02*
X116625000Y-104025000D01*
D11*
X108190000Y-100221078D02*
X108190000Y-99703922D01*
X109610000Y-100221078D02*
X109610000Y-99703922D01*
X106710000Y-105720000D02*
X108510000Y-105720000D01*
X108510000Y-108940000D02*
X106060000Y-108940000D01*
X153750000Y-103050000D02*
X153100000Y-103700000D01*
X153750000Y-96350000D02*
X153750000Y-103000000D01*
X148250000Y-96350000D02*
X148250000Y-103650000D01*
X142450000Y-96350000D02*
X142450000Y-103650000D01*
X147950000Y-96350000D02*
X147950000Y-103000000D01*
X147950000Y-103050000D02*
X147300000Y-103700000D01*
X159550000Y-103050000D02*
X158900000Y-103700000D01*
X159550000Y-96350000D02*
X159550000Y-103000000D01*
X154050000Y-96350000D02*
X154050000Y-103650000D01*
X119250000Y-96350000D02*
X119250000Y-103650000D01*
X124750000Y-96350000D02*
X124750000Y-103000000D01*
X124750000Y-103050000D02*
X124100000Y-103700000D01*
X130550000Y-103050000D02*
X129900000Y-103700000D01*
X130550000Y-96350000D02*
X130550000Y-103000000D01*
X125050000Y-96350000D02*
X125050000Y-103650000D01*
X142150000Y-103050000D02*
X141500000Y-103700000D01*
X142150000Y-96350000D02*
X142150000Y-103000000D01*
X136650000Y-96350000D02*
X136650000Y-103650000D01*
X130850000Y-96350000D02*
X130850000Y-103650000D01*
X136350000Y-96350000D02*
X136350000Y-103000000D01*
X136350000Y-103050000D02*
X135700000Y-103700000D01*
X120991422Y-94290000D02*
X121508578Y-94290000D01*
X120991422Y-95710000D02*
X121508578Y-95710000D01*
X104271078Y-109310000D02*
X103753922Y-109310000D01*
X104271078Y-107890000D02*
X103753922Y-107890000D01*
X161691422Y-95710000D02*
X162208578Y-95710000D01*
X161691422Y-94290000D02*
X162208578Y-94290000D01*
X155841422Y-94290000D02*
X156358578Y-94290000D01*
X155841422Y-95710000D02*
X156358578Y-95710000D01*
X150078922Y-95710000D02*
X150596078Y-95710000D01*
X150078922Y-94290000D02*
X150596078Y-94290000D01*
X144267422Y-94290000D02*
X144784578Y-94290000D01*
X144267422Y-95710000D02*
X144784578Y-95710000D01*
X138541422Y-95710000D02*
X139058578Y-95710000D01*
X138541422Y-94290000D02*
X139058578Y-94290000D01*
X132691422Y-94290000D02*
X133208578Y-94290000D01*
X132691422Y-95710000D02*
X133208578Y-95710000D01*
X126841422Y-95710000D02*
X127358578Y-95710000D01*
X126841422Y-94290000D02*
X127358578Y-94290000D01*
X107390000Y-91205000D02*
X107390000Y-93705000D01*
X107390000Y-93705000D02*
X108440000Y-93705000D01*
X108440000Y-93705000D02*
X108440000Y-94695000D01*
X115610000Y-91205000D02*
X115610000Y-93705000D01*
X115610000Y-93705000D02*
X114560000Y-93705000D01*
X108560000Y-89235000D02*
X114440000Y-89235000D01*
D10*
X163227380Y-99261904D02*
X162227380Y-99261904D01*
X162227380Y-99500000D01*
X162275000Y-99642857D01*
X162370238Y-99738095D01*
X162465476Y-99785714D01*
X162655952Y-99833333D01*
X162798809Y-99833333D01*
X162989285Y-99785714D01*
X163084523Y-99738095D01*
X163179761Y-99642857D01*
X163227380Y-99500000D01*
X163227380Y-99261904D01*
X162655952Y-100404761D02*
X162608333Y-100309523D01*
X162560714Y-100261904D01*
X162465476Y-100214285D01*
X162417857Y-100214285D01*
X162322619Y-100261904D01*
X162275000Y-100309523D01*
X162227380Y-100404761D01*
X162227380Y-100595238D01*
X162275000Y-100690476D01*
X162322619Y-100738095D01*
X162417857Y-100785714D01*
X162465476Y-100785714D01*
X162560714Y-100738095D01*
X162608333Y-100690476D01*
X162655952Y-100595238D01*
X162655952Y-100404761D01*
X162703571Y-100309523D01*
X162751190Y-100261904D01*
X162846428Y-100214285D01*
X163036904Y-100214285D01*
X163132142Y-100261904D01*
X163179761Y-100309523D01*
X163227380Y-100404761D01*
X163227380Y-100595238D01*
X163179761Y-100690476D01*
X163132142Y-100738095D01*
X163036904Y-100785714D01*
X162846428Y-100785714D01*
X162751190Y-100738095D01*
X162703571Y-100690476D01*
X162655952Y-100595238D01*
X123457619Y-107244761D02*
X123410000Y-107149523D01*
X123314761Y-107054285D01*
X123171904Y-106911428D01*
X123124285Y-106816190D01*
X123124285Y-106720952D01*
X123362380Y-106768571D02*
X123314761Y-106673333D01*
X123219523Y-106578095D01*
X123029047Y-106530476D01*
X122695714Y-106530476D01*
X122505238Y-106578095D01*
X122410000Y-106673333D01*
X122362380Y-106768571D01*
X122362380Y-106959047D01*
X122410000Y-107054285D01*
X122505238Y-107149523D01*
X122695714Y-107197142D01*
X123029047Y-107197142D01*
X123219523Y-107149523D01*
X123314761Y-107054285D01*
X123362380Y-106959047D01*
X123362380Y-106768571D01*
X123362380Y-108149523D02*
X123362380Y-107578095D01*
X123362380Y-107863809D02*
X122362380Y-107863809D01*
X122505238Y-107768571D01*
X122600476Y-107673333D01*
X122648095Y-107578095D01*
X128167857Y-105527380D02*
X128501190Y-105051190D01*
X128739285Y-105527380D02*
X128739285Y-104527380D01*
X128358333Y-104527380D01*
X128263095Y-104575000D01*
X128215476Y-104622619D01*
X128167857Y-104717857D01*
X128167857Y-104860714D01*
X128215476Y-104955952D01*
X128263095Y-105003571D01*
X128358333Y-105051190D01*
X128739285Y-105051190D01*
X127834523Y-104527380D02*
X127215476Y-104527380D01*
X127548809Y-104908333D01*
X127405952Y-104908333D01*
X127310714Y-104955952D01*
X127263095Y-105003571D01*
X127215476Y-105098809D01*
X127215476Y-105336904D01*
X127263095Y-105432142D01*
X127310714Y-105479761D01*
X127405952Y-105527380D01*
X127691666Y-105527380D01*
X127786904Y-105479761D01*
X127834523Y-105432142D01*
X126834523Y-104622619D02*
X126786904Y-104575000D01*
X126691666Y-104527380D01*
X126453571Y-104527380D01*
X126358333Y-104575000D01*
X126310714Y-104622619D01*
X126263095Y-104717857D01*
X126263095Y-104813095D01*
X126310714Y-104955952D01*
X126882142Y-105527380D01*
X126263095Y-105527380D01*
X115432857Y-107447142D02*
X115480476Y-107494761D01*
X115623333Y-107542380D01*
X115718571Y-107542380D01*
X115861428Y-107494761D01*
X115956666Y-107399523D01*
X116004285Y-107304285D01*
X116051904Y-107113809D01*
X116051904Y-106970952D01*
X116004285Y-106780476D01*
X115956666Y-106685238D01*
X115861428Y-106590000D01*
X115718571Y-106542380D01*
X115623333Y-106542380D01*
X115480476Y-106590000D01*
X115432857Y-106637619D01*
X115099523Y-106542380D02*
X114480476Y-106542380D01*
X114813809Y-106923333D01*
X114670952Y-106923333D01*
X114575714Y-106970952D01*
X114528095Y-107018571D01*
X114480476Y-107113809D01*
X114480476Y-107351904D01*
X114528095Y-107447142D01*
X114575714Y-107494761D01*
X114670952Y-107542380D01*
X114956666Y-107542380D01*
X115051904Y-107494761D01*
X115099523Y-107447142D01*
X113623333Y-106875714D02*
X113623333Y-107542380D01*
X113861428Y-106494761D02*
X114099523Y-107209047D01*
X113480476Y-107209047D01*
X113592857Y-110082142D02*
X113640476Y-110129761D01*
X113783333Y-110177380D01*
X113878571Y-110177380D01*
X114021428Y-110129761D01*
X114116666Y-110034523D01*
X114164285Y-109939285D01*
X114211904Y-109748809D01*
X114211904Y-109605952D01*
X114164285Y-109415476D01*
X114116666Y-109320238D01*
X114021428Y-109225000D01*
X113878571Y-109177380D01*
X113783333Y-109177380D01*
X113640476Y-109225000D01*
X113592857Y-109272619D01*
X113259523Y-109177380D02*
X112640476Y-109177380D01*
X112973809Y-109558333D01*
X112830952Y-109558333D01*
X112735714Y-109605952D01*
X112688095Y-109653571D01*
X112640476Y-109748809D01*
X112640476Y-109986904D01*
X112688095Y-110082142D01*
X112735714Y-110129761D01*
X112830952Y-110177380D01*
X113116666Y-110177380D01*
X113211904Y-110129761D01*
X113259523Y-110082142D01*
X112307142Y-109177380D02*
X111688095Y-109177380D01*
X112021428Y-109558333D01*
X111878571Y-109558333D01*
X111783333Y-109605952D01*
X111735714Y-109653571D01*
X111688095Y-109748809D01*
X111688095Y-109986904D01*
X111735714Y-110082142D01*
X111783333Y-110129761D01*
X111878571Y-110177380D01*
X112164285Y-110177380D01*
X112259523Y-110129761D01*
X112307142Y-110082142D01*
X111037142Y-108557142D02*
X111084761Y-108509523D01*
X111132380Y-108366666D01*
X111132380Y-108271428D01*
X111084761Y-108128571D01*
X110989523Y-108033333D01*
X110894285Y-107985714D01*
X110703809Y-107938095D01*
X110560952Y-107938095D01*
X110370476Y-107985714D01*
X110275238Y-108033333D01*
X110180000Y-108128571D01*
X110132380Y-108271428D01*
X110132380Y-108366666D01*
X110180000Y-108509523D01*
X110227619Y-108557142D01*
X110132380Y-108890476D02*
X110132380Y-109509523D01*
X110513333Y-109176190D01*
X110513333Y-109319047D01*
X110560952Y-109414285D01*
X110608571Y-109461904D01*
X110703809Y-109509523D01*
X110941904Y-109509523D01*
X111037142Y-109461904D01*
X111084761Y-109414285D01*
X111132380Y-109319047D01*
X111132380Y-109033333D01*
X111084761Y-108938095D01*
X111037142Y-108890476D01*
X110227619Y-109890476D02*
X110180000Y-109938095D01*
X110132380Y-110033333D01*
X110132380Y-110271428D01*
X110180000Y-110366666D01*
X110227619Y-110414285D01*
X110322857Y-110461904D01*
X110418095Y-110461904D01*
X110560952Y-110414285D01*
X111132380Y-109842857D01*
X111132380Y-110461904D01*
D11*
X108914285Y-105235714D02*
X108952380Y-105273809D01*
X109066666Y-105311904D01*
X109142857Y-105311904D01*
X109257142Y-105273809D01*
X109333333Y-105197619D01*
X109371428Y-105121428D01*
X109409523Y-104969047D01*
X109409523Y-104854761D01*
X109371428Y-104702380D01*
X109333333Y-104626190D01*
X109257142Y-104550000D01*
X109142857Y-104511904D01*
X109066666Y-104511904D01*
X108952380Y-104550000D01*
X108914285Y-104588095D01*
X108647619Y-104511904D02*
X108152380Y-104511904D01*
X108419047Y-104816666D01*
X108304761Y-104816666D01*
X108228571Y-104854761D01*
X108190476Y-104892857D01*
X108152380Y-104969047D01*
X108152380Y-105159523D01*
X108190476Y-105235714D01*
X108228571Y-105273809D01*
X108304761Y-105311904D01*
X108533333Y-105311904D01*
X108609523Y-105273809D01*
X108647619Y-105235714D01*
X107390476Y-105311904D02*
X107847619Y-105311904D01*
X107619047Y-105311904D02*
X107619047Y-104511904D01*
X107695238Y-104626190D01*
X107771428Y-104702380D01*
X107847619Y-104740476D01*
D10*
X116131904Y-95772380D02*
X116131904Y-96581904D01*
X116084285Y-96677142D01*
X116036666Y-96724761D01*
X115941428Y-96772380D01*
X115750952Y-96772380D01*
X115655714Y-96724761D01*
X115608095Y-96677142D01*
X115560476Y-96581904D01*
X115560476Y-95772380D01*
X114560476Y-96772380D02*
X115131904Y-96772380D01*
X114846190Y-96772380D02*
X114846190Y-95772380D01*
X114941428Y-95915238D01*
X115036666Y-96010476D01*
X115131904Y-96058095D01*
X107457142Y-99307142D02*
X107504761Y-99259523D01*
X107552380Y-99116666D01*
X107552380Y-99021428D01*
X107504761Y-98878571D01*
X107409523Y-98783333D01*
X107314285Y-98735714D01*
X107123809Y-98688095D01*
X106980952Y-98688095D01*
X106790476Y-98735714D01*
X106695238Y-98783333D01*
X106600000Y-98878571D01*
X106552380Y-99021428D01*
X106552380Y-99116666D01*
X106600000Y-99259523D01*
X106647619Y-99307142D01*
X106552380Y-99640476D02*
X106552380Y-100259523D01*
X106933333Y-99926190D01*
X106933333Y-100069047D01*
X106980952Y-100164285D01*
X107028571Y-100211904D01*
X107123809Y-100259523D01*
X107361904Y-100259523D01*
X107457142Y-100211904D01*
X107504761Y-100164285D01*
X107552380Y-100069047D01*
X107552380Y-99783333D01*
X107504761Y-99688095D01*
X107457142Y-99640476D01*
X106552380Y-101164285D02*
X106552380Y-100688095D01*
X107028571Y-100640476D01*
X106980952Y-100688095D01*
X106933333Y-100783333D01*
X106933333Y-101021428D01*
X106980952Y-101116666D01*
X107028571Y-101164285D01*
X107123809Y-101211904D01*
X107361904Y-101211904D01*
X107457142Y-101164285D01*
X107504761Y-101116666D01*
X107552380Y-101021428D01*
X107552380Y-100783333D01*
X107504761Y-100688095D01*
X107457142Y-100640476D01*
X107891904Y-109392380D02*
X107891904Y-110201904D01*
X107844285Y-110297142D01*
X107796666Y-110344761D01*
X107701428Y-110392380D01*
X107510952Y-110392380D01*
X107415714Y-110344761D01*
X107368095Y-110297142D01*
X107320476Y-110201904D01*
X107320476Y-109392380D01*
X106891904Y-109487619D02*
X106844285Y-109440000D01*
X106749047Y-109392380D01*
X106510952Y-109392380D01*
X106415714Y-109440000D01*
X106368095Y-109487619D01*
X106320476Y-109582857D01*
X106320476Y-109678095D01*
X106368095Y-109820952D01*
X106939523Y-110392380D01*
X106320476Y-110392380D01*
X151322380Y-99261904D02*
X150322380Y-99261904D01*
X150322380Y-99500000D01*
X150370000Y-99642857D01*
X150465238Y-99738095D01*
X150560476Y-99785714D01*
X150750952Y-99833333D01*
X150893809Y-99833333D01*
X151084285Y-99785714D01*
X151179523Y-99738095D01*
X151274761Y-99642857D01*
X151322380Y-99500000D01*
X151322380Y-99261904D01*
X150322380Y-100690476D02*
X150322380Y-100500000D01*
X150370000Y-100404761D01*
X150417619Y-100357142D01*
X150560476Y-100261904D01*
X150750952Y-100214285D01*
X151131904Y-100214285D01*
X151227142Y-100261904D01*
X151274761Y-100309523D01*
X151322380Y-100404761D01*
X151322380Y-100595238D01*
X151274761Y-100690476D01*
X151227142Y-100738095D01*
X151131904Y-100785714D01*
X150893809Y-100785714D01*
X150798571Y-100738095D01*
X150750952Y-100690476D01*
X150703333Y-100595238D01*
X150703333Y-100404761D01*
X150750952Y-100309523D01*
X150798571Y-100261904D01*
X150893809Y-100214285D01*
X145740380Y-99261904D02*
X144740380Y-99261904D01*
X144740380Y-99500000D01*
X144788000Y-99642857D01*
X144883238Y-99738095D01*
X144978476Y-99785714D01*
X145168952Y-99833333D01*
X145311809Y-99833333D01*
X145502285Y-99785714D01*
X145597523Y-99738095D01*
X145692761Y-99642857D01*
X145740380Y-99500000D01*
X145740380Y-99261904D01*
X144740380Y-100738095D02*
X144740380Y-100261904D01*
X145216571Y-100214285D01*
X145168952Y-100261904D01*
X145121333Y-100357142D01*
X145121333Y-100595238D01*
X145168952Y-100690476D01*
X145216571Y-100738095D01*
X145311809Y-100785714D01*
X145549904Y-100785714D01*
X145645142Y-100738095D01*
X145692761Y-100690476D01*
X145740380Y-100595238D01*
X145740380Y-100357142D01*
X145692761Y-100261904D01*
X145645142Y-100214285D01*
X157080380Y-99261904D02*
X156080380Y-99261904D01*
X156080380Y-99500000D01*
X156128000Y-99642857D01*
X156223238Y-99738095D01*
X156318476Y-99785714D01*
X156508952Y-99833333D01*
X156651809Y-99833333D01*
X156842285Y-99785714D01*
X156937523Y-99738095D01*
X157032761Y-99642857D01*
X157080380Y-99500000D01*
X157080380Y-99261904D01*
X156080380Y-100166666D02*
X156080380Y-100833333D01*
X157080380Y-100404761D01*
X122626380Y-99337904D02*
X121626380Y-99337904D01*
X121626380Y-99576000D01*
X121674000Y-99718857D01*
X121769238Y-99814095D01*
X121864476Y-99861714D01*
X122054952Y-99909333D01*
X122197809Y-99909333D01*
X122388285Y-99861714D01*
X122483523Y-99814095D01*
X122578761Y-99718857D01*
X122626380Y-99576000D01*
X122626380Y-99337904D01*
X122626380Y-100861714D02*
X122626380Y-100290285D01*
X122626380Y-100576000D02*
X121626380Y-100576000D01*
X121769238Y-100480761D01*
X121864476Y-100385523D01*
X121912095Y-100290285D01*
X128214380Y-99261904D02*
X127214380Y-99261904D01*
X127214380Y-99500000D01*
X127262000Y-99642857D01*
X127357238Y-99738095D01*
X127452476Y-99785714D01*
X127642952Y-99833333D01*
X127785809Y-99833333D01*
X127976285Y-99785714D01*
X128071523Y-99738095D01*
X128166761Y-99642857D01*
X128214380Y-99500000D01*
X128214380Y-99261904D01*
X127309619Y-100214285D02*
X127262000Y-100261904D01*
X127214380Y-100357142D01*
X127214380Y-100595238D01*
X127262000Y-100690476D01*
X127309619Y-100738095D01*
X127404857Y-100785714D01*
X127500095Y-100785714D01*
X127642952Y-100738095D01*
X128214380Y-100166666D01*
X128214380Y-100785714D01*
X139644380Y-99337904D02*
X138644380Y-99337904D01*
X138644380Y-99576000D01*
X138692000Y-99718857D01*
X138787238Y-99814095D01*
X138882476Y-99861714D01*
X139072952Y-99909333D01*
X139215809Y-99909333D01*
X139406285Y-99861714D01*
X139501523Y-99814095D01*
X139596761Y-99718857D01*
X139644380Y-99576000D01*
X139644380Y-99337904D01*
X138977714Y-100766476D02*
X139644380Y-100766476D01*
X138596761Y-100528380D02*
X139311047Y-100290285D01*
X139311047Y-100909333D01*
X133802380Y-99261904D02*
X132802380Y-99261904D01*
X132802380Y-99500000D01*
X132850000Y-99642857D01*
X132945238Y-99738095D01*
X133040476Y-99785714D01*
X133230952Y-99833333D01*
X133373809Y-99833333D01*
X133564285Y-99785714D01*
X133659523Y-99738095D01*
X133754761Y-99642857D01*
X133802380Y-99500000D01*
X133802380Y-99261904D01*
X132802380Y-100166666D02*
X132802380Y-100785714D01*
X133183333Y-100452380D01*
X133183333Y-100595238D01*
X133230952Y-100690476D01*
X133278571Y-100738095D01*
X133373809Y-100785714D01*
X133611904Y-100785714D01*
X133707142Y-100738095D01*
X133754761Y-100690476D01*
X133802380Y-100595238D01*
X133802380Y-100309523D01*
X133754761Y-100214285D01*
X133707142Y-100166666D01*
X121591666Y-93657142D02*
X121639285Y-93704761D01*
X121782142Y-93752380D01*
X121877380Y-93752380D01*
X122020238Y-93704761D01*
X122115476Y-93609523D01*
X122163095Y-93514285D01*
X122210714Y-93323809D01*
X122210714Y-93180952D01*
X122163095Y-92990476D01*
X122115476Y-92895238D01*
X122020238Y-92800000D01*
X121877380Y-92752380D01*
X121782142Y-92752380D01*
X121639285Y-92800000D01*
X121591666Y-92847619D01*
X120639285Y-93752380D02*
X121210714Y-93752380D01*
X120925000Y-93752380D02*
X120925000Y-92752380D01*
X121020238Y-92895238D01*
X121115476Y-92990476D01*
X121210714Y-93038095D01*
X104642857Y-110607142D02*
X104690476Y-110654761D01*
X104833333Y-110702380D01*
X104928571Y-110702380D01*
X105071428Y-110654761D01*
X105166666Y-110559523D01*
X105214285Y-110464285D01*
X105261904Y-110273809D01*
X105261904Y-110130952D01*
X105214285Y-109940476D01*
X105166666Y-109845238D01*
X105071428Y-109750000D01*
X104928571Y-109702380D01*
X104833333Y-109702380D01*
X104690476Y-109750000D01*
X104642857Y-109797619D01*
X104309523Y-109702380D02*
X103690476Y-109702380D01*
X104023809Y-110083333D01*
X103880952Y-110083333D01*
X103785714Y-110130952D01*
X103738095Y-110178571D01*
X103690476Y-110273809D01*
X103690476Y-110511904D01*
X103738095Y-110607142D01*
X103785714Y-110654761D01*
X103880952Y-110702380D01*
X104166666Y-110702380D01*
X104261904Y-110654761D01*
X104309523Y-110607142D01*
X103071428Y-109702380D02*
X102976190Y-109702380D01*
X102880952Y-109750000D01*
X102833333Y-109797619D01*
X102785714Y-109892857D01*
X102738095Y-110083333D01*
X102738095Y-110321428D01*
X102785714Y-110511904D01*
X102833333Y-110607142D01*
X102880952Y-110654761D01*
X102976190Y-110702380D01*
X103071428Y-110702380D01*
X103166666Y-110654761D01*
X103214285Y-110607142D01*
X103261904Y-110511904D01*
X103309523Y-110321428D01*
X103309523Y-110083333D01*
X103261904Y-109892857D01*
X103214285Y-109797619D01*
X103166666Y-109750000D01*
X103071428Y-109702380D01*
X162116666Y-93532142D02*
X162164285Y-93579761D01*
X162307142Y-93627380D01*
X162402380Y-93627380D01*
X162545238Y-93579761D01*
X162640476Y-93484523D01*
X162688095Y-93389285D01*
X162735714Y-93198809D01*
X162735714Y-93055952D01*
X162688095Y-92865476D01*
X162640476Y-92770238D01*
X162545238Y-92675000D01*
X162402380Y-92627380D01*
X162307142Y-92627380D01*
X162164285Y-92675000D01*
X162116666Y-92722619D01*
X161545238Y-93055952D02*
X161640476Y-93008333D01*
X161688095Y-92960714D01*
X161735714Y-92865476D01*
X161735714Y-92817857D01*
X161688095Y-92722619D01*
X161640476Y-92675000D01*
X161545238Y-92627380D01*
X161354761Y-92627380D01*
X161259523Y-92675000D01*
X161211904Y-92722619D01*
X161164285Y-92817857D01*
X161164285Y-92865476D01*
X161211904Y-92960714D01*
X161259523Y-93008333D01*
X161354761Y-93055952D01*
X161545238Y-93055952D01*
X161640476Y-93103571D01*
X161688095Y-93151190D01*
X161735714Y-93246428D01*
X161735714Y-93436904D01*
X161688095Y-93532142D01*
X161640476Y-93579761D01*
X161545238Y-93627380D01*
X161354761Y-93627380D01*
X161259523Y-93579761D01*
X161211904Y-93532142D01*
X161164285Y-93436904D01*
X161164285Y-93246428D01*
X161211904Y-93151190D01*
X161259523Y-93103571D01*
X161354761Y-93055952D01*
X156279166Y-93632142D02*
X156326785Y-93679761D01*
X156469642Y-93727380D01*
X156564880Y-93727380D01*
X156707738Y-93679761D01*
X156802976Y-93584523D01*
X156850595Y-93489285D01*
X156898214Y-93298809D01*
X156898214Y-93155952D01*
X156850595Y-92965476D01*
X156802976Y-92870238D01*
X156707738Y-92775000D01*
X156564880Y-92727380D01*
X156469642Y-92727380D01*
X156326785Y-92775000D01*
X156279166Y-92822619D01*
X155945833Y-92727380D02*
X155279166Y-92727380D01*
X155707738Y-93727380D01*
X150504166Y-93532142D02*
X150551785Y-93579761D01*
X150694642Y-93627380D01*
X150789880Y-93627380D01*
X150932738Y-93579761D01*
X151027976Y-93484523D01*
X151075595Y-93389285D01*
X151123214Y-93198809D01*
X151123214Y-93055952D01*
X151075595Y-92865476D01*
X151027976Y-92770238D01*
X150932738Y-92675000D01*
X150789880Y-92627380D01*
X150694642Y-92627380D01*
X150551785Y-92675000D01*
X150504166Y-92722619D01*
X149647023Y-92627380D02*
X149837500Y-92627380D01*
X149932738Y-92675000D01*
X149980357Y-92722619D01*
X150075595Y-92865476D01*
X150123214Y-93055952D01*
X150123214Y-93436904D01*
X150075595Y-93532142D01*
X150027976Y-93579761D01*
X149932738Y-93627380D01*
X149742261Y-93627380D01*
X149647023Y-93579761D01*
X149599404Y-93532142D01*
X149551785Y-93436904D01*
X149551785Y-93198809D01*
X149599404Y-93103571D01*
X149647023Y-93055952D01*
X149742261Y-93008333D01*
X149932738Y-93008333D01*
X150027976Y-93055952D01*
X150075595Y-93103571D01*
X150123214Y-93198809D01*
X144817666Y-93557142D02*
X144865285Y-93604761D01*
X145008142Y-93652380D01*
X145103380Y-93652380D01*
X145246238Y-93604761D01*
X145341476Y-93509523D01*
X145389095Y-93414285D01*
X145436714Y-93223809D01*
X145436714Y-93080952D01*
X145389095Y-92890476D01*
X145341476Y-92795238D01*
X145246238Y-92700000D01*
X145103380Y-92652380D01*
X145008142Y-92652380D01*
X144865285Y-92700000D01*
X144817666Y-92747619D01*
X143912904Y-92652380D02*
X144389095Y-92652380D01*
X144436714Y-93128571D01*
X144389095Y-93080952D01*
X144293857Y-93033333D01*
X144055761Y-93033333D01*
X143960523Y-93080952D01*
X143912904Y-93128571D01*
X143865285Y-93223809D01*
X143865285Y-93461904D01*
X143912904Y-93557142D01*
X143960523Y-93604761D01*
X144055761Y-93652380D01*
X144293857Y-93652380D01*
X144389095Y-93604761D01*
X144436714Y-93557142D01*
X139216666Y-93682142D02*
X139264285Y-93729761D01*
X139407142Y-93777380D01*
X139502380Y-93777380D01*
X139645238Y-93729761D01*
X139740476Y-93634523D01*
X139788095Y-93539285D01*
X139835714Y-93348809D01*
X139835714Y-93205952D01*
X139788095Y-93015476D01*
X139740476Y-92920238D01*
X139645238Y-92825000D01*
X139502380Y-92777380D01*
X139407142Y-92777380D01*
X139264285Y-92825000D01*
X139216666Y-92872619D01*
X138359523Y-93110714D02*
X138359523Y-93777380D01*
X138597619Y-92729761D02*
X138835714Y-93444047D01*
X138216666Y-93444047D01*
X133316666Y-93582142D02*
X133364285Y-93629761D01*
X133507142Y-93677380D01*
X133602380Y-93677380D01*
X133745238Y-93629761D01*
X133840476Y-93534523D01*
X133888095Y-93439285D01*
X133935714Y-93248809D01*
X133935714Y-93105952D01*
X133888095Y-92915476D01*
X133840476Y-92820238D01*
X133745238Y-92725000D01*
X133602380Y-92677380D01*
X133507142Y-92677380D01*
X133364285Y-92725000D01*
X133316666Y-92772619D01*
X132983333Y-92677380D02*
X132364285Y-92677380D01*
X132697619Y-93058333D01*
X132554761Y-93058333D01*
X132459523Y-93105952D01*
X132411904Y-93153571D01*
X132364285Y-93248809D01*
X132364285Y-93486904D01*
X132411904Y-93582142D01*
X132459523Y-93629761D01*
X132554761Y-93677380D01*
X132840476Y-93677380D01*
X132935714Y-93629761D01*
X132983333Y-93582142D01*
X127391666Y-93657142D02*
X127439285Y-93704761D01*
X127582142Y-93752380D01*
X127677380Y-93752380D01*
X127820238Y-93704761D01*
X127915476Y-93609523D01*
X127963095Y-93514285D01*
X128010714Y-93323809D01*
X128010714Y-93180952D01*
X127963095Y-92990476D01*
X127915476Y-92895238D01*
X127820238Y-92800000D01*
X127677380Y-92752380D01*
X127582142Y-92752380D01*
X127439285Y-92800000D01*
X127391666Y-92847619D01*
X127010714Y-92847619D02*
X126963095Y-92800000D01*
X126867857Y-92752380D01*
X126629761Y-92752380D01*
X126534523Y-92800000D01*
X126486904Y-92847619D01*
X126439285Y-92942857D01*
X126439285Y-93038095D01*
X126486904Y-93180952D01*
X127058333Y-93752380D01*
X126439285Y-93752380D01*
X117833333Y-91172380D02*
X117833333Y-91886666D01*
X117880952Y-92029523D01*
X117976190Y-92124761D01*
X118119047Y-92172380D01*
X118214285Y-92172380D01*
X116833333Y-92172380D02*
X117404761Y-92172380D01*
X117119047Y-92172380D02*
X117119047Y-91172380D01*
X117214285Y-91315238D01*
X117309523Y-91410476D01*
X117404761Y-91458095D01*
M02*
