G04 #@! TF.GenerationSoftware,KiCad,Pcbnew,(5.1.0)-1*
G04 #@! TF.CreationDate,2019-03-21T22:27:58+09:00*
G04 #@! TF.ProjectId,JuicyLight32,4a756963-794c-4696-9768-7433322e6b69,rev?*
G04 #@! TF.SameCoordinates,Original*
G04 #@! TF.FileFunction,Copper,L1,Top*
G04 #@! TF.FilePolarity,Positive*
%FSLAX46Y46*%
G04 Gerber Fmt 4.6, Leading zero omitted, Abs format (unit mm)*
G04 Created by KiCad (PCBNEW (5.1.0)-1) date 2019-03-21 22:27:58*
%MOMM*%
%LPD*%
G04 APERTURE LIST*
%ADD10C,0.750000*%
%ADD11C,1.000000*%
%ADD12C,0.100000*%
%ADD13C,0.975000*%
%ADD14R,1.200000X1.800000*%
%ADD15C,1.500000*%
%ADD16C,1.600000*%
%ADD17C,1.800000*%
%ADD18O,3.500000X1.900000*%
%ADD19C,0.800000*%
%ADD20C,0.250000*%
%ADD21C,0.330000*%
%ADD22C,0.500000*%
%ADD23C,0.200000*%
G04 APERTURE END LIST*
D10*
X115610000Y-98430000D03*
D11*
X120400000Y-104470000D03*
X117100000Y-107550000D03*
D12*
G36*
X111992642Y-93101174D02*
G01*
X112016303Y-93104684D01*
X112039507Y-93110496D01*
X112062029Y-93118554D01*
X112083653Y-93128782D01*
X112104170Y-93141079D01*
X112123383Y-93155329D01*
X112141107Y-93171393D01*
X112157171Y-93189117D01*
X112171421Y-93208330D01*
X112183718Y-93228847D01*
X112193946Y-93250471D01*
X112202004Y-93272993D01*
X112207816Y-93296197D01*
X112211326Y-93319858D01*
X112212500Y-93343750D01*
X112212500Y-94256250D01*
X112211326Y-94280142D01*
X112207816Y-94303803D01*
X112202004Y-94327007D01*
X112193946Y-94349529D01*
X112183718Y-94371153D01*
X112171421Y-94391670D01*
X112157171Y-94410883D01*
X112141107Y-94428607D01*
X112123383Y-94444671D01*
X112104170Y-94458921D01*
X112083653Y-94471218D01*
X112062029Y-94481446D01*
X112039507Y-94489504D01*
X112016303Y-94495316D01*
X111992642Y-94498826D01*
X111968750Y-94500000D01*
X111481250Y-94500000D01*
X111457358Y-94498826D01*
X111433697Y-94495316D01*
X111410493Y-94489504D01*
X111387971Y-94481446D01*
X111366347Y-94471218D01*
X111345830Y-94458921D01*
X111326617Y-94444671D01*
X111308893Y-94428607D01*
X111292829Y-94410883D01*
X111278579Y-94391670D01*
X111266282Y-94371153D01*
X111256054Y-94349529D01*
X111247996Y-94327007D01*
X111242184Y-94303803D01*
X111238674Y-94280142D01*
X111237500Y-94256250D01*
X111237500Y-93343750D01*
X111238674Y-93319858D01*
X111242184Y-93296197D01*
X111247996Y-93272993D01*
X111256054Y-93250471D01*
X111266282Y-93228847D01*
X111278579Y-93208330D01*
X111292829Y-93189117D01*
X111308893Y-93171393D01*
X111326617Y-93155329D01*
X111345830Y-93141079D01*
X111366347Y-93128782D01*
X111387971Y-93118554D01*
X111410493Y-93110496D01*
X111433697Y-93104684D01*
X111457358Y-93101174D01*
X111481250Y-93100000D01*
X111968750Y-93100000D01*
X111992642Y-93101174D01*
X111992642Y-93101174D01*
G37*
D13*
X111725000Y-93800000D03*
D12*
G36*
X113867642Y-93101174D02*
G01*
X113891303Y-93104684D01*
X113914507Y-93110496D01*
X113937029Y-93118554D01*
X113958653Y-93128782D01*
X113979170Y-93141079D01*
X113998383Y-93155329D01*
X114016107Y-93171393D01*
X114032171Y-93189117D01*
X114046421Y-93208330D01*
X114058718Y-93228847D01*
X114068946Y-93250471D01*
X114077004Y-93272993D01*
X114082816Y-93296197D01*
X114086326Y-93319858D01*
X114087500Y-93343750D01*
X114087500Y-94256250D01*
X114086326Y-94280142D01*
X114082816Y-94303803D01*
X114077004Y-94327007D01*
X114068946Y-94349529D01*
X114058718Y-94371153D01*
X114046421Y-94391670D01*
X114032171Y-94410883D01*
X114016107Y-94428607D01*
X113998383Y-94444671D01*
X113979170Y-94458921D01*
X113958653Y-94471218D01*
X113937029Y-94481446D01*
X113914507Y-94489504D01*
X113891303Y-94495316D01*
X113867642Y-94498826D01*
X113843750Y-94500000D01*
X113356250Y-94500000D01*
X113332358Y-94498826D01*
X113308697Y-94495316D01*
X113285493Y-94489504D01*
X113262971Y-94481446D01*
X113241347Y-94471218D01*
X113220830Y-94458921D01*
X113201617Y-94444671D01*
X113183893Y-94428607D01*
X113167829Y-94410883D01*
X113153579Y-94391670D01*
X113141282Y-94371153D01*
X113131054Y-94349529D01*
X113122996Y-94327007D01*
X113117184Y-94303803D01*
X113113674Y-94280142D01*
X113112500Y-94256250D01*
X113112500Y-93343750D01*
X113113674Y-93319858D01*
X113117184Y-93296197D01*
X113122996Y-93272993D01*
X113131054Y-93250471D01*
X113141282Y-93228847D01*
X113153579Y-93208330D01*
X113167829Y-93189117D01*
X113183893Y-93171393D01*
X113201617Y-93155329D01*
X113220830Y-93141079D01*
X113241347Y-93128782D01*
X113262971Y-93118554D01*
X113285493Y-93110496D01*
X113308697Y-93104684D01*
X113332358Y-93101174D01*
X113356250Y-93100000D01*
X113843750Y-93100000D01*
X113867642Y-93101174D01*
X113867642Y-93101174D01*
G37*
D13*
X113600000Y-93800000D03*
D14*
X161600000Y-97600000D03*
X158400000Y-97600000D03*
X161600000Y-102400000D03*
X158400000Y-102400000D03*
X151600000Y-97600000D03*
X148400000Y-97600000D03*
X151600000Y-102400000D03*
X148400000Y-102400000D03*
X128400000Y-102300000D03*
X131600000Y-102300000D03*
X128400000Y-97500000D03*
X131600000Y-97500000D03*
X121600000Y-97600000D03*
X118400000Y-97600000D03*
X121600000Y-102400000D03*
X118400000Y-102400000D03*
X138400000Y-102300000D03*
X141600000Y-102300000D03*
X138400000Y-97500000D03*
X141600000Y-97500000D03*
D12*
G36*
X113692642Y-106876174D02*
G01*
X113716303Y-106879684D01*
X113739507Y-106885496D01*
X113762029Y-106893554D01*
X113783653Y-106903782D01*
X113804170Y-106916079D01*
X113823383Y-106930329D01*
X113841107Y-106946393D01*
X113857171Y-106964117D01*
X113871421Y-106983330D01*
X113883718Y-107003847D01*
X113893946Y-107025471D01*
X113902004Y-107047993D01*
X113907816Y-107071197D01*
X113911326Y-107094858D01*
X113912500Y-107118750D01*
X113912500Y-108031250D01*
X113911326Y-108055142D01*
X113907816Y-108078803D01*
X113902004Y-108102007D01*
X113893946Y-108124529D01*
X113883718Y-108146153D01*
X113871421Y-108166670D01*
X113857171Y-108185883D01*
X113841107Y-108203607D01*
X113823383Y-108219671D01*
X113804170Y-108233921D01*
X113783653Y-108246218D01*
X113762029Y-108256446D01*
X113739507Y-108264504D01*
X113716303Y-108270316D01*
X113692642Y-108273826D01*
X113668750Y-108275000D01*
X113181250Y-108275000D01*
X113157358Y-108273826D01*
X113133697Y-108270316D01*
X113110493Y-108264504D01*
X113087971Y-108256446D01*
X113066347Y-108246218D01*
X113045830Y-108233921D01*
X113026617Y-108219671D01*
X113008893Y-108203607D01*
X112992829Y-108185883D01*
X112978579Y-108166670D01*
X112966282Y-108146153D01*
X112956054Y-108124529D01*
X112947996Y-108102007D01*
X112942184Y-108078803D01*
X112938674Y-108055142D01*
X112937500Y-108031250D01*
X112937500Y-107118750D01*
X112938674Y-107094858D01*
X112942184Y-107071197D01*
X112947996Y-107047993D01*
X112956054Y-107025471D01*
X112966282Y-107003847D01*
X112978579Y-106983330D01*
X112992829Y-106964117D01*
X113008893Y-106946393D01*
X113026617Y-106930329D01*
X113045830Y-106916079D01*
X113066347Y-106903782D01*
X113087971Y-106893554D01*
X113110493Y-106885496D01*
X113133697Y-106879684D01*
X113157358Y-106876174D01*
X113181250Y-106875000D01*
X113668750Y-106875000D01*
X113692642Y-106876174D01*
X113692642Y-106876174D01*
G37*
D13*
X113425000Y-107575000D03*
D12*
G36*
X115567642Y-106876174D02*
G01*
X115591303Y-106879684D01*
X115614507Y-106885496D01*
X115637029Y-106893554D01*
X115658653Y-106903782D01*
X115679170Y-106916079D01*
X115698383Y-106930329D01*
X115716107Y-106946393D01*
X115732171Y-106964117D01*
X115746421Y-106983330D01*
X115758718Y-107003847D01*
X115768946Y-107025471D01*
X115777004Y-107047993D01*
X115782816Y-107071197D01*
X115786326Y-107094858D01*
X115787500Y-107118750D01*
X115787500Y-108031250D01*
X115786326Y-108055142D01*
X115782816Y-108078803D01*
X115777004Y-108102007D01*
X115768946Y-108124529D01*
X115758718Y-108146153D01*
X115746421Y-108166670D01*
X115732171Y-108185883D01*
X115716107Y-108203607D01*
X115698383Y-108219671D01*
X115679170Y-108233921D01*
X115658653Y-108246218D01*
X115637029Y-108256446D01*
X115614507Y-108264504D01*
X115591303Y-108270316D01*
X115567642Y-108273826D01*
X115543750Y-108275000D01*
X115056250Y-108275000D01*
X115032358Y-108273826D01*
X115008697Y-108270316D01*
X114985493Y-108264504D01*
X114962971Y-108256446D01*
X114941347Y-108246218D01*
X114920830Y-108233921D01*
X114901617Y-108219671D01*
X114883893Y-108203607D01*
X114867829Y-108185883D01*
X114853579Y-108166670D01*
X114841282Y-108146153D01*
X114831054Y-108124529D01*
X114822996Y-108102007D01*
X114817184Y-108078803D01*
X114813674Y-108055142D01*
X114812500Y-108031250D01*
X114812500Y-107118750D01*
X114813674Y-107094858D01*
X114817184Y-107071197D01*
X114822996Y-107047993D01*
X114831054Y-107025471D01*
X114841282Y-107003847D01*
X114853579Y-106983330D01*
X114867829Y-106964117D01*
X114883893Y-106946393D01*
X114901617Y-106930329D01*
X114920830Y-106916079D01*
X114941347Y-106903782D01*
X114962971Y-106893554D01*
X114985493Y-106885496D01*
X115008697Y-106879684D01*
X115032358Y-106876174D01*
X115056250Y-106875000D01*
X115543750Y-106875000D01*
X115567642Y-106876174D01*
X115567642Y-106876174D01*
G37*
D13*
X115300000Y-107575000D03*
D12*
G36*
X121855142Y-94301174D02*
G01*
X121878803Y-94304684D01*
X121902007Y-94310496D01*
X121924529Y-94318554D01*
X121946153Y-94328782D01*
X121966670Y-94341079D01*
X121985883Y-94355329D01*
X122003607Y-94371393D01*
X122019671Y-94389117D01*
X122033921Y-94408330D01*
X122046218Y-94428847D01*
X122056446Y-94450471D01*
X122064504Y-94472993D01*
X122070316Y-94496197D01*
X122073826Y-94519858D01*
X122075000Y-94543750D01*
X122075000Y-95456250D01*
X122073826Y-95480142D01*
X122070316Y-95503803D01*
X122064504Y-95527007D01*
X122056446Y-95549529D01*
X122046218Y-95571153D01*
X122033921Y-95591670D01*
X122019671Y-95610883D01*
X122003607Y-95628607D01*
X121985883Y-95644671D01*
X121966670Y-95658921D01*
X121946153Y-95671218D01*
X121924529Y-95681446D01*
X121902007Y-95689504D01*
X121878803Y-95695316D01*
X121855142Y-95698826D01*
X121831250Y-95700000D01*
X121343750Y-95700000D01*
X121319858Y-95698826D01*
X121296197Y-95695316D01*
X121272993Y-95689504D01*
X121250471Y-95681446D01*
X121228847Y-95671218D01*
X121208330Y-95658921D01*
X121189117Y-95644671D01*
X121171393Y-95628607D01*
X121155329Y-95610883D01*
X121141079Y-95591670D01*
X121128782Y-95571153D01*
X121118554Y-95549529D01*
X121110496Y-95527007D01*
X121104684Y-95503803D01*
X121101174Y-95480142D01*
X121100000Y-95456250D01*
X121100000Y-94543750D01*
X121101174Y-94519858D01*
X121104684Y-94496197D01*
X121110496Y-94472993D01*
X121118554Y-94450471D01*
X121128782Y-94428847D01*
X121141079Y-94408330D01*
X121155329Y-94389117D01*
X121171393Y-94371393D01*
X121189117Y-94355329D01*
X121208330Y-94341079D01*
X121228847Y-94328782D01*
X121250471Y-94318554D01*
X121272993Y-94310496D01*
X121296197Y-94304684D01*
X121319858Y-94301174D01*
X121343750Y-94300000D01*
X121831250Y-94300000D01*
X121855142Y-94301174D01*
X121855142Y-94301174D01*
G37*
D13*
X121587500Y-95000000D03*
D12*
G36*
X119980142Y-94301174D02*
G01*
X120003803Y-94304684D01*
X120027007Y-94310496D01*
X120049529Y-94318554D01*
X120071153Y-94328782D01*
X120091670Y-94341079D01*
X120110883Y-94355329D01*
X120128607Y-94371393D01*
X120144671Y-94389117D01*
X120158921Y-94408330D01*
X120171218Y-94428847D01*
X120181446Y-94450471D01*
X120189504Y-94472993D01*
X120195316Y-94496197D01*
X120198826Y-94519858D01*
X120200000Y-94543750D01*
X120200000Y-95456250D01*
X120198826Y-95480142D01*
X120195316Y-95503803D01*
X120189504Y-95527007D01*
X120181446Y-95549529D01*
X120171218Y-95571153D01*
X120158921Y-95591670D01*
X120144671Y-95610883D01*
X120128607Y-95628607D01*
X120110883Y-95644671D01*
X120091670Y-95658921D01*
X120071153Y-95671218D01*
X120049529Y-95681446D01*
X120027007Y-95689504D01*
X120003803Y-95695316D01*
X119980142Y-95698826D01*
X119956250Y-95700000D01*
X119468750Y-95700000D01*
X119444858Y-95698826D01*
X119421197Y-95695316D01*
X119397993Y-95689504D01*
X119375471Y-95681446D01*
X119353847Y-95671218D01*
X119333330Y-95658921D01*
X119314117Y-95644671D01*
X119296393Y-95628607D01*
X119280329Y-95610883D01*
X119266079Y-95591670D01*
X119253782Y-95571153D01*
X119243554Y-95549529D01*
X119235496Y-95527007D01*
X119229684Y-95503803D01*
X119226174Y-95480142D01*
X119225000Y-95456250D01*
X119225000Y-94543750D01*
X119226174Y-94519858D01*
X119229684Y-94496197D01*
X119235496Y-94472993D01*
X119243554Y-94450471D01*
X119253782Y-94428847D01*
X119266079Y-94408330D01*
X119280329Y-94389117D01*
X119296393Y-94371393D01*
X119314117Y-94355329D01*
X119333330Y-94341079D01*
X119353847Y-94328782D01*
X119375471Y-94318554D01*
X119397993Y-94310496D01*
X119421197Y-94304684D01*
X119444858Y-94301174D01*
X119468750Y-94300000D01*
X119956250Y-94300000D01*
X119980142Y-94301174D01*
X119980142Y-94301174D01*
G37*
D13*
X119712500Y-95000000D03*
D12*
G36*
X129980142Y-94301174D02*
G01*
X130003803Y-94304684D01*
X130027007Y-94310496D01*
X130049529Y-94318554D01*
X130071153Y-94328782D01*
X130091670Y-94341079D01*
X130110883Y-94355329D01*
X130128607Y-94371393D01*
X130144671Y-94389117D01*
X130158921Y-94408330D01*
X130171218Y-94428847D01*
X130181446Y-94450471D01*
X130189504Y-94472993D01*
X130195316Y-94496197D01*
X130198826Y-94519858D01*
X130200000Y-94543750D01*
X130200000Y-95456250D01*
X130198826Y-95480142D01*
X130195316Y-95503803D01*
X130189504Y-95527007D01*
X130181446Y-95549529D01*
X130171218Y-95571153D01*
X130158921Y-95591670D01*
X130144671Y-95610883D01*
X130128607Y-95628607D01*
X130110883Y-95644671D01*
X130091670Y-95658921D01*
X130071153Y-95671218D01*
X130049529Y-95681446D01*
X130027007Y-95689504D01*
X130003803Y-95695316D01*
X129980142Y-95698826D01*
X129956250Y-95700000D01*
X129468750Y-95700000D01*
X129444858Y-95698826D01*
X129421197Y-95695316D01*
X129397993Y-95689504D01*
X129375471Y-95681446D01*
X129353847Y-95671218D01*
X129333330Y-95658921D01*
X129314117Y-95644671D01*
X129296393Y-95628607D01*
X129280329Y-95610883D01*
X129266079Y-95591670D01*
X129253782Y-95571153D01*
X129243554Y-95549529D01*
X129235496Y-95527007D01*
X129229684Y-95503803D01*
X129226174Y-95480142D01*
X129225000Y-95456250D01*
X129225000Y-94543750D01*
X129226174Y-94519858D01*
X129229684Y-94496197D01*
X129235496Y-94472993D01*
X129243554Y-94450471D01*
X129253782Y-94428847D01*
X129266079Y-94408330D01*
X129280329Y-94389117D01*
X129296393Y-94371393D01*
X129314117Y-94355329D01*
X129333330Y-94341079D01*
X129353847Y-94328782D01*
X129375471Y-94318554D01*
X129397993Y-94310496D01*
X129421197Y-94304684D01*
X129444858Y-94301174D01*
X129468750Y-94300000D01*
X129956250Y-94300000D01*
X129980142Y-94301174D01*
X129980142Y-94301174D01*
G37*
D13*
X129712500Y-95000000D03*
D12*
G36*
X131855142Y-94301174D02*
G01*
X131878803Y-94304684D01*
X131902007Y-94310496D01*
X131924529Y-94318554D01*
X131946153Y-94328782D01*
X131966670Y-94341079D01*
X131985883Y-94355329D01*
X132003607Y-94371393D01*
X132019671Y-94389117D01*
X132033921Y-94408330D01*
X132046218Y-94428847D01*
X132056446Y-94450471D01*
X132064504Y-94472993D01*
X132070316Y-94496197D01*
X132073826Y-94519858D01*
X132075000Y-94543750D01*
X132075000Y-95456250D01*
X132073826Y-95480142D01*
X132070316Y-95503803D01*
X132064504Y-95527007D01*
X132056446Y-95549529D01*
X132046218Y-95571153D01*
X132033921Y-95591670D01*
X132019671Y-95610883D01*
X132003607Y-95628607D01*
X131985883Y-95644671D01*
X131966670Y-95658921D01*
X131946153Y-95671218D01*
X131924529Y-95681446D01*
X131902007Y-95689504D01*
X131878803Y-95695316D01*
X131855142Y-95698826D01*
X131831250Y-95700000D01*
X131343750Y-95700000D01*
X131319858Y-95698826D01*
X131296197Y-95695316D01*
X131272993Y-95689504D01*
X131250471Y-95681446D01*
X131228847Y-95671218D01*
X131208330Y-95658921D01*
X131189117Y-95644671D01*
X131171393Y-95628607D01*
X131155329Y-95610883D01*
X131141079Y-95591670D01*
X131128782Y-95571153D01*
X131118554Y-95549529D01*
X131110496Y-95527007D01*
X131104684Y-95503803D01*
X131101174Y-95480142D01*
X131100000Y-95456250D01*
X131100000Y-94543750D01*
X131101174Y-94519858D01*
X131104684Y-94496197D01*
X131110496Y-94472993D01*
X131118554Y-94450471D01*
X131128782Y-94428847D01*
X131141079Y-94408330D01*
X131155329Y-94389117D01*
X131171393Y-94371393D01*
X131189117Y-94355329D01*
X131208330Y-94341079D01*
X131228847Y-94328782D01*
X131250471Y-94318554D01*
X131272993Y-94310496D01*
X131296197Y-94304684D01*
X131319858Y-94301174D01*
X131343750Y-94300000D01*
X131831250Y-94300000D01*
X131855142Y-94301174D01*
X131855142Y-94301174D01*
G37*
D13*
X131587500Y-95000000D03*
D12*
G36*
X141855142Y-94301174D02*
G01*
X141878803Y-94304684D01*
X141902007Y-94310496D01*
X141924529Y-94318554D01*
X141946153Y-94328782D01*
X141966670Y-94341079D01*
X141985883Y-94355329D01*
X142003607Y-94371393D01*
X142019671Y-94389117D01*
X142033921Y-94408330D01*
X142046218Y-94428847D01*
X142056446Y-94450471D01*
X142064504Y-94472993D01*
X142070316Y-94496197D01*
X142073826Y-94519858D01*
X142075000Y-94543750D01*
X142075000Y-95456250D01*
X142073826Y-95480142D01*
X142070316Y-95503803D01*
X142064504Y-95527007D01*
X142056446Y-95549529D01*
X142046218Y-95571153D01*
X142033921Y-95591670D01*
X142019671Y-95610883D01*
X142003607Y-95628607D01*
X141985883Y-95644671D01*
X141966670Y-95658921D01*
X141946153Y-95671218D01*
X141924529Y-95681446D01*
X141902007Y-95689504D01*
X141878803Y-95695316D01*
X141855142Y-95698826D01*
X141831250Y-95700000D01*
X141343750Y-95700000D01*
X141319858Y-95698826D01*
X141296197Y-95695316D01*
X141272993Y-95689504D01*
X141250471Y-95681446D01*
X141228847Y-95671218D01*
X141208330Y-95658921D01*
X141189117Y-95644671D01*
X141171393Y-95628607D01*
X141155329Y-95610883D01*
X141141079Y-95591670D01*
X141128782Y-95571153D01*
X141118554Y-95549529D01*
X141110496Y-95527007D01*
X141104684Y-95503803D01*
X141101174Y-95480142D01*
X141100000Y-95456250D01*
X141100000Y-94543750D01*
X141101174Y-94519858D01*
X141104684Y-94496197D01*
X141110496Y-94472993D01*
X141118554Y-94450471D01*
X141128782Y-94428847D01*
X141141079Y-94408330D01*
X141155329Y-94389117D01*
X141171393Y-94371393D01*
X141189117Y-94355329D01*
X141208330Y-94341079D01*
X141228847Y-94328782D01*
X141250471Y-94318554D01*
X141272993Y-94310496D01*
X141296197Y-94304684D01*
X141319858Y-94301174D01*
X141343750Y-94300000D01*
X141831250Y-94300000D01*
X141855142Y-94301174D01*
X141855142Y-94301174D01*
G37*
D13*
X141587500Y-95000000D03*
D12*
G36*
X139980142Y-94301174D02*
G01*
X140003803Y-94304684D01*
X140027007Y-94310496D01*
X140049529Y-94318554D01*
X140071153Y-94328782D01*
X140091670Y-94341079D01*
X140110883Y-94355329D01*
X140128607Y-94371393D01*
X140144671Y-94389117D01*
X140158921Y-94408330D01*
X140171218Y-94428847D01*
X140181446Y-94450471D01*
X140189504Y-94472993D01*
X140195316Y-94496197D01*
X140198826Y-94519858D01*
X140200000Y-94543750D01*
X140200000Y-95456250D01*
X140198826Y-95480142D01*
X140195316Y-95503803D01*
X140189504Y-95527007D01*
X140181446Y-95549529D01*
X140171218Y-95571153D01*
X140158921Y-95591670D01*
X140144671Y-95610883D01*
X140128607Y-95628607D01*
X140110883Y-95644671D01*
X140091670Y-95658921D01*
X140071153Y-95671218D01*
X140049529Y-95681446D01*
X140027007Y-95689504D01*
X140003803Y-95695316D01*
X139980142Y-95698826D01*
X139956250Y-95700000D01*
X139468750Y-95700000D01*
X139444858Y-95698826D01*
X139421197Y-95695316D01*
X139397993Y-95689504D01*
X139375471Y-95681446D01*
X139353847Y-95671218D01*
X139333330Y-95658921D01*
X139314117Y-95644671D01*
X139296393Y-95628607D01*
X139280329Y-95610883D01*
X139266079Y-95591670D01*
X139253782Y-95571153D01*
X139243554Y-95549529D01*
X139235496Y-95527007D01*
X139229684Y-95503803D01*
X139226174Y-95480142D01*
X139225000Y-95456250D01*
X139225000Y-94543750D01*
X139226174Y-94519858D01*
X139229684Y-94496197D01*
X139235496Y-94472993D01*
X139243554Y-94450471D01*
X139253782Y-94428847D01*
X139266079Y-94408330D01*
X139280329Y-94389117D01*
X139296393Y-94371393D01*
X139314117Y-94355329D01*
X139333330Y-94341079D01*
X139353847Y-94328782D01*
X139375471Y-94318554D01*
X139397993Y-94310496D01*
X139421197Y-94304684D01*
X139444858Y-94301174D01*
X139468750Y-94300000D01*
X139956250Y-94300000D01*
X139980142Y-94301174D01*
X139980142Y-94301174D01*
G37*
D13*
X139712500Y-95000000D03*
D12*
G36*
X149980142Y-94301174D02*
G01*
X150003803Y-94304684D01*
X150027007Y-94310496D01*
X150049529Y-94318554D01*
X150071153Y-94328782D01*
X150091670Y-94341079D01*
X150110883Y-94355329D01*
X150128607Y-94371393D01*
X150144671Y-94389117D01*
X150158921Y-94408330D01*
X150171218Y-94428847D01*
X150181446Y-94450471D01*
X150189504Y-94472993D01*
X150195316Y-94496197D01*
X150198826Y-94519858D01*
X150200000Y-94543750D01*
X150200000Y-95456250D01*
X150198826Y-95480142D01*
X150195316Y-95503803D01*
X150189504Y-95527007D01*
X150181446Y-95549529D01*
X150171218Y-95571153D01*
X150158921Y-95591670D01*
X150144671Y-95610883D01*
X150128607Y-95628607D01*
X150110883Y-95644671D01*
X150091670Y-95658921D01*
X150071153Y-95671218D01*
X150049529Y-95681446D01*
X150027007Y-95689504D01*
X150003803Y-95695316D01*
X149980142Y-95698826D01*
X149956250Y-95700000D01*
X149468750Y-95700000D01*
X149444858Y-95698826D01*
X149421197Y-95695316D01*
X149397993Y-95689504D01*
X149375471Y-95681446D01*
X149353847Y-95671218D01*
X149333330Y-95658921D01*
X149314117Y-95644671D01*
X149296393Y-95628607D01*
X149280329Y-95610883D01*
X149266079Y-95591670D01*
X149253782Y-95571153D01*
X149243554Y-95549529D01*
X149235496Y-95527007D01*
X149229684Y-95503803D01*
X149226174Y-95480142D01*
X149225000Y-95456250D01*
X149225000Y-94543750D01*
X149226174Y-94519858D01*
X149229684Y-94496197D01*
X149235496Y-94472993D01*
X149243554Y-94450471D01*
X149253782Y-94428847D01*
X149266079Y-94408330D01*
X149280329Y-94389117D01*
X149296393Y-94371393D01*
X149314117Y-94355329D01*
X149333330Y-94341079D01*
X149353847Y-94328782D01*
X149375471Y-94318554D01*
X149397993Y-94310496D01*
X149421197Y-94304684D01*
X149444858Y-94301174D01*
X149468750Y-94300000D01*
X149956250Y-94300000D01*
X149980142Y-94301174D01*
X149980142Y-94301174D01*
G37*
D13*
X149712500Y-95000000D03*
D12*
G36*
X151855142Y-94301174D02*
G01*
X151878803Y-94304684D01*
X151902007Y-94310496D01*
X151924529Y-94318554D01*
X151946153Y-94328782D01*
X151966670Y-94341079D01*
X151985883Y-94355329D01*
X152003607Y-94371393D01*
X152019671Y-94389117D01*
X152033921Y-94408330D01*
X152046218Y-94428847D01*
X152056446Y-94450471D01*
X152064504Y-94472993D01*
X152070316Y-94496197D01*
X152073826Y-94519858D01*
X152075000Y-94543750D01*
X152075000Y-95456250D01*
X152073826Y-95480142D01*
X152070316Y-95503803D01*
X152064504Y-95527007D01*
X152056446Y-95549529D01*
X152046218Y-95571153D01*
X152033921Y-95591670D01*
X152019671Y-95610883D01*
X152003607Y-95628607D01*
X151985883Y-95644671D01*
X151966670Y-95658921D01*
X151946153Y-95671218D01*
X151924529Y-95681446D01*
X151902007Y-95689504D01*
X151878803Y-95695316D01*
X151855142Y-95698826D01*
X151831250Y-95700000D01*
X151343750Y-95700000D01*
X151319858Y-95698826D01*
X151296197Y-95695316D01*
X151272993Y-95689504D01*
X151250471Y-95681446D01*
X151228847Y-95671218D01*
X151208330Y-95658921D01*
X151189117Y-95644671D01*
X151171393Y-95628607D01*
X151155329Y-95610883D01*
X151141079Y-95591670D01*
X151128782Y-95571153D01*
X151118554Y-95549529D01*
X151110496Y-95527007D01*
X151104684Y-95503803D01*
X151101174Y-95480142D01*
X151100000Y-95456250D01*
X151100000Y-94543750D01*
X151101174Y-94519858D01*
X151104684Y-94496197D01*
X151110496Y-94472993D01*
X151118554Y-94450471D01*
X151128782Y-94428847D01*
X151141079Y-94408330D01*
X151155329Y-94389117D01*
X151171393Y-94371393D01*
X151189117Y-94355329D01*
X151208330Y-94341079D01*
X151228847Y-94328782D01*
X151250471Y-94318554D01*
X151272993Y-94310496D01*
X151296197Y-94304684D01*
X151319858Y-94301174D01*
X151343750Y-94300000D01*
X151831250Y-94300000D01*
X151855142Y-94301174D01*
X151855142Y-94301174D01*
G37*
D13*
X151587500Y-95000000D03*
D12*
G36*
X161855142Y-94301174D02*
G01*
X161878803Y-94304684D01*
X161902007Y-94310496D01*
X161924529Y-94318554D01*
X161946153Y-94328782D01*
X161966670Y-94341079D01*
X161985883Y-94355329D01*
X162003607Y-94371393D01*
X162019671Y-94389117D01*
X162033921Y-94408330D01*
X162046218Y-94428847D01*
X162056446Y-94450471D01*
X162064504Y-94472993D01*
X162070316Y-94496197D01*
X162073826Y-94519858D01*
X162075000Y-94543750D01*
X162075000Y-95456250D01*
X162073826Y-95480142D01*
X162070316Y-95503803D01*
X162064504Y-95527007D01*
X162056446Y-95549529D01*
X162046218Y-95571153D01*
X162033921Y-95591670D01*
X162019671Y-95610883D01*
X162003607Y-95628607D01*
X161985883Y-95644671D01*
X161966670Y-95658921D01*
X161946153Y-95671218D01*
X161924529Y-95681446D01*
X161902007Y-95689504D01*
X161878803Y-95695316D01*
X161855142Y-95698826D01*
X161831250Y-95700000D01*
X161343750Y-95700000D01*
X161319858Y-95698826D01*
X161296197Y-95695316D01*
X161272993Y-95689504D01*
X161250471Y-95681446D01*
X161228847Y-95671218D01*
X161208330Y-95658921D01*
X161189117Y-95644671D01*
X161171393Y-95628607D01*
X161155329Y-95610883D01*
X161141079Y-95591670D01*
X161128782Y-95571153D01*
X161118554Y-95549529D01*
X161110496Y-95527007D01*
X161104684Y-95503803D01*
X161101174Y-95480142D01*
X161100000Y-95456250D01*
X161100000Y-94543750D01*
X161101174Y-94519858D01*
X161104684Y-94496197D01*
X161110496Y-94472993D01*
X161118554Y-94450471D01*
X161128782Y-94428847D01*
X161141079Y-94408330D01*
X161155329Y-94389117D01*
X161171393Y-94371393D01*
X161189117Y-94355329D01*
X161208330Y-94341079D01*
X161228847Y-94328782D01*
X161250471Y-94318554D01*
X161272993Y-94310496D01*
X161296197Y-94304684D01*
X161319858Y-94301174D01*
X161343750Y-94300000D01*
X161831250Y-94300000D01*
X161855142Y-94301174D01*
X161855142Y-94301174D01*
G37*
D13*
X161587500Y-95000000D03*
D12*
G36*
X159980142Y-94301174D02*
G01*
X160003803Y-94304684D01*
X160027007Y-94310496D01*
X160049529Y-94318554D01*
X160071153Y-94328782D01*
X160091670Y-94341079D01*
X160110883Y-94355329D01*
X160128607Y-94371393D01*
X160144671Y-94389117D01*
X160158921Y-94408330D01*
X160171218Y-94428847D01*
X160181446Y-94450471D01*
X160189504Y-94472993D01*
X160195316Y-94496197D01*
X160198826Y-94519858D01*
X160200000Y-94543750D01*
X160200000Y-95456250D01*
X160198826Y-95480142D01*
X160195316Y-95503803D01*
X160189504Y-95527007D01*
X160181446Y-95549529D01*
X160171218Y-95571153D01*
X160158921Y-95591670D01*
X160144671Y-95610883D01*
X160128607Y-95628607D01*
X160110883Y-95644671D01*
X160091670Y-95658921D01*
X160071153Y-95671218D01*
X160049529Y-95681446D01*
X160027007Y-95689504D01*
X160003803Y-95695316D01*
X159980142Y-95698826D01*
X159956250Y-95700000D01*
X159468750Y-95700000D01*
X159444858Y-95698826D01*
X159421197Y-95695316D01*
X159397993Y-95689504D01*
X159375471Y-95681446D01*
X159353847Y-95671218D01*
X159333330Y-95658921D01*
X159314117Y-95644671D01*
X159296393Y-95628607D01*
X159280329Y-95610883D01*
X159266079Y-95591670D01*
X159253782Y-95571153D01*
X159243554Y-95549529D01*
X159235496Y-95527007D01*
X159229684Y-95503803D01*
X159226174Y-95480142D01*
X159225000Y-95456250D01*
X159225000Y-94543750D01*
X159226174Y-94519858D01*
X159229684Y-94496197D01*
X159235496Y-94472993D01*
X159243554Y-94450471D01*
X159253782Y-94428847D01*
X159266079Y-94408330D01*
X159280329Y-94389117D01*
X159296393Y-94371393D01*
X159314117Y-94355329D01*
X159333330Y-94341079D01*
X159353847Y-94328782D01*
X159375471Y-94318554D01*
X159397993Y-94310496D01*
X159421197Y-94304684D01*
X159444858Y-94301174D01*
X159468750Y-94300000D01*
X159956250Y-94300000D01*
X159980142Y-94301174D01*
X159980142Y-94301174D01*
G37*
D13*
X159712500Y-95000000D03*
D15*
X108900000Y-96750000D03*
X113400000Y-96750000D03*
X108900000Y-103250000D03*
X113400000Y-103250000D03*
D16*
X105200000Y-101000000D03*
X105200000Y-99000000D03*
D17*
X105200000Y-103500000D03*
X105200000Y-96500000D03*
D18*
X102800000Y-105850000D03*
X102800000Y-94150000D03*
D12*
G36*
X112092642Y-106876174D02*
G01*
X112116303Y-106879684D01*
X112139507Y-106885496D01*
X112162029Y-106893554D01*
X112183653Y-106903782D01*
X112204170Y-106916079D01*
X112223383Y-106930329D01*
X112241107Y-106946393D01*
X112257171Y-106964117D01*
X112271421Y-106983330D01*
X112283718Y-107003847D01*
X112293946Y-107025471D01*
X112302004Y-107047993D01*
X112307816Y-107071197D01*
X112311326Y-107094858D01*
X112312500Y-107118750D01*
X112312500Y-108031250D01*
X112311326Y-108055142D01*
X112307816Y-108078803D01*
X112302004Y-108102007D01*
X112293946Y-108124529D01*
X112283718Y-108146153D01*
X112271421Y-108166670D01*
X112257171Y-108185883D01*
X112241107Y-108203607D01*
X112223383Y-108219671D01*
X112204170Y-108233921D01*
X112183653Y-108246218D01*
X112162029Y-108256446D01*
X112139507Y-108264504D01*
X112116303Y-108270316D01*
X112092642Y-108273826D01*
X112068750Y-108275000D01*
X111581250Y-108275000D01*
X111557358Y-108273826D01*
X111533697Y-108270316D01*
X111510493Y-108264504D01*
X111487971Y-108256446D01*
X111466347Y-108246218D01*
X111445830Y-108233921D01*
X111426617Y-108219671D01*
X111408893Y-108203607D01*
X111392829Y-108185883D01*
X111378579Y-108166670D01*
X111366282Y-108146153D01*
X111356054Y-108124529D01*
X111347996Y-108102007D01*
X111342184Y-108078803D01*
X111338674Y-108055142D01*
X111337500Y-108031250D01*
X111337500Y-107118750D01*
X111338674Y-107094858D01*
X111342184Y-107071197D01*
X111347996Y-107047993D01*
X111356054Y-107025471D01*
X111366282Y-107003847D01*
X111378579Y-106983330D01*
X111392829Y-106964117D01*
X111408893Y-106946393D01*
X111426617Y-106930329D01*
X111445830Y-106916079D01*
X111466347Y-106903782D01*
X111487971Y-106893554D01*
X111510493Y-106885496D01*
X111533697Y-106879684D01*
X111557358Y-106876174D01*
X111581250Y-106875000D01*
X112068750Y-106875000D01*
X112092642Y-106876174D01*
X112092642Y-106876174D01*
G37*
D13*
X111825000Y-107575000D03*
D12*
G36*
X110217642Y-106876174D02*
G01*
X110241303Y-106879684D01*
X110264507Y-106885496D01*
X110287029Y-106893554D01*
X110308653Y-106903782D01*
X110329170Y-106916079D01*
X110348383Y-106930329D01*
X110366107Y-106946393D01*
X110382171Y-106964117D01*
X110396421Y-106983330D01*
X110408718Y-107003847D01*
X110418946Y-107025471D01*
X110427004Y-107047993D01*
X110432816Y-107071197D01*
X110436326Y-107094858D01*
X110437500Y-107118750D01*
X110437500Y-108031250D01*
X110436326Y-108055142D01*
X110432816Y-108078803D01*
X110427004Y-108102007D01*
X110418946Y-108124529D01*
X110408718Y-108146153D01*
X110396421Y-108166670D01*
X110382171Y-108185883D01*
X110366107Y-108203607D01*
X110348383Y-108219671D01*
X110329170Y-108233921D01*
X110308653Y-108246218D01*
X110287029Y-108256446D01*
X110264507Y-108264504D01*
X110241303Y-108270316D01*
X110217642Y-108273826D01*
X110193750Y-108275000D01*
X109706250Y-108275000D01*
X109682358Y-108273826D01*
X109658697Y-108270316D01*
X109635493Y-108264504D01*
X109612971Y-108256446D01*
X109591347Y-108246218D01*
X109570830Y-108233921D01*
X109551617Y-108219671D01*
X109533893Y-108203607D01*
X109517829Y-108185883D01*
X109503579Y-108166670D01*
X109491282Y-108146153D01*
X109481054Y-108124529D01*
X109472996Y-108102007D01*
X109467184Y-108078803D01*
X109463674Y-108055142D01*
X109462500Y-108031250D01*
X109462500Y-107118750D01*
X109463674Y-107094858D01*
X109467184Y-107071197D01*
X109472996Y-107047993D01*
X109481054Y-107025471D01*
X109491282Y-107003847D01*
X109503579Y-106983330D01*
X109517829Y-106964117D01*
X109533893Y-106946393D01*
X109551617Y-106930329D01*
X109570830Y-106916079D01*
X109591347Y-106903782D01*
X109612971Y-106893554D01*
X109635493Y-106885496D01*
X109658697Y-106879684D01*
X109682358Y-106876174D01*
X109706250Y-106875000D01*
X110193750Y-106875000D01*
X110217642Y-106876174D01*
X110217642Y-106876174D01*
G37*
D13*
X109950000Y-107575000D03*
D12*
G36*
X108592642Y-93101174D02*
G01*
X108616303Y-93104684D01*
X108639507Y-93110496D01*
X108662029Y-93118554D01*
X108683653Y-93128782D01*
X108704170Y-93141079D01*
X108723383Y-93155329D01*
X108741107Y-93171393D01*
X108757171Y-93189117D01*
X108771421Y-93208330D01*
X108783718Y-93228847D01*
X108793946Y-93250471D01*
X108802004Y-93272993D01*
X108807816Y-93296197D01*
X108811326Y-93319858D01*
X108812500Y-93343750D01*
X108812500Y-94256250D01*
X108811326Y-94280142D01*
X108807816Y-94303803D01*
X108802004Y-94327007D01*
X108793946Y-94349529D01*
X108783718Y-94371153D01*
X108771421Y-94391670D01*
X108757171Y-94410883D01*
X108741107Y-94428607D01*
X108723383Y-94444671D01*
X108704170Y-94458921D01*
X108683653Y-94471218D01*
X108662029Y-94481446D01*
X108639507Y-94489504D01*
X108616303Y-94495316D01*
X108592642Y-94498826D01*
X108568750Y-94500000D01*
X108081250Y-94500000D01*
X108057358Y-94498826D01*
X108033697Y-94495316D01*
X108010493Y-94489504D01*
X107987971Y-94481446D01*
X107966347Y-94471218D01*
X107945830Y-94458921D01*
X107926617Y-94444671D01*
X107908893Y-94428607D01*
X107892829Y-94410883D01*
X107878579Y-94391670D01*
X107866282Y-94371153D01*
X107856054Y-94349529D01*
X107847996Y-94327007D01*
X107842184Y-94303803D01*
X107838674Y-94280142D01*
X107837500Y-94256250D01*
X107837500Y-93343750D01*
X107838674Y-93319858D01*
X107842184Y-93296197D01*
X107847996Y-93272993D01*
X107856054Y-93250471D01*
X107866282Y-93228847D01*
X107878579Y-93208330D01*
X107892829Y-93189117D01*
X107908893Y-93171393D01*
X107926617Y-93155329D01*
X107945830Y-93141079D01*
X107966347Y-93128782D01*
X107987971Y-93118554D01*
X108010493Y-93110496D01*
X108033697Y-93104684D01*
X108057358Y-93101174D01*
X108081250Y-93100000D01*
X108568750Y-93100000D01*
X108592642Y-93101174D01*
X108592642Y-93101174D01*
G37*
D13*
X108325000Y-93800000D03*
D12*
G36*
X110467642Y-93101174D02*
G01*
X110491303Y-93104684D01*
X110514507Y-93110496D01*
X110537029Y-93118554D01*
X110558653Y-93128782D01*
X110579170Y-93141079D01*
X110598383Y-93155329D01*
X110616107Y-93171393D01*
X110632171Y-93189117D01*
X110646421Y-93208330D01*
X110658718Y-93228847D01*
X110668946Y-93250471D01*
X110677004Y-93272993D01*
X110682816Y-93296197D01*
X110686326Y-93319858D01*
X110687500Y-93343750D01*
X110687500Y-94256250D01*
X110686326Y-94280142D01*
X110682816Y-94303803D01*
X110677004Y-94327007D01*
X110668946Y-94349529D01*
X110658718Y-94371153D01*
X110646421Y-94391670D01*
X110632171Y-94410883D01*
X110616107Y-94428607D01*
X110598383Y-94444671D01*
X110579170Y-94458921D01*
X110558653Y-94471218D01*
X110537029Y-94481446D01*
X110514507Y-94489504D01*
X110491303Y-94495316D01*
X110467642Y-94498826D01*
X110443750Y-94500000D01*
X109956250Y-94500000D01*
X109932358Y-94498826D01*
X109908697Y-94495316D01*
X109885493Y-94489504D01*
X109862971Y-94481446D01*
X109841347Y-94471218D01*
X109820830Y-94458921D01*
X109801617Y-94444671D01*
X109783893Y-94428607D01*
X109767829Y-94410883D01*
X109753579Y-94391670D01*
X109741282Y-94371153D01*
X109731054Y-94349529D01*
X109722996Y-94327007D01*
X109717184Y-94303803D01*
X109713674Y-94280142D01*
X109712500Y-94256250D01*
X109712500Y-93343750D01*
X109713674Y-93319858D01*
X109717184Y-93296197D01*
X109722996Y-93272993D01*
X109731054Y-93250471D01*
X109741282Y-93228847D01*
X109753579Y-93208330D01*
X109767829Y-93189117D01*
X109783893Y-93171393D01*
X109801617Y-93155329D01*
X109820830Y-93141079D01*
X109841347Y-93128782D01*
X109862971Y-93118554D01*
X109885493Y-93110496D01*
X109908697Y-93104684D01*
X109932358Y-93101174D01*
X109956250Y-93100000D01*
X110443750Y-93100000D01*
X110467642Y-93101174D01*
X110467642Y-93101174D01*
G37*
D13*
X110200000Y-93800000D03*
D19*
X124470000Y-107000000D03*
X130000000Y-107000000D03*
X140000000Y-107000000D03*
X150000000Y-107000000D03*
X160000000Y-107000000D03*
X120000000Y-91000000D03*
X130000000Y-91000000D03*
X140000000Y-91000000D03*
X150000000Y-91000000D03*
X160000000Y-91000000D03*
X114750000Y-99900000D03*
X108300000Y-92400000D03*
X108700000Y-109700000D03*
X109001479Y-95300000D03*
X113000000Y-101700000D03*
X111980000Y-95540000D03*
X115860000Y-102850000D03*
X117400000Y-95900000D03*
X115921422Y-103848114D03*
X162600000Y-100075000D03*
D20*
X158400000Y-102200000D02*
X158400000Y-104720000D01*
X158400000Y-104720000D02*
X157330000Y-105790000D01*
D21*
X118400000Y-102200000D02*
X118400000Y-105790000D01*
X128400000Y-102100000D02*
X128400000Y-104970000D01*
D20*
X128400000Y-104970000D02*
X127580000Y-105790000D01*
X127580000Y-105790000D02*
X118400000Y-105790000D01*
X138400000Y-105040000D02*
X137650000Y-105790000D01*
D21*
X138400000Y-102100000D02*
X138400000Y-105040000D01*
D20*
X137650000Y-105790000D02*
X127580000Y-105790000D01*
X148400000Y-104980000D02*
X147590000Y-105790000D01*
D21*
X148400000Y-102200000D02*
X148400000Y-104980000D01*
D20*
X157330000Y-105790000D02*
X147590000Y-105790000D01*
X147590000Y-105790000D02*
X137650000Y-105790000D01*
X117075000Y-107575000D02*
X117100000Y-107550000D01*
D22*
X115300000Y-107575000D02*
X117075000Y-107575000D01*
D21*
X117599999Y-107050001D02*
X118400000Y-106250000D01*
X117100000Y-107550000D02*
X117599999Y-107050001D01*
X118400000Y-105790000D02*
X118400000Y-106250000D01*
D20*
X111825000Y-107575000D02*
X113425000Y-107575000D01*
X113400000Y-107550000D02*
X113425000Y-107575000D01*
X113400000Y-103250000D02*
X113400000Y-107550000D01*
X121587500Y-97787500D02*
X121600000Y-97800000D01*
D21*
X121587500Y-95000000D02*
X121587500Y-97787500D01*
D20*
X131587500Y-97687500D02*
X131600000Y-97700000D01*
D21*
X131587500Y-95000000D02*
X131587500Y-97687500D01*
X141600000Y-95812500D02*
X141600000Y-97700000D01*
D20*
X141587500Y-95800000D02*
X141600000Y-95812500D01*
X141587500Y-95000000D02*
X141587500Y-95800000D01*
D21*
X151600000Y-95812500D02*
X151600000Y-97800000D01*
D20*
X151587500Y-95800000D02*
X151600000Y-95812500D01*
D21*
X151587500Y-95000000D02*
X151587500Y-95800000D01*
D20*
X161587500Y-97787500D02*
X161600000Y-97800000D01*
D21*
X161587500Y-95000000D02*
X161587500Y-97787500D01*
D22*
X161125000Y-93125000D02*
X161587500Y-93587500D01*
X161587500Y-93587500D02*
X161587500Y-95000000D01*
D21*
X151587500Y-94200000D02*
X151600000Y-94187500D01*
D20*
X151587500Y-95000000D02*
X151587500Y-94200000D01*
D22*
X151375000Y-93125000D02*
X161125000Y-93125000D01*
D21*
X121587500Y-93837500D02*
X120875000Y-93125000D01*
X121587500Y-95000000D02*
X121587500Y-93837500D01*
D20*
X131587500Y-94200000D02*
X131620000Y-94167500D01*
X131587500Y-95000000D02*
X131587500Y-94200000D01*
D22*
X120875000Y-93125000D02*
X131100000Y-93125000D01*
D21*
X131620000Y-93645000D02*
X131100000Y-93125000D01*
X131620000Y-94167500D02*
X131620000Y-93645000D01*
X141587500Y-95000000D02*
X141587500Y-93947500D01*
D20*
X140765000Y-93125000D02*
X140730000Y-93125000D01*
D21*
X141587500Y-93947500D02*
X140765000Y-93125000D01*
D22*
X131100000Y-93125000D02*
X140730000Y-93125000D01*
D21*
X151587500Y-94200000D02*
X151587500Y-93812500D01*
X151587500Y-93812500D02*
X150900000Y-93125000D01*
D22*
X140730000Y-93125000D02*
X150900000Y-93125000D01*
X150900000Y-93125000D02*
X151375000Y-93125000D01*
X120875000Y-93125000D02*
X115725000Y-93125000D01*
X115725000Y-93125000D02*
X114100000Y-91500000D01*
X114100000Y-91500000D02*
X107600000Y-91500000D01*
X107000000Y-92100000D02*
X107000000Y-101700000D01*
X105200000Y-103500000D02*
X107000000Y-101700000D01*
X107600000Y-91500000D02*
X107000000Y-92100000D01*
D20*
X109905000Y-107530000D02*
X109950000Y-107575000D01*
X108325000Y-92425000D02*
X108300000Y-92400000D01*
D21*
X108325000Y-93800000D02*
X108325000Y-92425000D01*
D22*
X108700000Y-109700000D02*
X109800000Y-109700000D01*
X109950000Y-109550000D02*
X109950000Y-107575000D01*
X109800000Y-109700000D02*
X109950000Y-109550000D01*
D20*
X113000000Y-101134315D02*
X111300000Y-99434315D01*
X113000000Y-101700000D02*
X113000000Y-101134315D01*
X111300000Y-99434315D02*
X111300000Y-96400000D01*
X110200000Y-95300000D02*
X109001479Y-95300000D01*
X111300000Y-96400000D02*
X110200000Y-95300000D01*
X110200000Y-93800000D02*
X111725000Y-93800000D01*
X110200000Y-93800000D02*
X110200000Y-95300000D01*
X111980000Y-98970000D02*
X111980000Y-95540000D01*
X115860000Y-102850000D02*
X111980000Y-98970000D01*
X117400000Y-95900000D02*
X117400000Y-102369536D01*
X117400000Y-102369536D02*
X115921422Y-103848114D01*
X138400000Y-97700000D02*
X136500000Y-97700000D01*
X136500000Y-97700000D02*
X136100000Y-98100000D01*
X136100000Y-98100000D02*
X136100000Y-101600000D01*
X135600000Y-102100000D02*
X131600000Y-102100000D01*
X136100000Y-101600000D02*
X135600000Y-102100000D01*
X128400000Y-97700000D02*
X126825000Y-97700000D01*
X126825000Y-97700000D02*
X126125000Y-98400000D01*
X126125000Y-98400000D02*
X126125000Y-101425000D01*
X125350000Y-102200000D02*
X121600000Y-102200000D01*
X126125000Y-101425000D02*
X125350000Y-102200000D01*
X148400000Y-97800000D02*
X147200000Y-97800000D01*
X147200000Y-97800000D02*
X146300000Y-98700000D01*
X146300000Y-98700000D02*
X146300000Y-101150000D01*
X145350000Y-102100000D02*
X141600000Y-102100000D01*
X146300000Y-101150000D02*
X145350000Y-102100000D01*
X158400000Y-97800000D02*
X156900000Y-97800000D01*
X156900000Y-97800000D02*
X155675000Y-99025000D01*
X155675000Y-99025000D02*
X155675000Y-101500000D01*
X154975000Y-102200000D02*
X151600000Y-102200000D01*
X155675000Y-101500000D02*
X154975000Y-102200000D01*
X161600000Y-101075000D02*
X162600000Y-100075000D01*
X161600000Y-102200000D02*
X161600000Y-101075000D01*
D23*
G36*
X165546000Y-89948870D02*
G01*
X165546001Y-110051130D01*
X100454000Y-110790812D01*
X100454000Y-109625738D01*
X107946000Y-109625738D01*
X107946000Y-109774262D01*
X107974976Y-109919934D01*
X108031814Y-110057153D01*
X108114330Y-110180647D01*
X108219353Y-110285670D01*
X108342847Y-110368186D01*
X108480066Y-110425024D01*
X108625738Y-110454000D01*
X108774262Y-110454000D01*
X108919934Y-110425024D01*
X109057153Y-110368186D01*
X109153214Y-110304000D01*
X109770333Y-110304000D01*
X109800000Y-110306922D01*
X109829667Y-110304000D01*
X109918405Y-110295260D01*
X110032259Y-110260723D01*
X110137188Y-110204637D01*
X110229159Y-110129159D01*
X110248078Y-110106106D01*
X110356107Y-109998077D01*
X110379159Y-109979159D01*
X110454637Y-109887188D01*
X110510723Y-109782259D01*
X110545260Y-109668405D01*
X110554000Y-109579667D01*
X110554000Y-109579666D01*
X110556922Y-109550001D01*
X110554000Y-109520334D01*
X110554000Y-108507356D01*
X110617634Y-108455134D01*
X110692184Y-108364293D01*
X110747581Y-108260654D01*
X110781694Y-108148199D01*
X110793212Y-108031250D01*
X110793212Y-107118750D01*
X110781694Y-107001801D01*
X110747581Y-106889346D01*
X110692184Y-106785707D01*
X110617634Y-106694866D01*
X110526793Y-106620316D01*
X110423154Y-106564919D01*
X110310699Y-106530806D01*
X110193750Y-106519288D01*
X109706250Y-106519288D01*
X109589301Y-106530806D01*
X109476846Y-106564919D01*
X109373207Y-106620316D01*
X109282366Y-106694866D01*
X109207816Y-106785707D01*
X109152419Y-106889346D01*
X109118306Y-107001801D01*
X109106788Y-107118750D01*
X109106788Y-108031250D01*
X109118306Y-108148199D01*
X109152419Y-108260654D01*
X109207816Y-108364293D01*
X109282366Y-108455134D01*
X109346001Y-108507357D01*
X109346000Y-109096000D01*
X109153214Y-109096000D01*
X109057153Y-109031814D01*
X108919934Y-108974976D01*
X108774262Y-108946000D01*
X108625738Y-108946000D01*
X108480066Y-108974976D01*
X108342847Y-109031814D01*
X108219353Y-109114330D01*
X108114330Y-109219353D01*
X108031814Y-109342847D01*
X107974976Y-109480066D01*
X107946000Y-109625738D01*
X100454000Y-109625738D01*
X100454000Y-106004002D01*
X100602458Y-106004002D01*
X100492809Y-106244635D01*
X100501662Y-106303943D01*
X100619012Y-106587532D01*
X100789433Y-106842778D01*
X101006375Y-107059872D01*
X101261501Y-107230471D01*
X101545008Y-107348020D01*
X101846000Y-107408000D01*
X102646000Y-107408000D01*
X102646000Y-106004000D01*
X102954000Y-106004000D01*
X102954000Y-107408000D01*
X103754000Y-107408000D01*
X104054992Y-107348020D01*
X104338499Y-107230471D01*
X104593625Y-107059872D01*
X104810567Y-106842778D01*
X104980988Y-106587532D01*
X105098338Y-106303943D01*
X105107191Y-106244635D01*
X104997541Y-106004000D01*
X102954000Y-106004000D01*
X102646000Y-106004000D01*
X102626000Y-106004000D01*
X102626000Y-105696000D01*
X102646000Y-105696000D01*
X102646000Y-105676000D01*
X102954000Y-105676000D01*
X102954000Y-105696000D01*
X104997541Y-105696000D01*
X105107191Y-105455365D01*
X105098338Y-105396057D01*
X104980988Y-105112468D01*
X104810567Y-104857222D01*
X104593625Y-104640128D01*
X104338499Y-104469529D01*
X104054992Y-104351980D01*
X103754000Y-104292000D01*
X101846000Y-104292000D01*
X101545008Y-104351980D01*
X101261501Y-104469529D01*
X101006375Y-104640128D01*
X100789433Y-104857222D01*
X100619012Y-105112468D01*
X100501662Y-105396057D01*
X100492809Y-105455365D01*
X100602458Y-105695998D01*
X100454000Y-105695998D01*
X100454000Y-103376492D01*
X103946000Y-103376492D01*
X103946000Y-103623508D01*
X103994190Y-103865778D01*
X104088719Y-104093992D01*
X104225954Y-104299379D01*
X104400621Y-104474046D01*
X104606008Y-104611281D01*
X104834222Y-104705810D01*
X105076492Y-104754000D01*
X105323508Y-104754000D01*
X105565778Y-104705810D01*
X105793992Y-104611281D01*
X105999379Y-104474046D01*
X106174046Y-104299379D01*
X106234188Y-104209369D01*
X108158420Y-104209369D01*
X108227638Y-104437427D01*
X108472213Y-104545782D01*
X108733227Y-104604341D01*
X109000650Y-104610853D01*
X109264205Y-104565069D01*
X109513764Y-104468747D01*
X109572362Y-104437427D01*
X109641580Y-104209369D01*
X108900000Y-103467789D01*
X108158420Y-104209369D01*
X106234188Y-104209369D01*
X106311281Y-104093992D01*
X106405810Y-103865778D01*
X106454000Y-103623508D01*
X106454000Y-103376492D01*
X106448860Y-103350650D01*
X107539147Y-103350650D01*
X107584931Y-103614205D01*
X107681253Y-103863764D01*
X107712573Y-103922362D01*
X107940631Y-103991580D01*
X108682211Y-103250000D01*
X109117789Y-103250000D01*
X109859369Y-103991580D01*
X110087427Y-103922362D01*
X110195782Y-103677787D01*
X110254341Y-103416773D01*
X110260853Y-103149350D01*
X110215069Y-102885795D01*
X110118747Y-102636236D01*
X110087427Y-102577638D01*
X109859369Y-102508420D01*
X109117789Y-103250000D01*
X108682211Y-103250000D01*
X107940631Y-102508420D01*
X107712573Y-102577638D01*
X107604218Y-102822213D01*
X107545659Y-103083227D01*
X107539147Y-103350650D01*
X106448860Y-103350650D01*
X106408158Y-103146026D01*
X107263553Y-102290631D01*
X108158420Y-102290631D01*
X108900000Y-103032211D01*
X109641580Y-102290631D01*
X109572362Y-102062573D01*
X109327787Y-101954218D01*
X109066773Y-101895659D01*
X108799350Y-101889147D01*
X108535795Y-101934931D01*
X108286236Y-102031253D01*
X108227638Y-102062573D01*
X108158420Y-102290631D01*
X107263553Y-102290631D01*
X107406112Y-102148073D01*
X107429159Y-102129159D01*
X107504637Y-102037188D01*
X107560723Y-101932259D01*
X107595260Y-101818405D01*
X107604000Y-101729667D01*
X107604000Y-101729665D01*
X107606922Y-101700001D01*
X107604000Y-101670336D01*
X107604000Y-97709369D01*
X108158420Y-97709369D01*
X108227638Y-97937427D01*
X108472213Y-98045782D01*
X108733227Y-98104341D01*
X109000650Y-98110853D01*
X109264205Y-98065069D01*
X109513764Y-97968747D01*
X109572362Y-97937427D01*
X109641580Y-97709369D01*
X108900000Y-96967789D01*
X108158420Y-97709369D01*
X107604000Y-97709369D01*
X107604000Y-97163611D01*
X107681253Y-97363764D01*
X107712573Y-97422362D01*
X107940631Y-97491580D01*
X108682211Y-96750000D01*
X109117789Y-96750000D01*
X109859369Y-97491580D01*
X110087427Y-97422362D01*
X110195782Y-97177787D01*
X110254341Y-96916773D01*
X110260853Y-96649350D01*
X110215069Y-96385795D01*
X110118747Y-96136236D01*
X110087427Y-96077638D01*
X109859369Y-96008420D01*
X109117789Y-96750000D01*
X108682211Y-96750000D01*
X107940631Y-96008420D01*
X107712573Y-96077638D01*
X107604218Y-96322213D01*
X107604000Y-96323185D01*
X107604000Y-94615106D01*
X107657366Y-94680134D01*
X107748207Y-94754684D01*
X107851846Y-94810081D01*
X107964301Y-94844194D01*
X108081250Y-94855712D01*
X108391515Y-94855712D01*
X108333293Y-94942847D01*
X108276455Y-95080066D01*
X108247479Y-95225738D01*
X108247479Y-95374262D01*
X108276455Y-95519934D01*
X108282067Y-95533482D01*
X108227638Y-95562573D01*
X108158420Y-95790631D01*
X108900000Y-96532211D01*
X109641580Y-95790631D01*
X109638050Y-95779000D01*
X110001593Y-95779000D01*
X110821001Y-96598409D01*
X110821000Y-99410792D01*
X110818683Y-99434315D01*
X110821000Y-99457838D01*
X110821000Y-99457840D01*
X110827931Y-99528214D01*
X110855321Y-99618506D01*
X110899800Y-99701720D01*
X110959657Y-99774658D01*
X110977940Y-99789662D01*
X112411646Y-101223369D01*
X112331814Y-101342847D01*
X112274976Y-101480066D01*
X112246000Y-101625738D01*
X112246000Y-101774262D01*
X112274976Y-101919934D01*
X112331814Y-102057153D01*
X112414330Y-102180647D01*
X112519353Y-102285670D01*
X112642847Y-102368186D01*
X112698241Y-102391131D01*
X112696241Y-102392467D01*
X112542467Y-102546241D01*
X112421648Y-102727060D01*
X112338426Y-102927975D01*
X112296000Y-103141265D01*
X112296000Y-103358735D01*
X112338426Y-103572025D01*
X112421648Y-103772940D01*
X112542467Y-103953759D01*
X112696241Y-104107533D01*
X112877060Y-104228352D01*
X112921000Y-104246553D01*
X112921001Y-106581406D01*
X112848207Y-106620316D01*
X112757366Y-106694866D01*
X112682816Y-106785707D01*
X112627419Y-106889346D01*
X112625000Y-106897320D01*
X112622581Y-106889346D01*
X112567184Y-106785707D01*
X112492634Y-106694866D01*
X112401793Y-106620316D01*
X112298154Y-106564919D01*
X112185699Y-106530806D01*
X112068750Y-106519288D01*
X111581250Y-106519288D01*
X111464301Y-106530806D01*
X111351846Y-106564919D01*
X111248207Y-106620316D01*
X111157366Y-106694866D01*
X111082816Y-106785707D01*
X111027419Y-106889346D01*
X110993306Y-107001801D01*
X110981788Y-107118750D01*
X110981788Y-108031250D01*
X110993306Y-108148199D01*
X111027419Y-108260654D01*
X111082816Y-108364293D01*
X111157366Y-108455134D01*
X111248207Y-108529684D01*
X111351846Y-108585081D01*
X111464301Y-108619194D01*
X111581250Y-108630712D01*
X112068750Y-108630712D01*
X112185699Y-108619194D01*
X112298154Y-108585081D01*
X112401793Y-108529684D01*
X112492634Y-108455134D01*
X112567184Y-108364293D01*
X112622581Y-108260654D01*
X112625000Y-108252680D01*
X112627419Y-108260654D01*
X112682816Y-108364293D01*
X112757366Y-108455134D01*
X112848207Y-108529684D01*
X112951846Y-108585081D01*
X113064301Y-108619194D01*
X113181250Y-108630712D01*
X113668750Y-108630712D01*
X113785699Y-108619194D01*
X113898154Y-108585081D01*
X114001793Y-108529684D01*
X114092634Y-108455134D01*
X114167184Y-108364293D01*
X114203636Y-108296097D01*
X114213297Y-108394189D01*
X114248063Y-108508797D01*
X114304520Y-108614421D01*
X114380499Y-108707001D01*
X114473079Y-108782980D01*
X114578703Y-108839437D01*
X114693311Y-108874203D01*
X114812500Y-108885942D01*
X114994000Y-108883000D01*
X115146000Y-108731000D01*
X115146000Y-107729000D01*
X115126000Y-107729000D01*
X115126000Y-107421000D01*
X115146000Y-107421000D01*
X115146000Y-106419000D01*
X115454000Y-106419000D01*
X115454000Y-107421000D01*
X115474000Y-107421000D01*
X115474000Y-107729000D01*
X115454000Y-107729000D01*
X115454000Y-108731000D01*
X115606000Y-108883000D01*
X115787500Y-108885942D01*
X115906689Y-108874203D01*
X116021297Y-108839437D01*
X116126921Y-108782980D01*
X116219501Y-108707001D01*
X116295480Y-108614421D01*
X116351937Y-108508797D01*
X116382895Y-108406741D01*
X116421973Y-108445819D01*
X116537888Y-108329903D01*
X116576462Y-108532589D01*
X116778215Y-108615847D01*
X116992335Y-108658144D01*
X117210592Y-108657855D01*
X117424598Y-108614993D01*
X117623538Y-108532589D01*
X117662112Y-108329901D01*
X117100000Y-107767789D01*
X117085858Y-107781931D01*
X116868069Y-107564142D01*
X116882211Y-107550000D01*
X117317789Y-107550000D01*
X117879901Y-108112112D01*
X118082589Y-108073538D01*
X118165847Y-107871785D01*
X118208144Y-107657665D01*
X118207855Y-107439408D01*
X118164993Y-107225402D01*
X118082589Y-107026462D01*
X117879901Y-106987888D01*
X117317789Y-107550000D01*
X116882211Y-107550000D01*
X116868069Y-107535858D01*
X117085858Y-107318069D01*
X117100000Y-107332211D01*
X117662112Y-106770099D01*
X117623538Y-106567411D01*
X117421785Y-106484153D01*
X117207665Y-106441856D01*
X116989408Y-106442145D01*
X116775402Y-106485007D01*
X116576462Y-106567411D01*
X116537888Y-106770097D01*
X116421973Y-106654181D01*
X116371258Y-106704896D01*
X116351937Y-106641203D01*
X116295480Y-106535579D01*
X116219501Y-106442999D01*
X116126921Y-106367020D01*
X116021297Y-106310563D01*
X115906689Y-106275797D01*
X115787500Y-106264058D01*
X115606000Y-106267000D01*
X115454000Y-106419000D01*
X115146000Y-106419000D01*
X114994000Y-106267000D01*
X114812500Y-106264058D01*
X114693311Y-106275797D01*
X114578703Y-106310563D01*
X114473079Y-106367020D01*
X114380499Y-106442999D01*
X114304520Y-106535579D01*
X114248063Y-106641203D01*
X114213297Y-106755811D01*
X114203636Y-106853903D01*
X114167184Y-106785707D01*
X114092634Y-106694866D01*
X114001793Y-106620316D01*
X113898154Y-106564919D01*
X113879000Y-106559109D01*
X113879000Y-104246553D01*
X113922940Y-104228352D01*
X114103759Y-104107533D01*
X114257533Y-103953759D01*
X114378352Y-103772940D01*
X114461574Y-103572025D01*
X114504000Y-103358735D01*
X114504000Y-103141265D01*
X114461574Y-102927975D01*
X114378352Y-102727060D01*
X114257533Y-102546241D01*
X114103759Y-102392467D01*
X113922940Y-102271648D01*
X113722025Y-102188426D01*
X113597079Y-102163573D01*
X113668186Y-102057153D01*
X113725024Y-101919934D01*
X113754000Y-101774262D01*
X113754000Y-101625738D01*
X113725024Y-101480066D01*
X113668186Y-101342847D01*
X113653580Y-101320987D01*
X115106387Y-102773794D01*
X115106000Y-102775738D01*
X115106000Y-102924262D01*
X115134976Y-103069934D01*
X115191814Y-103207153D01*
X115274330Y-103330647D01*
X115325898Y-103382215D01*
X115253236Y-103490961D01*
X115196398Y-103628180D01*
X115167422Y-103773852D01*
X115167422Y-103922376D01*
X115196398Y-104068048D01*
X115253236Y-104205267D01*
X115335752Y-104328761D01*
X115440775Y-104433784D01*
X115564269Y-104516300D01*
X115701488Y-104573138D01*
X115847160Y-104602114D01*
X115995684Y-104602114D01*
X116141356Y-104573138D01*
X116278575Y-104516300D01*
X116402069Y-104433784D01*
X116449965Y-104385888D01*
X119546000Y-104385888D01*
X119546000Y-104554112D01*
X119578819Y-104719103D01*
X119643195Y-104874521D01*
X119736655Y-105014393D01*
X119855607Y-105133345D01*
X119995479Y-105226805D01*
X120150897Y-105291181D01*
X120315888Y-105324000D01*
X120484112Y-105324000D01*
X120649103Y-105291181D01*
X120804521Y-105226805D01*
X120944393Y-105133345D01*
X121063345Y-105014393D01*
X121156805Y-104874521D01*
X121221181Y-104719103D01*
X121254000Y-104554112D01*
X121254000Y-104385888D01*
X121221181Y-104220897D01*
X121156805Y-104065479D01*
X121063345Y-103925607D01*
X120944393Y-103806655D01*
X120804521Y-103713195D01*
X120649103Y-103648819D01*
X120484112Y-103616000D01*
X120315888Y-103616000D01*
X120150897Y-103648819D01*
X119995479Y-103713195D01*
X119855607Y-103806655D01*
X119736655Y-103925607D01*
X119643195Y-104065479D01*
X119578819Y-104220897D01*
X119546000Y-104385888D01*
X116449965Y-104385888D01*
X116507092Y-104328761D01*
X116589608Y-104205267D01*
X116646446Y-104068048D01*
X116675422Y-103922376D01*
X116675422Y-103773852D01*
X116675035Y-103771908D01*
X117189268Y-103257676D01*
X117189058Y-103300000D01*
X117200797Y-103419189D01*
X117235563Y-103533797D01*
X117292020Y-103639421D01*
X117367999Y-103732001D01*
X117460579Y-103807980D01*
X117566203Y-103864437D01*
X117680811Y-103899203D01*
X117800000Y-103910942D01*
X118094000Y-103908000D01*
X118246000Y-103756000D01*
X118246000Y-102554000D01*
X118554000Y-102554000D01*
X118554000Y-103756000D01*
X118706000Y-103908000D01*
X119000000Y-103910942D01*
X119119189Y-103899203D01*
X119233797Y-103864437D01*
X119339421Y-103807980D01*
X119432001Y-103732001D01*
X119507980Y-103639421D01*
X119564437Y-103533797D01*
X119599203Y-103419189D01*
X119610942Y-103300000D01*
X119608000Y-102706000D01*
X119456000Y-102554000D01*
X118554000Y-102554000D01*
X118246000Y-102554000D01*
X118226000Y-102554000D01*
X118226000Y-102246000D01*
X118246000Y-102246000D01*
X118246000Y-101044000D01*
X118554000Y-101044000D01*
X118554000Y-102246000D01*
X119456000Y-102246000D01*
X119608000Y-102094000D01*
X119610942Y-101500000D01*
X120644288Y-101500000D01*
X120644288Y-103300000D01*
X120651123Y-103369396D01*
X120671365Y-103436125D01*
X120704236Y-103497623D01*
X120748474Y-103551526D01*
X120802377Y-103595764D01*
X120863875Y-103628635D01*
X120930604Y-103648877D01*
X121000000Y-103655712D01*
X122200000Y-103655712D01*
X122269396Y-103648877D01*
X122336125Y-103628635D01*
X122397623Y-103595764D01*
X122451526Y-103551526D01*
X122495764Y-103497623D01*
X122528635Y-103436125D01*
X122548877Y-103369396D01*
X122555712Y-103300000D01*
X122555712Y-103200000D01*
X127189058Y-103200000D01*
X127200797Y-103319189D01*
X127235563Y-103433797D01*
X127292020Y-103539421D01*
X127367999Y-103632001D01*
X127460579Y-103707980D01*
X127566203Y-103764437D01*
X127680811Y-103799203D01*
X127800000Y-103810942D01*
X128094000Y-103808000D01*
X128246000Y-103656000D01*
X128246000Y-102454000D01*
X128554000Y-102454000D01*
X128554000Y-103656000D01*
X128706000Y-103808000D01*
X129000000Y-103810942D01*
X129119189Y-103799203D01*
X129233797Y-103764437D01*
X129339421Y-103707980D01*
X129432001Y-103632001D01*
X129507980Y-103539421D01*
X129564437Y-103433797D01*
X129599203Y-103319189D01*
X129610942Y-103200000D01*
X129608000Y-102606000D01*
X129456000Y-102454000D01*
X128554000Y-102454000D01*
X128246000Y-102454000D01*
X127344000Y-102454000D01*
X127192000Y-102606000D01*
X127189058Y-103200000D01*
X122555712Y-103200000D01*
X122555712Y-102679000D01*
X125326477Y-102679000D01*
X125350000Y-102681317D01*
X125373523Y-102679000D01*
X125373526Y-102679000D01*
X125443900Y-102672069D01*
X125534192Y-102644679D01*
X125617405Y-102600200D01*
X125690343Y-102540343D01*
X125705347Y-102522060D01*
X126447065Y-101780343D01*
X126465343Y-101765343D01*
X126501733Y-101721000D01*
X126525200Y-101692406D01*
X126569679Y-101609192D01*
X126572467Y-101600000D01*
X126597069Y-101518900D01*
X126601765Y-101471222D01*
X126606318Y-101425000D01*
X126604000Y-101401469D01*
X126604000Y-101400000D01*
X127189058Y-101400000D01*
X127192000Y-101994000D01*
X127344000Y-102146000D01*
X128246000Y-102146000D01*
X128246000Y-100944000D01*
X128554000Y-100944000D01*
X128554000Y-102146000D01*
X129456000Y-102146000D01*
X129608000Y-101994000D01*
X129610942Y-101400000D01*
X130644288Y-101400000D01*
X130644288Y-103200000D01*
X130651123Y-103269396D01*
X130671365Y-103336125D01*
X130704236Y-103397623D01*
X130748474Y-103451526D01*
X130802377Y-103495764D01*
X130863875Y-103528635D01*
X130930604Y-103548877D01*
X131000000Y-103555712D01*
X132200000Y-103555712D01*
X132269396Y-103548877D01*
X132336125Y-103528635D01*
X132397623Y-103495764D01*
X132451526Y-103451526D01*
X132495764Y-103397623D01*
X132528635Y-103336125D01*
X132548877Y-103269396D01*
X132555712Y-103200000D01*
X137189058Y-103200000D01*
X137200797Y-103319189D01*
X137235563Y-103433797D01*
X137292020Y-103539421D01*
X137367999Y-103632001D01*
X137460579Y-103707980D01*
X137566203Y-103764437D01*
X137680811Y-103799203D01*
X137800000Y-103810942D01*
X138094000Y-103808000D01*
X138246000Y-103656000D01*
X138246000Y-102454000D01*
X138554000Y-102454000D01*
X138554000Y-103656000D01*
X138706000Y-103808000D01*
X139000000Y-103810942D01*
X139119189Y-103799203D01*
X139233797Y-103764437D01*
X139339421Y-103707980D01*
X139432001Y-103632001D01*
X139507980Y-103539421D01*
X139564437Y-103433797D01*
X139599203Y-103319189D01*
X139610942Y-103200000D01*
X139608000Y-102606000D01*
X139456000Y-102454000D01*
X138554000Y-102454000D01*
X138246000Y-102454000D01*
X137344000Y-102454000D01*
X137192000Y-102606000D01*
X137189058Y-103200000D01*
X132555712Y-103200000D01*
X132555712Y-102579000D01*
X135576477Y-102579000D01*
X135600000Y-102581317D01*
X135623523Y-102579000D01*
X135623526Y-102579000D01*
X135693900Y-102572069D01*
X135784192Y-102544679D01*
X135867405Y-102500200D01*
X135940343Y-102440343D01*
X135955347Y-102422060D01*
X136422065Y-101955343D01*
X136440343Y-101940343D01*
X136477013Y-101895659D01*
X136500200Y-101867406D01*
X136544679Y-101784192D01*
X136550397Y-101765343D01*
X136572069Y-101693900D01*
X136579000Y-101623526D01*
X136579000Y-101623523D01*
X136581317Y-101600000D01*
X136579000Y-101576477D01*
X136579000Y-101400000D01*
X137189058Y-101400000D01*
X137192000Y-101994000D01*
X137344000Y-102146000D01*
X138246000Y-102146000D01*
X138246000Y-100944000D01*
X138554000Y-100944000D01*
X138554000Y-102146000D01*
X139456000Y-102146000D01*
X139608000Y-101994000D01*
X139610942Y-101400000D01*
X140644288Y-101400000D01*
X140644288Y-103200000D01*
X140651123Y-103269396D01*
X140671365Y-103336125D01*
X140704236Y-103397623D01*
X140748474Y-103451526D01*
X140802377Y-103495764D01*
X140863875Y-103528635D01*
X140930604Y-103548877D01*
X141000000Y-103555712D01*
X142200000Y-103555712D01*
X142269396Y-103548877D01*
X142336125Y-103528635D01*
X142397623Y-103495764D01*
X142451526Y-103451526D01*
X142495764Y-103397623D01*
X142528635Y-103336125D01*
X142539593Y-103300000D01*
X147189058Y-103300000D01*
X147200797Y-103419189D01*
X147235563Y-103533797D01*
X147292020Y-103639421D01*
X147367999Y-103732001D01*
X147460579Y-103807980D01*
X147566203Y-103864437D01*
X147680811Y-103899203D01*
X147800000Y-103910942D01*
X148094000Y-103908000D01*
X148246000Y-103756000D01*
X148246000Y-102554000D01*
X148554000Y-102554000D01*
X148554000Y-103756000D01*
X148706000Y-103908000D01*
X149000000Y-103910942D01*
X149119189Y-103899203D01*
X149233797Y-103864437D01*
X149339421Y-103807980D01*
X149432001Y-103732001D01*
X149507980Y-103639421D01*
X149564437Y-103533797D01*
X149599203Y-103419189D01*
X149610942Y-103300000D01*
X149608000Y-102706000D01*
X149456000Y-102554000D01*
X148554000Y-102554000D01*
X148246000Y-102554000D01*
X147344000Y-102554000D01*
X147192000Y-102706000D01*
X147189058Y-103300000D01*
X142539593Y-103300000D01*
X142548877Y-103269396D01*
X142555712Y-103200000D01*
X142555712Y-102579000D01*
X145326477Y-102579000D01*
X145350000Y-102581317D01*
X145373523Y-102579000D01*
X145373526Y-102579000D01*
X145443900Y-102572069D01*
X145534192Y-102544679D01*
X145617405Y-102500200D01*
X145690343Y-102440343D01*
X145705347Y-102422060D01*
X146622065Y-101505343D01*
X146628575Y-101500000D01*
X147189058Y-101500000D01*
X147192000Y-102094000D01*
X147344000Y-102246000D01*
X148246000Y-102246000D01*
X148246000Y-101044000D01*
X148554000Y-101044000D01*
X148554000Y-102246000D01*
X149456000Y-102246000D01*
X149608000Y-102094000D01*
X149610942Y-101500000D01*
X150644288Y-101500000D01*
X150644288Y-103300000D01*
X150651123Y-103369396D01*
X150671365Y-103436125D01*
X150704236Y-103497623D01*
X150748474Y-103551526D01*
X150802377Y-103595764D01*
X150863875Y-103628635D01*
X150930604Y-103648877D01*
X151000000Y-103655712D01*
X152200000Y-103655712D01*
X152269396Y-103648877D01*
X152336125Y-103628635D01*
X152397623Y-103595764D01*
X152451526Y-103551526D01*
X152495764Y-103497623D01*
X152528635Y-103436125D01*
X152548877Y-103369396D01*
X152555712Y-103300000D01*
X157189058Y-103300000D01*
X157200797Y-103419189D01*
X157235563Y-103533797D01*
X157292020Y-103639421D01*
X157367999Y-103732001D01*
X157460579Y-103807980D01*
X157566203Y-103864437D01*
X157680811Y-103899203D01*
X157800000Y-103910942D01*
X158094000Y-103908000D01*
X158246000Y-103756000D01*
X158246000Y-102554000D01*
X158554000Y-102554000D01*
X158554000Y-103756000D01*
X158706000Y-103908000D01*
X159000000Y-103910942D01*
X159119189Y-103899203D01*
X159233797Y-103864437D01*
X159339421Y-103807980D01*
X159432001Y-103732001D01*
X159507980Y-103639421D01*
X159564437Y-103533797D01*
X159599203Y-103419189D01*
X159610942Y-103300000D01*
X159608000Y-102706000D01*
X159456000Y-102554000D01*
X158554000Y-102554000D01*
X158246000Y-102554000D01*
X157344000Y-102554000D01*
X157192000Y-102706000D01*
X157189058Y-103300000D01*
X152555712Y-103300000D01*
X152555712Y-102679000D01*
X154951477Y-102679000D01*
X154975000Y-102681317D01*
X154998523Y-102679000D01*
X154998526Y-102679000D01*
X155068900Y-102672069D01*
X155159192Y-102644679D01*
X155242405Y-102600200D01*
X155315343Y-102540343D01*
X155330347Y-102522060D01*
X155997070Y-101855339D01*
X156015343Y-101840343D01*
X156033347Y-101818405D01*
X156075200Y-101767407D01*
X156119678Y-101684193D01*
X156119679Y-101684192D01*
X156147069Y-101593900D01*
X156154000Y-101523526D01*
X156154000Y-101523522D01*
X156156317Y-101500001D01*
X156156317Y-101500000D01*
X157189058Y-101500000D01*
X157192000Y-102094000D01*
X157344000Y-102246000D01*
X158246000Y-102246000D01*
X158246000Y-101044000D01*
X158554000Y-101044000D01*
X158554000Y-102246000D01*
X159456000Y-102246000D01*
X159608000Y-102094000D01*
X159610942Y-101500000D01*
X160644288Y-101500000D01*
X160644288Y-103300000D01*
X160651123Y-103369396D01*
X160671365Y-103436125D01*
X160704236Y-103497623D01*
X160748474Y-103551526D01*
X160802377Y-103595764D01*
X160863875Y-103628635D01*
X160930604Y-103648877D01*
X161000000Y-103655712D01*
X162200000Y-103655712D01*
X162269396Y-103648877D01*
X162336125Y-103628635D01*
X162397623Y-103595764D01*
X162451526Y-103551526D01*
X162495764Y-103497623D01*
X162528635Y-103436125D01*
X162548877Y-103369396D01*
X162555712Y-103300000D01*
X162555712Y-101500000D01*
X162548877Y-101430604D01*
X162528635Y-101363875D01*
X162495764Y-101302377D01*
X162451526Y-101248474D01*
X162397623Y-101204236D01*
X162336125Y-101171365D01*
X162269396Y-101151123D01*
X162207391Y-101145016D01*
X162523794Y-100828613D01*
X162525738Y-100829000D01*
X162674262Y-100829000D01*
X162819934Y-100800024D01*
X162957153Y-100743186D01*
X163080647Y-100660670D01*
X163185670Y-100555647D01*
X163268186Y-100432153D01*
X163325024Y-100294934D01*
X163354000Y-100149262D01*
X163354000Y-100000738D01*
X163325024Y-99855066D01*
X163268186Y-99717847D01*
X163185670Y-99594353D01*
X163080647Y-99489330D01*
X162957153Y-99406814D01*
X162819934Y-99349976D01*
X162674262Y-99321000D01*
X162525738Y-99321000D01*
X162380066Y-99349976D01*
X162242847Y-99406814D01*
X162119353Y-99489330D01*
X162014330Y-99594353D01*
X161931814Y-99717847D01*
X161874976Y-99855066D01*
X161846000Y-100000738D01*
X161846000Y-100149262D01*
X161846387Y-100151206D01*
X161277936Y-100719657D01*
X161259658Y-100734657D01*
X161244661Y-100752932D01*
X161199800Y-100807595D01*
X161155322Y-100890808D01*
X161127932Y-100981100D01*
X161118683Y-101075000D01*
X161121001Y-101098533D01*
X161121001Y-101144288D01*
X161000000Y-101144288D01*
X160930604Y-101151123D01*
X160863875Y-101171365D01*
X160802377Y-101204236D01*
X160748474Y-101248474D01*
X160704236Y-101302377D01*
X160671365Y-101363875D01*
X160651123Y-101430604D01*
X160644288Y-101500000D01*
X159610942Y-101500000D01*
X159599203Y-101380811D01*
X159564437Y-101266203D01*
X159507980Y-101160579D01*
X159432001Y-101067999D01*
X159339421Y-100992020D01*
X159233797Y-100935563D01*
X159119189Y-100900797D01*
X159000000Y-100889058D01*
X158706000Y-100892000D01*
X158554000Y-101044000D01*
X158246000Y-101044000D01*
X158094000Y-100892000D01*
X157800000Y-100889058D01*
X157680811Y-100900797D01*
X157566203Y-100935563D01*
X157460579Y-100992020D01*
X157367999Y-101067999D01*
X157292020Y-101160579D01*
X157235563Y-101266203D01*
X157200797Y-101380811D01*
X157189058Y-101500000D01*
X156156317Y-101500000D01*
X156154000Y-101476480D01*
X156154000Y-99223407D01*
X157098408Y-98279000D01*
X157444288Y-98279000D01*
X157444288Y-98500000D01*
X157451123Y-98569396D01*
X157471365Y-98636125D01*
X157504236Y-98697623D01*
X157548474Y-98751526D01*
X157602377Y-98795764D01*
X157663875Y-98828635D01*
X157730604Y-98848877D01*
X157800000Y-98855712D01*
X159000000Y-98855712D01*
X159069396Y-98848877D01*
X159136125Y-98828635D01*
X159197623Y-98795764D01*
X159251526Y-98751526D01*
X159295764Y-98697623D01*
X159328635Y-98636125D01*
X159348877Y-98569396D01*
X159355712Y-98500000D01*
X159355712Y-96700000D01*
X159348877Y-96630604D01*
X159328635Y-96563875D01*
X159295764Y-96502377D01*
X159251526Y-96448474D01*
X159197623Y-96404236D01*
X159136125Y-96371365D01*
X159069396Y-96351123D01*
X159000000Y-96344288D01*
X157800000Y-96344288D01*
X157730604Y-96351123D01*
X157663875Y-96371365D01*
X157602377Y-96404236D01*
X157548474Y-96448474D01*
X157504236Y-96502377D01*
X157471365Y-96563875D01*
X157451123Y-96630604D01*
X157444288Y-96700000D01*
X157444288Y-97321000D01*
X156923523Y-97321000D01*
X156900000Y-97318683D01*
X156876477Y-97321000D01*
X156876474Y-97321000D01*
X156806100Y-97327931D01*
X156736870Y-97348932D01*
X156715808Y-97355321D01*
X156632594Y-97399800D01*
X156607865Y-97420095D01*
X156559657Y-97459657D01*
X156544660Y-97477932D01*
X155352940Y-98669653D01*
X155334657Y-98684657D01*
X155274800Y-98757595D01*
X155230321Y-98840809D01*
X155202931Y-98931101D01*
X155199100Y-98970000D01*
X155193683Y-99025000D01*
X155196000Y-99048523D01*
X155196001Y-101301591D01*
X154776593Y-101721000D01*
X152555712Y-101721000D01*
X152555712Y-101500000D01*
X152548877Y-101430604D01*
X152528635Y-101363875D01*
X152495764Y-101302377D01*
X152451526Y-101248474D01*
X152397623Y-101204236D01*
X152336125Y-101171365D01*
X152269396Y-101151123D01*
X152200000Y-101144288D01*
X151000000Y-101144288D01*
X150930604Y-101151123D01*
X150863875Y-101171365D01*
X150802377Y-101204236D01*
X150748474Y-101248474D01*
X150704236Y-101302377D01*
X150671365Y-101363875D01*
X150651123Y-101430604D01*
X150644288Y-101500000D01*
X149610942Y-101500000D01*
X149599203Y-101380811D01*
X149564437Y-101266203D01*
X149507980Y-101160579D01*
X149432001Y-101067999D01*
X149339421Y-100992020D01*
X149233797Y-100935563D01*
X149119189Y-100900797D01*
X149000000Y-100889058D01*
X148706000Y-100892000D01*
X148554000Y-101044000D01*
X148246000Y-101044000D01*
X148094000Y-100892000D01*
X147800000Y-100889058D01*
X147680811Y-100900797D01*
X147566203Y-100935563D01*
X147460579Y-100992020D01*
X147367999Y-101067999D01*
X147292020Y-101160579D01*
X147235563Y-101266203D01*
X147200797Y-101380811D01*
X147189058Y-101500000D01*
X146628575Y-101500000D01*
X146640343Y-101490343D01*
X146675435Y-101447583D01*
X146700200Y-101417406D01*
X146744679Y-101334193D01*
X146765303Y-101266203D01*
X146772069Y-101243900D01*
X146779000Y-101173526D01*
X146779000Y-101173523D01*
X146781317Y-101150000D01*
X146779000Y-101126477D01*
X146779000Y-98898407D01*
X147398408Y-98279000D01*
X147444288Y-98279000D01*
X147444288Y-98500000D01*
X147451123Y-98569396D01*
X147471365Y-98636125D01*
X147504236Y-98697623D01*
X147548474Y-98751526D01*
X147602377Y-98795764D01*
X147663875Y-98828635D01*
X147730604Y-98848877D01*
X147800000Y-98855712D01*
X149000000Y-98855712D01*
X149069396Y-98848877D01*
X149136125Y-98828635D01*
X149197623Y-98795764D01*
X149251526Y-98751526D01*
X149295764Y-98697623D01*
X149328635Y-98636125D01*
X149348877Y-98569396D01*
X149355712Y-98500000D01*
X149355712Y-96700000D01*
X149348877Y-96630604D01*
X149328635Y-96563875D01*
X149295764Y-96502377D01*
X149251526Y-96448474D01*
X149197623Y-96404236D01*
X149136125Y-96371365D01*
X149069396Y-96351123D01*
X149000000Y-96344288D01*
X147800000Y-96344288D01*
X147730604Y-96351123D01*
X147663875Y-96371365D01*
X147602377Y-96404236D01*
X147548474Y-96448474D01*
X147504236Y-96502377D01*
X147471365Y-96563875D01*
X147451123Y-96630604D01*
X147444288Y-96700000D01*
X147444288Y-97321000D01*
X147223520Y-97321000D01*
X147199999Y-97318683D01*
X147176478Y-97321000D01*
X147176474Y-97321000D01*
X147106100Y-97327931D01*
X147015808Y-97355321D01*
X147000013Y-97363764D01*
X146932593Y-97399800D01*
X146905102Y-97422362D01*
X146859657Y-97459657D01*
X146844660Y-97477932D01*
X145977940Y-98344653D01*
X145959657Y-98359657D01*
X145899800Y-98432595D01*
X145855321Y-98515809D01*
X145827931Y-98606101D01*
X145821000Y-98676474D01*
X145818683Y-98700000D01*
X145821000Y-98723523D01*
X145821001Y-100951591D01*
X145151593Y-101621000D01*
X142555712Y-101621000D01*
X142555712Y-101400000D01*
X142548877Y-101330604D01*
X142528635Y-101263875D01*
X142495764Y-101202377D01*
X142451526Y-101148474D01*
X142397623Y-101104236D01*
X142336125Y-101071365D01*
X142269396Y-101051123D01*
X142200000Y-101044288D01*
X141000000Y-101044288D01*
X140930604Y-101051123D01*
X140863875Y-101071365D01*
X140802377Y-101104236D01*
X140748474Y-101148474D01*
X140704236Y-101202377D01*
X140671365Y-101263875D01*
X140651123Y-101330604D01*
X140644288Y-101400000D01*
X139610942Y-101400000D01*
X139599203Y-101280811D01*
X139564437Y-101166203D01*
X139507980Y-101060579D01*
X139432001Y-100967999D01*
X139339421Y-100892020D01*
X139233797Y-100835563D01*
X139119189Y-100800797D01*
X139000000Y-100789058D01*
X138706000Y-100792000D01*
X138554000Y-100944000D01*
X138246000Y-100944000D01*
X138094000Y-100792000D01*
X137800000Y-100789058D01*
X137680811Y-100800797D01*
X137566203Y-100835563D01*
X137460579Y-100892020D01*
X137367999Y-100967999D01*
X137292020Y-101060579D01*
X137235563Y-101166203D01*
X137200797Y-101280811D01*
X137189058Y-101400000D01*
X136579000Y-101400000D01*
X136579000Y-98298408D01*
X136698408Y-98179000D01*
X137444288Y-98179000D01*
X137444288Y-98400000D01*
X137451123Y-98469396D01*
X137471365Y-98536125D01*
X137504236Y-98597623D01*
X137548474Y-98651526D01*
X137602377Y-98695764D01*
X137663875Y-98728635D01*
X137730604Y-98748877D01*
X137800000Y-98755712D01*
X139000000Y-98755712D01*
X139069396Y-98748877D01*
X139136125Y-98728635D01*
X139197623Y-98695764D01*
X139251526Y-98651526D01*
X139295764Y-98597623D01*
X139328635Y-98536125D01*
X139348877Y-98469396D01*
X139355712Y-98400000D01*
X139355712Y-96600000D01*
X139348877Y-96530604D01*
X139328635Y-96463875D01*
X139295764Y-96402377D01*
X139251526Y-96348474D01*
X139203175Y-96308792D01*
X139225000Y-96310942D01*
X139406500Y-96308000D01*
X139558500Y-96156000D01*
X139558500Y-95154000D01*
X138769000Y-95154000D01*
X138617000Y-95306000D01*
X138614058Y-95700000D01*
X138625797Y-95819189D01*
X138660563Y-95933797D01*
X138717020Y-96039421D01*
X138792999Y-96132001D01*
X138885579Y-96207980D01*
X138953507Y-96244288D01*
X137800000Y-96244288D01*
X137730604Y-96251123D01*
X137663875Y-96271365D01*
X137602377Y-96304236D01*
X137548474Y-96348474D01*
X137504236Y-96402377D01*
X137471365Y-96463875D01*
X137451123Y-96530604D01*
X137444288Y-96600000D01*
X137444288Y-97221000D01*
X136523520Y-97221000D01*
X136499999Y-97218683D01*
X136476478Y-97221000D01*
X136476474Y-97221000D01*
X136406100Y-97227931D01*
X136315808Y-97255321D01*
X136290565Y-97268814D01*
X136232593Y-97299800D01*
X136180171Y-97342822D01*
X136159657Y-97359657D01*
X136144661Y-97377930D01*
X135777939Y-97744653D01*
X135759657Y-97759657D01*
X135699800Y-97832595D01*
X135655321Y-97915809D01*
X135627931Y-98006101D01*
X135621000Y-98076474D01*
X135618683Y-98100000D01*
X135621000Y-98123523D01*
X135621001Y-101401591D01*
X135401593Y-101621000D01*
X132555712Y-101621000D01*
X132555712Y-101400000D01*
X132548877Y-101330604D01*
X132528635Y-101263875D01*
X132495764Y-101202377D01*
X132451526Y-101148474D01*
X132397623Y-101104236D01*
X132336125Y-101071365D01*
X132269396Y-101051123D01*
X132200000Y-101044288D01*
X131000000Y-101044288D01*
X130930604Y-101051123D01*
X130863875Y-101071365D01*
X130802377Y-101104236D01*
X130748474Y-101148474D01*
X130704236Y-101202377D01*
X130671365Y-101263875D01*
X130651123Y-101330604D01*
X130644288Y-101400000D01*
X129610942Y-101400000D01*
X129599203Y-101280811D01*
X129564437Y-101166203D01*
X129507980Y-101060579D01*
X129432001Y-100967999D01*
X129339421Y-100892020D01*
X129233797Y-100835563D01*
X129119189Y-100800797D01*
X129000000Y-100789058D01*
X128706000Y-100792000D01*
X128554000Y-100944000D01*
X128246000Y-100944000D01*
X128094000Y-100792000D01*
X127800000Y-100789058D01*
X127680811Y-100800797D01*
X127566203Y-100835563D01*
X127460579Y-100892020D01*
X127367999Y-100967999D01*
X127292020Y-101060579D01*
X127235563Y-101166203D01*
X127200797Y-101280811D01*
X127189058Y-101400000D01*
X126604000Y-101400000D01*
X126604000Y-98598407D01*
X127023409Y-98179000D01*
X127444288Y-98179000D01*
X127444288Y-98400000D01*
X127451123Y-98469396D01*
X127471365Y-98536125D01*
X127504236Y-98597623D01*
X127548474Y-98651526D01*
X127602377Y-98695764D01*
X127663875Y-98728635D01*
X127730604Y-98748877D01*
X127800000Y-98755712D01*
X129000000Y-98755712D01*
X129069396Y-98748877D01*
X129136125Y-98728635D01*
X129197623Y-98695764D01*
X129251526Y-98651526D01*
X129295764Y-98597623D01*
X129328635Y-98536125D01*
X129348877Y-98469396D01*
X129355712Y-98400000D01*
X129355712Y-96600000D01*
X129348877Y-96530604D01*
X129328635Y-96463875D01*
X129295764Y-96402377D01*
X129251526Y-96348474D01*
X129203175Y-96308792D01*
X129225000Y-96310942D01*
X129406500Y-96308000D01*
X129558500Y-96156000D01*
X129558500Y-95154000D01*
X128769000Y-95154000D01*
X128617000Y-95306000D01*
X128614058Y-95700000D01*
X128625797Y-95819189D01*
X128660563Y-95933797D01*
X128717020Y-96039421D01*
X128792999Y-96132001D01*
X128885579Y-96207980D01*
X128953507Y-96244288D01*
X127800000Y-96244288D01*
X127730604Y-96251123D01*
X127663875Y-96271365D01*
X127602377Y-96304236D01*
X127548474Y-96348474D01*
X127504236Y-96402377D01*
X127471365Y-96463875D01*
X127451123Y-96530604D01*
X127444288Y-96600000D01*
X127444288Y-97221000D01*
X126848520Y-97221000D01*
X126824999Y-97218683D01*
X126801478Y-97221000D01*
X126801474Y-97221000D01*
X126731100Y-97227931D01*
X126640808Y-97255321D01*
X126615565Y-97268814D01*
X126557593Y-97299800D01*
X126505171Y-97342822D01*
X126484657Y-97359657D01*
X126469661Y-97377930D01*
X125802940Y-98044653D01*
X125784657Y-98059657D01*
X125724800Y-98132595D01*
X125680321Y-98215809D01*
X125652931Y-98306101D01*
X125646000Y-98376474D01*
X125643683Y-98400000D01*
X125646000Y-98423523D01*
X125646001Y-101226591D01*
X125151593Y-101721000D01*
X122555712Y-101721000D01*
X122555712Y-101500000D01*
X122548877Y-101430604D01*
X122528635Y-101363875D01*
X122495764Y-101302377D01*
X122451526Y-101248474D01*
X122397623Y-101204236D01*
X122336125Y-101171365D01*
X122269396Y-101151123D01*
X122200000Y-101144288D01*
X121000000Y-101144288D01*
X120930604Y-101151123D01*
X120863875Y-101171365D01*
X120802377Y-101204236D01*
X120748474Y-101248474D01*
X120704236Y-101302377D01*
X120671365Y-101363875D01*
X120651123Y-101430604D01*
X120644288Y-101500000D01*
X119610942Y-101500000D01*
X119599203Y-101380811D01*
X119564437Y-101266203D01*
X119507980Y-101160579D01*
X119432001Y-101067999D01*
X119339421Y-100992020D01*
X119233797Y-100935563D01*
X119119189Y-100900797D01*
X119000000Y-100889058D01*
X118706000Y-100892000D01*
X118554000Y-101044000D01*
X118246000Y-101044000D01*
X118094000Y-100892000D01*
X117879000Y-100889849D01*
X117879000Y-98855712D01*
X119000000Y-98855712D01*
X119069396Y-98848877D01*
X119136125Y-98828635D01*
X119197623Y-98795764D01*
X119251526Y-98751526D01*
X119295764Y-98697623D01*
X119328635Y-98636125D01*
X119348877Y-98569396D01*
X119355712Y-98500000D01*
X119355712Y-96700000D01*
X119348877Y-96630604D01*
X119328635Y-96563875D01*
X119295764Y-96502377D01*
X119251526Y-96448474D01*
X119197623Y-96404236D01*
X119136125Y-96371365D01*
X119069396Y-96351123D01*
X119000000Y-96344288D01*
X118009964Y-96344288D01*
X118068186Y-96257153D01*
X118125024Y-96119934D01*
X118154000Y-95974262D01*
X118154000Y-95825738D01*
X118128990Y-95700000D01*
X118614058Y-95700000D01*
X118625797Y-95819189D01*
X118660563Y-95933797D01*
X118717020Y-96039421D01*
X118792999Y-96132001D01*
X118885579Y-96207980D01*
X118991203Y-96264437D01*
X119105811Y-96299203D01*
X119225000Y-96310942D01*
X119406500Y-96308000D01*
X119558500Y-96156000D01*
X119558500Y-95154000D01*
X118769000Y-95154000D01*
X118617000Y-95306000D01*
X118614058Y-95700000D01*
X118128990Y-95700000D01*
X118125024Y-95680066D01*
X118068186Y-95542847D01*
X117985670Y-95419353D01*
X117880647Y-95314330D01*
X117757153Y-95231814D01*
X117619934Y-95174976D01*
X117474262Y-95146000D01*
X117325738Y-95146000D01*
X117180066Y-95174976D01*
X117042847Y-95231814D01*
X116919353Y-95314330D01*
X116814330Y-95419353D01*
X116731814Y-95542847D01*
X116674976Y-95680066D01*
X116646000Y-95825738D01*
X116646000Y-95974262D01*
X116674976Y-96119934D01*
X116731814Y-96257153D01*
X116814330Y-96380647D01*
X116919353Y-96485670D01*
X116921000Y-96486771D01*
X116921001Y-102171127D01*
X116549009Y-102543119D01*
X116528186Y-102492847D01*
X116445670Y-102369353D01*
X116340647Y-102264330D01*
X116217153Y-102181814D01*
X116079934Y-102124976D01*
X115934262Y-102096000D01*
X115785738Y-102096000D01*
X115783794Y-102096387D01*
X112459000Y-98771593D01*
X112459000Y-98358200D01*
X114881000Y-98358200D01*
X114881000Y-98501800D01*
X114909015Y-98642641D01*
X114963969Y-98775311D01*
X115043749Y-98894710D01*
X115145290Y-98996251D01*
X115264689Y-99076031D01*
X115397359Y-99130985D01*
X115538200Y-99159000D01*
X115681800Y-99159000D01*
X115822641Y-99130985D01*
X115955311Y-99076031D01*
X116074710Y-98996251D01*
X116176251Y-98894710D01*
X116256031Y-98775311D01*
X116310985Y-98642641D01*
X116339000Y-98501800D01*
X116339000Y-98358200D01*
X116310985Y-98217359D01*
X116256031Y-98084689D01*
X116176251Y-97965290D01*
X116074710Y-97863749D01*
X115955311Y-97783969D01*
X115822641Y-97729015D01*
X115681800Y-97701000D01*
X115538200Y-97701000D01*
X115397359Y-97729015D01*
X115264689Y-97783969D01*
X115145290Y-97863749D01*
X115043749Y-97965290D01*
X114963969Y-98084689D01*
X114909015Y-98217359D01*
X114881000Y-98358200D01*
X112459000Y-98358200D01*
X112459000Y-97328841D01*
X112542467Y-97453759D01*
X112696241Y-97607533D01*
X112877060Y-97728352D01*
X113077975Y-97811574D01*
X113291265Y-97854000D01*
X113508735Y-97854000D01*
X113722025Y-97811574D01*
X113922940Y-97728352D01*
X114103759Y-97607533D01*
X114257533Y-97453759D01*
X114378352Y-97272940D01*
X114461574Y-97072025D01*
X114504000Y-96858735D01*
X114504000Y-96641265D01*
X114461574Y-96427975D01*
X114378352Y-96227060D01*
X114257533Y-96046241D01*
X114103759Y-95892467D01*
X113922940Y-95771648D01*
X113722025Y-95688426D01*
X113508735Y-95646000D01*
X113291265Y-95646000D01*
X113077975Y-95688426D01*
X112877060Y-95771648D01*
X112696241Y-95892467D01*
X112542467Y-96046241D01*
X112459000Y-96171159D01*
X112459000Y-96126770D01*
X112460647Y-96125670D01*
X112565670Y-96020647D01*
X112648186Y-95897153D01*
X112705024Y-95759934D01*
X112734000Y-95614262D01*
X112734000Y-95465738D01*
X112705024Y-95320066D01*
X112648186Y-95182847D01*
X112565670Y-95059353D01*
X112460647Y-94954330D01*
X112337153Y-94871814D01*
X112199934Y-94814976D01*
X112189113Y-94812824D01*
X112198154Y-94810081D01*
X112301793Y-94754684D01*
X112392634Y-94680134D01*
X112467184Y-94589293D01*
X112503636Y-94521097D01*
X112513297Y-94619189D01*
X112548063Y-94733797D01*
X112604520Y-94839421D01*
X112680499Y-94932001D01*
X112773079Y-95007980D01*
X112878703Y-95064437D01*
X112993311Y-95099203D01*
X113112500Y-95110942D01*
X113294000Y-95108000D01*
X113446000Y-94956000D01*
X113446000Y-93954000D01*
X113754000Y-93954000D01*
X113754000Y-94956000D01*
X113906000Y-95108000D01*
X114087500Y-95110942D01*
X114206689Y-95099203D01*
X114321297Y-95064437D01*
X114426921Y-95007980D01*
X114519501Y-94932001D01*
X114595480Y-94839421D01*
X114651937Y-94733797D01*
X114686703Y-94619189D01*
X114698442Y-94500000D01*
X114695500Y-94106000D01*
X114543500Y-93954000D01*
X113754000Y-93954000D01*
X113446000Y-93954000D01*
X113426000Y-93954000D01*
X113426000Y-93646000D01*
X113446000Y-93646000D01*
X113446000Y-92644000D01*
X113294000Y-92492000D01*
X113112500Y-92489058D01*
X112993311Y-92500797D01*
X112878703Y-92535563D01*
X112773079Y-92592020D01*
X112680499Y-92667999D01*
X112604520Y-92760579D01*
X112548063Y-92866203D01*
X112513297Y-92980811D01*
X112503636Y-93078903D01*
X112467184Y-93010707D01*
X112392634Y-92919866D01*
X112301793Y-92845316D01*
X112198154Y-92789919D01*
X112085699Y-92755806D01*
X111968750Y-92744288D01*
X111481250Y-92744288D01*
X111364301Y-92755806D01*
X111251846Y-92789919D01*
X111148207Y-92845316D01*
X111057366Y-92919866D01*
X110982816Y-93010707D01*
X110962500Y-93048715D01*
X110942184Y-93010707D01*
X110867634Y-92919866D01*
X110776793Y-92845316D01*
X110673154Y-92789919D01*
X110560699Y-92755806D01*
X110443750Y-92744288D01*
X109956250Y-92744288D01*
X109839301Y-92755806D01*
X109726846Y-92789919D01*
X109623207Y-92845316D01*
X109532366Y-92919866D01*
X109457816Y-93010707D01*
X109402419Y-93114346D01*
X109368306Y-93226801D01*
X109356788Y-93343750D01*
X109356788Y-94256250D01*
X109368306Y-94373199D01*
X109402419Y-94485654D01*
X109457816Y-94589293D01*
X109532366Y-94680134D01*
X109623207Y-94754684D01*
X109721001Y-94806957D01*
X109721001Y-94821000D01*
X109588249Y-94821000D01*
X109587149Y-94819353D01*
X109482126Y-94714330D01*
X109358632Y-94631814D01*
X109221413Y-94574976D01*
X109088923Y-94548622D01*
X109122581Y-94485654D01*
X109156694Y-94373199D01*
X109168212Y-94256250D01*
X109168212Y-93343750D01*
X109156694Y-93226801D01*
X109122581Y-93114346D01*
X109067184Y-93010707D01*
X108992634Y-92919866D01*
X108906627Y-92849283D01*
X108968186Y-92757153D01*
X109025024Y-92619934D01*
X109054000Y-92474262D01*
X109054000Y-92325738D01*
X109025024Y-92180066D01*
X108993516Y-92104000D01*
X113849816Y-92104000D01*
X114263997Y-92518181D01*
X114206689Y-92500797D01*
X114087500Y-92489058D01*
X113906000Y-92492000D01*
X113754000Y-92644000D01*
X113754000Y-93646000D01*
X114543500Y-93646000D01*
X114695500Y-93494000D01*
X114698442Y-93100000D01*
X114686703Y-92980811D01*
X114669319Y-92923504D01*
X115276927Y-93531112D01*
X115295841Y-93554159D01*
X115387812Y-93629637D01*
X115492741Y-93685723D01*
X115601396Y-93718683D01*
X115606595Y-93720260D01*
X115724999Y-93731922D01*
X115754666Y-93729000D01*
X119012838Y-93729000D01*
X118991203Y-93735563D01*
X118885579Y-93792020D01*
X118792999Y-93867999D01*
X118717020Y-93960579D01*
X118660563Y-94066203D01*
X118625797Y-94180811D01*
X118614058Y-94300000D01*
X118617000Y-94694000D01*
X118769000Y-94846000D01*
X119558500Y-94846000D01*
X119558500Y-94826000D01*
X119866500Y-94826000D01*
X119866500Y-94846000D01*
X119886500Y-94846000D01*
X119886500Y-95154000D01*
X119866500Y-95154000D01*
X119866500Y-96156000D01*
X120018500Y-96308000D01*
X120200000Y-96310942D01*
X120319189Y-96299203D01*
X120433797Y-96264437D01*
X120539421Y-96207980D01*
X120632001Y-96132001D01*
X120707980Y-96039421D01*
X120764437Y-95933797D01*
X120799203Y-95819189D01*
X120808864Y-95721097D01*
X120845316Y-95789293D01*
X120919866Y-95880134D01*
X121010707Y-95954684D01*
X121068500Y-95985576D01*
X121068500Y-96344288D01*
X121000000Y-96344288D01*
X120930604Y-96351123D01*
X120863875Y-96371365D01*
X120802377Y-96404236D01*
X120748474Y-96448474D01*
X120704236Y-96502377D01*
X120671365Y-96563875D01*
X120651123Y-96630604D01*
X120644288Y-96700000D01*
X120644288Y-98500000D01*
X120651123Y-98569396D01*
X120671365Y-98636125D01*
X120704236Y-98697623D01*
X120748474Y-98751526D01*
X120802377Y-98795764D01*
X120863875Y-98828635D01*
X120930604Y-98848877D01*
X121000000Y-98855712D01*
X122200000Y-98855712D01*
X122269396Y-98848877D01*
X122336125Y-98828635D01*
X122397623Y-98795764D01*
X122451526Y-98751526D01*
X122495764Y-98697623D01*
X122528635Y-98636125D01*
X122548877Y-98569396D01*
X122555712Y-98500000D01*
X122555712Y-96700000D01*
X122548877Y-96630604D01*
X122528635Y-96563875D01*
X122495764Y-96502377D01*
X122451526Y-96448474D01*
X122397623Y-96404236D01*
X122336125Y-96371365D01*
X122269396Y-96351123D01*
X122200000Y-96344288D01*
X122106500Y-96344288D01*
X122106500Y-95985575D01*
X122164293Y-95954684D01*
X122255134Y-95880134D01*
X122329684Y-95789293D01*
X122385081Y-95685654D01*
X122419194Y-95573199D01*
X122430712Y-95456250D01*
X122430712Y-94543750D01*
X122419194Y-94426801D01*
X122385081Y-94314346D01*
X122329684Y-94210707D01*
X122255134Y-94119866D01*
X122164293Y-94045316D01*
X122106500Y-94014425D01*
X122106500Y-93862985D01*
X122109010Y-93837499D01*
X122106500Y-93812013D01*
X122106500Y-93812006D01*
X122098990Y-93735758D01*
X122097827Y-93731922D01*
X122096940Y-93729000D01*
X129012838Y-93729000D01*
X128991203Y-93735563D01*
X128885579Y-93792020D01*
X128792999Y-93867999D01*
X128717020Y-93960579D01*
X128660563Y-94066203D01*
X128625797Y-94180811D01*
X128614058Y-94300000D01*
X128617000Y-94694000D01*
X128769000Y-94846000D01*
X129558500Y-94846000D01*
X129558500Y-94826000D01*
X129866500Y-94826000D01*
X129866500Y-94846000D01*
X129886500Y-94846000D01*
X129886500Y-95154000D01*
X129866500Y-95154000D01*
X129866500Y-96156000D01*
X130018500Y-96308000D01*
X130200000Y-96310942D01*
X130319189Y-96299203D01*
X130433797Y-96264437D01*
X130539421Y-96207980D01*
X130632001Y-96132001D01*
X130707980Y-96039421D01*
X130764437Y-95933797D01*
X130799203Y-95819189D01*
X130808864Y-95721097D01*
X130845316Y-95789293D01*
X130919866Y-95880134D01*
X131010707Y-95954684D01*
X131068500Y-95985576D01*
X131068500Y-96244288D01*
X131000000Y-96244288D01*
X130930604Y-96251123D01*
X130863875Y-96271365D01*
X130802377Y-96304236D01*
X130748474Y-96348474D01*
X130704236Y-96402377D01*
X130671365Y-96463875D01*
X130651123Y-96530604D01*
X130644288Y-96600000D01*
X130644288Y-98400000D01*
X130651123Y-98469396D01*
X130671365Y-98536125D01*
X130704236Y-98597623D01*
X130748474Y-98651526D01*
X130802377Y-98695764D01*
X130863875Y-98728635D01*
X130930604Y-98748877D01*
X131000000Y-98755712D01*
X132200000Y-98755712D01*
X132269396Y-98748877D01*
X132336125Y-98728635D01*
X132397623Y-98695764D01*
X132451526Y-98651526D01*
X132495764Y-98597623D01*
X132528635Y-98536125D01*
X132548877Y-98469396D01*
X132555712Y-98400000D01*
X132555712Y-96600000D01*
X132548877Y-96530604D01*
X132528635Y-96463875D01*
X132495764Y-96402377D01*
X132451526Y-96348474D01*
X132397623Y-96304236D01*
X132336125Y-96271365D01*
X132269396Y-96251123D01*
X132200000Y-96244288D01*
X132106500Y-96244288D01*
X132106500Y-95985575D01*
X132164293Y-95954684D01*
X132255134Y-95880134D01*
X132329684Y-95789293D01*
X132385081Y-95685654D01*
X132419194Y-95573199D01*
X132430712Y-95456250D01*
X132430712Y-94543750D01*
X132419194Y-94426801D01*
X132385081Y-94314346D01*
X132329684Y-94210707D01*
X132255134Y-94119866D01*
X132164293Y-94045316D01*
X132139000Y-94031796D01*
X132139000Y-93729000D01*
X139012838Y-93729000D01*
X138991203Y-93735563D01*
X138885579Y-93792020D01*
X138792999Y-93867999D01*
X138717020Y-93960579D01*
X138660563Y-94066203D01*
X138625797Y-94180811D01*
X138614058Y-94300000D01*
X138617000Y-94694000D01*
X138769000Y-94846000D01*
X139558500Y-94846000D01*
X139558500Y-94826000D01*
X139866500Y-94826000D01*
X139866500Y-94846000D01*
X139886500Y-94846000D01*
X139886500Y-95154000D01*
X139866500Y-95154000D01*
X139866500Y-96156000D01*
X140018500Y-96308000D01*
X140200000Y-96310942D01*
X140319189Y-96299203D01*
X140433797Y-96264437D01*
X140539421Y-96207980D01*
X140632001Y-96132001D01*
X140707980Y-96039421D01*
X140764437Y-95933797D01*
X140799203Y-95819189D01*
X140808864Y-95721097D01*
X140845316Y-95789293D01*
X140919866Y-95880134D01*
X141010707Y-95954684D01*
X141081000Y-95992257D01*
X141081000Y-96244288D01*
X141000000Y-96244288D01*
X140930604Y-96251123D01*
X140863875Y-96271365D01*
X140802377Y-96304236D01*
X140748474Y-96348474D01*
X140704236Y-96402377D01*
X140671365Y-96463875D01*
X140651123Y-96530604D01*
X140644288Y-96600000D01*
X140644288Y-98400000D01*
X140651123Y-98469396D01*
X140671365Y-98536125D01*
X140704236Y-98597623D01*
X140748474Y-98651526D01*
X140802377Y-98695764D01*
X140863875Y-98728635D01*
X140930604Y-98748877D01*
X141000000Y-98755712D01*
X142200000Y-98755712D01*
X142269396Y-98748877D01*
X142336125Y-98728635D01*
X142397623Y-98695764D01*
X142451526Y-98651526D01*
X142495764Y-98597623D01*
X142528635Y-98536125D01*
X142548877Y-98469396D01*
X142555712Y-98400000D01*
X142555712Y-96600000D01*
X142548877Y-96530604D01*
X142528635Y-96463875D01*
X142495764Y-96402377D01*
X142451526Y-96348474D01*
X142397623Y-96304236D01*
X142336125Y-96271365D01*
X142269396Y-96251123D01*
X142200000Y-96244288D01*
X142119000Y-96244288D01*
X142119000Y-95978894D01*
X142164293Y-95954684D01*
X142255134Y-95880134D01*
X142329684Y-95789293D01*
X142377412Y-95700000D01*
X148614058Y-95700000D01*
X148625797Y-95819189D01*
X148660563Y-95933797D01*
X148717020Y-96039421D01*
X148792999Y-96132001D01*
X148885579Y-96207980D01*
X148991203Y-96264437D01*
X149105811Y-96299203D01*
X149225000Y-96310942D01*
X149406500Y-96308000D01*
X149558500Y-96156000D01*
X149558500Y-95154000D01*
X148769000Y-95154000D01*
X148617000Y-95306000D01*
X148614058Y-95700000D01*
X142377412Y-95700000D01*
X142385081Y-95685654D01*
X142419194Y-95573199D01*
X142430712Y-95456250D01*
X142430712Y-94543750D01*
X142419194Y-94426801D01*
X142385081Y-94314346D01*
X142329684Y-94210707D01*
X142255134Y-94119866D01*
X142164293Y-94045316D01*
X142106500Y-94014425D01*
X142106500Y-93972994D01*
X142109011Y-93947500D01*
X142098990Y-93845758D01*
X142075190Y-93767300D01*
X142069313Y-93747926D01*
X142059197Y-93729000D01*
X149012838Y-93729000D01*
X148991203Y-93735563D01*
X148885579Y-93792020D01*
X148792999Y-93867999D01*
X148717020Y-93960579D01*
X148660563Y-94066203D01*
X148625797Y-94180811D01*
X148614058Y-94300000D01*
X148617000Y-94694000D01*
X148769000Y-94846000D01*
X149558500Y-94846000D01*
X149558500Y-94826000D01*
X149866500Y-94826000D01*
X149866500Y-94846000D01*
X149886500Y-94846000D01*
X149886500Y-95154000D01*
X149866500Y-95154000D01*
X149866500Y-96156000D01*
X150018500Y-96308000D01*
X150200000Y-96310942D01*
X150319189Y-96299203D01*
X150433797Y-96264437D01*
X150539421Y-96207980D01*
X150632001Y-96132001D01*
X150707980Y-96039421D01*
X150764437Y-95933797D01*
X150799203Y-95819189D01*
X150808864Y-95721097D01*
X150845316Y-95789293D01*
X150919866Y-95880134D01*
X151010707Y-95954684D01*
X151081000Y-95992257D01*
X151081000Y-96344288D01*
X151000000Y-96344288D01*
X150930604Y-96351123D01*
X150863875Y-96371365D01*
X150802377Y-96404236D01*
X150748474Y-96448474D01*
X150704236Y-96502377D01*
X150671365Y-96563875D01*
X150651123Y-96630604D01*
X150644288Y-96700000D01*
X150644288Y-98500000D01*
X150651123Y-98569396D01*
X150671365Y-98636125D01*
X150704236Y-98697623D01*
X150748474Y-98751526D01*
X150802377Y-98795764D01*
X150863875Y-98828635D01*
X150930604Y-98848877D01*
X151000000Y-98855712D01*
X152200000Y-98855712D01*
X152269396Y-98848877D01*
X152336125Y-98828635D01*
X152397623Y-98795764D01*
X152451526Y-98751526D01*
X152495764Y-98697623D01*
X152528635Y-98636125D01*
X152548877Y-98569396D01*
X152555712Y-98500000D01*
X152555712Y-96700000D01*
X152548877Y-96630604D01*
X152528635Y-96563875D01*
X152495764Y-96502377D01*
X152451526Y-96448474D01*
X152397623Y-96404236D01*
X152336125Y-96371365D01*
X152269396Y-96351123D01*
X152200000Y-96344288D01*
X152119000Y-96344288D01*
X152119000Y-95978894D01*
X152164293Y-95954684D01*
X152255134Y-95880134D01*
X152329684Y-95789293D01*
X152377412Y-95700000D01*
X158614058Y-95700000D01*
X158625797Y-95819189D01*
X158660563Y-95933797D01*
X158717020Y-96039421D01*
X158792999Y-96132001D01*
X158885579Y-96207980D01*
X158991203Y-96264437D01*
X159105811Y-96299203D01*
X159225000Y-96310942D01*
X159406500Y-96308000D01*
X159558500Y-96156000D01*
X159558500Y-95154000D01*
X158769000Y-95154000D01*
X158617000Y-95306000D01*
X158614058Y-95700000D01*
X152377412Y-95700000D01*
X152385081Y-95685654D01*
X152419194Y-95573199D01*
X152430712Y-95456250D01*
X152430712Y-94543750D01*
X152419194Y-94426801D01*
X152385081Y-94314346D01*
X152329684Y-94210707D01*
X152255134Y-94119866D01*
X152164293Y-94045316D01*
X152106500Y-94014425D01*
X152106500Y-93837994D01*
X152109011Y-93812500D01*
X152100787Y-93729000D01*
X159012838Y-93729000D01*
X158991203Y-93735563D01*
X158885579Y-93792020D01*
X158792999Y-93867999D01*
X158717020Y-93960579D01*
X158660563Y-94066203D01*
X158625797Y-94180811D01*
X158614058Y-94300000D01*
X158617000Y-94694000D01*
X158769000Y-94846000D01*
X159558500Y-94846000D01*
X159558500Y-94826000D01*
X159866500Y-94826000D01*
X159866500Y-94846000D01*
X159886500Y-94846000D01*
X159886500Y-95154000D01*
X159866500Y-95154000D01*
X159866500Y-96156000D01*
X160018500Y-96308000D01*
X160200000Y-96310942D01*
X160319189Y-96299203D01*
X160433797Y-96264437D01*
X160539421Y-96207980D01*
X160632001Y-96132001D01*
X160707980Y-96039421D01*
X160764437Y-95933797D01*
X160799203Y-95819189D01*
X160808864Y-95721097D01*
X160845316Y-95789293D01*
X160919866Y-95880134D01*
X161010707Y-95954684D01*
X161068500Y-95985576D01*
X161068500Y-96344288D01*
X161000000Y-96344288D01*
X160930604Y-96351123D01*
X160863875Y-96371365D01*
X160802377Y-96404236D01*
X160748474Y-96448474D01*
X160704236Y-96502377D01*
X160671365Y-96563875D01*
X160651123Y-96630604D01*
X160644288Y-96700000D01*
X160644288Y-98500000D01*
X160651123Y-98569396D01*
X160671365Y-98636125D01*
X160704236Y-98697623D01*
X160748474Y-98751526D01*
X160802377Y-98795764D01*
X160863875Y-98828635D01*
X160930604Y-98848877D01*
X161000000Y-98855712D01*
X162200000Y-98855712D01*
X162269396Y-98848877D01*
X162336125Y-98828635D01*
X162397623Y-98795764D01*
X162451526Y-98751526D01*
X162495764Y-98697623D01*
X162528635Y-98636125D01*
X162548877Y-98569396D01*
X162555712Y-98500000D01*
X162555712Y-96700000D01*
X162548877Y-96630604D01*
X162528635Y-96563875D01*
X162495764Y-96502377D01*
X162451526Y-96448474D01*
X162397623Y-96404236D01*
X162336125Y-96371365D01*
X162269396Y-96351123D01*
X162200000Y-96344288D01*
X162106500Y-96344288D01*
X162106500Y-95985575D01*
X162164293Y-95954684D01*
X162255134Y-95880134D01*
X162329684Y-95789293D01*
X162385081Y-95685654D01*
X162419194Y-95573199D01*
X162430712Y-95456250D01*
X162430712Y-94543750D01*
X162419194Y-94426801D01*
X162385081Y-94314346D01*
X162329684Y-94210707D01*
X162255134Y-94119866D01*
X162191500Y-94067644D01*
X162191500Y-93617167D01*
X162194422Y-93587500D01*
X162182760Y-93469095D01*
X162148223Y-93355241D01*
X162092137Y-93250312D01*
X162066358Y-93218900D01*
X162016659Y-93158341D01*
X161993613Y-93139428D01*
X161573077Y-92718893D01*
X161554159Y-92695841D01*
X161462188Y-92620363D01*
X161357259Y-92564277D01*
X161243405Y-92529740D01*
X161154667Y-92521000D01*
X161125000Y-92518078D01*
X161095333Y-92521000D01*
X115975185Y-92521000D01*
X114548078Y-91093894D01*
X114529159Y-91070841D01*
X114437188Y-90995363D01*
X114332259Y-90939277D01*
X114218405Y-90904740D01*
X114129667Y-90896000D01*
X114100000Y-90893078D01*
X114070333Y-90896000D01*
X107629666Y-90896000D01*
X107599999Y-90893078D01*
X107481595Y-90904740D01*
X107367741Y-90939277D01*
X107262812Y-90995363D01*
X107170841Y-91070841D01*
X107151927Y-91093888D01*
X106593893Y-91651923D01*
X106570841Y-91670841D01*
X106495363Y-91762813D01*
X106439277Y-91867742D01*
X106416391Y-91943187D01*
X106404740Y-91981596D01*
X106393078Y-92100000D01*
X106396000Y-92129667D01*
X106396000Y-95697532D01*
X106266721Y-95651068D01*
X105417789Y-96500000D01*
X106266721Y-97348932D01*
X106396001Y-97302468D01*
X106396001Y-101449814D01*
X105553974Y-102291842D01*
X105323508Y-102246000D01*
X105076492Y-102246000D01*
X104834222Y-102294190D01*
X104606008Y-102388719D01*
X104400621Y-102525954D01*
X104225954Y-102700621D01*
X104088719Y-102906008D01*
X103994190Y-103134222D01*
X103946000Y-103376492D01*
X100454000Y-103376492D01*
X100454000Y-102160964D01*
X101896000Y-102160964D01*
X101896000Y-102339036D01*
X101930740Y-102513687D01*
X101998886Y-102678205D01*
X102097817Y-102826266D01*
X102223734Y-102952183D01*
X102371795Y-103051114D01*
X102536313Y-103119260D01*
X102710964Y-103154000D01*
X102889036Y-103154000D01*
X103063687Y-103119260D01*
X103228205Y-103051114D01*
X103376266Y-102952183D01*
X103502183Y-102826266D01*
X103601114Y-102678205D01*
X103669260Y-102513687D01*
X103704000Y-102339036D01*
X103704000Y-102160964D01*
X103669260Y-101986313D01*
X103601114Y-101821795D01*
X103502183Y-101673734D01*
X103376266Y-101547817D01*
X103228205Y-101448886D01*
X103063687Y-101380740D01*
X102889036Y-101346000D01*
X102710964Y-101346000D01*
X102536313Y-101380740D01*
X102371795Y-101448886D01*
X102223734Y-101547817D01*
X102097817Y-101673734D01*
X101998886Y-101821795D01*
X101930740Y-101986313D01*
X101896000Y-102160964D01*
X100454000Y-102160964D01*
X100454000Y-98886341D01*
X104046000Y-98886341D01*
X104046000Y-99113659D01*
X104090347Y-99336609D01*
X104177338Y-99546624D01*
X104303629Y-99735632D01*
X104464368Y-99896371D01*
X104619460Y-100000000D01*
X104464368Y-100103629D01*
X104303629Y-100264368D01*
X104177338Y-100453376D01*
X104090347Y-100663391D01*
X104046000Y-100886341D01*
X104046000Y-101113659D01*
X104090347Y-101336609D01*
X104177338Y-101546624D01*
X104303629Y-101735632D01*
X104464368Y-101896371D01*
X104653376Y-102022662D01*
X104863391Y-102109653D01*
X105086341Y-102154000D01*
X105313659Y-102154000D01*
X105536609Y-102109653D01*
X105746624Y-102022662D01*
X105935632Y-101896371D01*
X106096371Y-101735632D01*
X106222662Y-101546624D01*
X106309653Y-101336609D01*
X106354000Y-101113659D01*
X106354000Y-100886341D01*
X106309653Y-100663391D01*
X106222662Y-100453376D01*
X106096371Y-100264368D01*
X105935632Y-100103629D01*
X105780540Y-100000000D01*
X105935632Y-99896371D01*
X106096371Y-99735632D01*
X106222662Y-99546624D01*
X106309653Y-99336609D01*
X106354000Y-99113659D01*
X106354000Y-98886341D01*
X106309653Y-98663391D01*
X106222662Y-98453376D01*
X106096371Y-98264368D01*
X105935632Y-98103629D01*
X105746624Y-97977338D01*
X105655497Y-97939592D01*
X105866237Y-97860976D01*
X105961469Y-97810072D01*
X106048932Y-97566721D01*
X105200000Y-96717789D01*
X104351068Y-97566721D01*
X104438531Y-97810072D01*
X104708745Y-97933455D01*
X104740951Y-97941063D01*
X104653376Y-97977338D01*
X104464368Y-98103629D01*
X104303629Y-98264368D01*
X104177338Y-98453376D01*
X104090347Y-98663391D01*
X104046000Y-98886341D01*
X100454000Y-98886341D01*
X100454000Y-97660964D01*
X101896000Y-97660964D01*
X101896000Y-97839036D01*
X101930740Y-98013687D01*
X101998886Y-98178205D01*
X102097817Y-98326266D01*
X102223734Y-98452183D01*
X102371795Y-98551114D01*
X102536313Y-98619260D01*
X102710964Y-98654000D01*
X102889036Y-98654000D01*
X103063687Y-98619260D01*
X103228205Y-98551114D01*
X103376266Y-98452183D01*
X103502183Y-98326266D01*
X103601114Y-98178205D01*
X103669260Y-98013687D01*
X103704000Y-97839036D01*
X103704000Y-97660964D01*
X103669260Y-97486313D01*
X103601114Y-97321795D01*
X103502183Y-97173734D01*
X103376266Y-97047817D01*
X103228205Y-96948886D01*
X103063687Y-96880740D01*
X102889036Y-96846000D01*
X102710964Y-96846000D01*
X102536313Y-96880740D01*
X102371795Y-96948886D01*
X102223734Y-97047817D01*
X102097817Y-97173734D01*
X101998886Y-97321795D01*
X101930740Y-97486313D01*
X101896000Y-97660964D01*
X100454000Y-97660964D01*
X100454000Y-94304002D01*
X100602458Y-94304002D01*
X100492809Y-94544635D01*
X100501662Y-94603943D01*
X100619012Y-94887532D01*
X100789433Y-95142778D01*
X101006375Y-95359872D01*
X101261501Y-95530471D01*
X101545008Y-95648020D01*
X101846000Y-95708000D01*
X102646000Y-95708000D01*
X102646000Y-94304000D01*
X102954000Y-94304000D01*
X102954000Y-95708000D01*
X103754000Y-95708000D01*
X104054992Y-95648020D01*
X104108177Y-95625968D01*
X104133278Y-95651069D01*
X103889928Y-95738531D01*
X103766545Y-96008745D01*
X103698249Y-96297837D01*
X103687665Y-96594699D01*
X103735199Y-96887922D01*
X103839024Y-97166237D01*
X103889928Y-97261469D01*
X104133279Y-97348932D01*
X104982211Y-96500000D01*
X104968069Y-96485858D01*
X105185858Y-96268069D01*
X105200000Y-96282211D01*
X106048932Y-95433279D01*
X105961469Y-95189928D01*
X105691255Y-95066545D01*
X105402163Y-94998249D01*
X105105301Y-94987665D01*
X104890929Y-95022417D01*
X104980988Y-94887532D01*
X105098338Y-94603943D01*
X105107191Y-94544635D01*
X104997541Y-94304000D01*
X102954000Y-94304000D01*
X102646000Y-94304000D01*
X102626000Y-94304000D01*
X102626000Y-93996000D01*
X102646000Y-93996000D01*
X102646000Y-93976000D01*
X102954000Y-93976000D01*
X102954000Y-93996000D01*
X104997541Y-93996000D01*
X105107191Y-93755365D01*
X105098338Y-93696057D01*
X104980988Y-93412468D01*
X104810567Y-93157222D01*
X104593625Y-92940128D01*
X104338499Y-92769529D01*
X104054992Y-92651980D01*
X103754000Y-92592000D01*
X101846000Y-92592000D01*
X101545008Y-92651980D01*
X101261501Y-92769529D01*
X101006375Y-92940128D01*
X100789433Y-93157222D01*
X100619012Y-93412468D01*
X100501662Y-93696057D01*
X100492809Y-93755365D01*
X100602458Y-93995998D01*
X100454000Y-93995998D01*
X100454000Y-89209188D01*
X165546000Y-89948870D01*
X165546000Y-89948870D01*
G37*
X165546000Y-89948870D02*
X165546001Y-110051130D01*
X100454000Y-110790812D01*
X100454000Y-109625738D01*
X107946000Y-109625738D01*
X107946000Y-109774262D01*
X107974976Y-109919934D01*
X108031814Y-110057153D01*
X108114330Y-110180647D01*
X108219353Y-110285670D01*
X108342847Y-110368186D01*
X108480066Y-110425024D01*
X108625738Y-110454000D01*
X108774262Y-110454000D01*
X108919934Y-110425024D01*
X109057153Y-110368186D01*
X109153214Y-110304000D01*
X109770333Y-110304000D01*
X109800000Y-110306922D01*
X109829667Y-110304000D01*
X109918405Y-110295260D01*
X110032259Y-110260723D01*
X110137188Y-110204637D01*
X110229159Y-110129159D01*
X110248078Y-110106106D01*
X110356107Y-109998077D01*
X110379159Y-109979159D01*
X110454637Y-109887188D01*
X110510723Y-109782259D01*
X110545260Y-109668405D01*
X110554000Y-109579667D01*
X110554000Y-109579666D01*
X110556922Y-109550001D01*
X110554000Y-109520334D01*
X110554000Y-108507356D01*
X110617634Y-108455134D01*
X110692184Y-108364293D01*
X110747581Y-108260654D01*
X110781694Y-108148199D01*
X110793212Y-108031250D01*
X110793212Y-107118750D01*
X110781694Y-107001801D01*
X110747581Y-106889346D01*
X110692184Y-106785707D01*
X110617634Y-106694866D01*
X110526793Y-106620316D01*
X110423154Y-106564919D01*
X110310699Y-106530806D01*
X110193750Y-106519288D01*
X109706250Y-106519288D01*
X109589301Y-106530806D01*
X109476846Y-106564919D01*
X109373207Y-106620316D01*
X109282366Y-106694866D01*
X109207816Y-106785707D01*
X109152419Y-106889346D01*
X109118306Y-107001801D01*
X109106788Y-107118750D01*
X109106788Y-108031250D01*
X109118306Y-108148199D01*
X109152419Y-108260654D01*
X109207816Y-108364293D01*
X109282366Y-108455134D01*
X109346001Y-108507357D01*
X109346000Y-109096000D01*
X109153214Y-109096000D01*
X109057153Y-109031814D01*
X108919934Y-108974976D01*
X108774262Y-108946000D01*
X108625738Y-108946000D01*
X108480066Y-108974976D01*
X108342847Y-109031814D01*
X108219353Y-109114330D01*
X108114330Y-109219353D01*
X108031814Y-109342847D01*
X107974976Y-109480066D01*
X107946000Y-109625738D01*
X100454000Y-109625738D01*
X100454000Y-106004002D01*
X100602458Y-106004002D01*
X100492809Y-106244635D01*
X100501662Y-106303943D01*
X100619012Y-106587532D01*
X100789433Y-106842778D01*
X101006375Y-107059872D01*
X101261501Y-107230471D01*
X101545008Y-107348020D01*
X101846000Y-107408000D01*
X102646000Y-107408000D01*
X102646000Y-106004000D01*
X102954000Y-106004000D01*
X102954000Y-107408000D01*
X103754000Y-107408000D01*
X104054992Y-107348020D01*
X104338499Y-107230471D01*
X104593625Y-107059872D01*
X104810567Y-106842778D01*
X104980988Y-106587532D01*
X105098338Y-106303943D01*
X105107191Y-106244635D01*
X104997541Y-106004000D01*
X102954000Y-106004000D01*
X102646000Y-106004000D01*
X102626000Y-106004000D01*
X102626000Y-105696000D01*
X102646000Y-105696000D01*
X102646000Y-105676000D01*
X102954000Y-105676000D01*
X102954000Y-105696000D01*
X104997541Y-105696000D01*
X105107191Y-105455365D01*
X105098338Y-105396057D01*
X104980988Y-105112468D01*
X104810567Y-104857222D01*
X104593625Y-104640128D01*
X104338499Y-104469529D01*
X104054992Y-104351980D01*
X103754000Y-104292000D01*
X101846000Y-104292000D01*
X101545008Y-104351980D01*
X101261501Y-104469529D01*
X101006375Y-104640128D01*
X100789433Y-104857222D01*
X100619012Y-105112468D01*
X100501662Y-105396057D01*
X100492809Y-105455365D01*
X100602458Y-105695998D01*
X100454000Y-105695998D01*
X100454000Y-103376492D01*
X103946000Y-103376492D01*
X103946000Y-103623508D01*
X103994190Y-103865778D01*
X104088719Y-104093992D01*
X104225954Y-104299379D01*
X104400621Y-104474046D01*
X104606008Y-104611281D01*
X104834222Y-104705810D01*
X105076492Y-104754000D01*
X105323508Y-104754000D01*
X105565778Y-104705810D01*
X105793992Y-104611281D01*
X105999379Y-104474046D01*
X106174046Y-104299379D01*
X106234188Y-104209369D01*
X108158420Y-104209369D01*
X108227638Y-104437427D01*
X108472213Y-104545782D01*
X108733227Y-104604341D01*
X109000650Y-104610853D01*
X109264205Y-104565069D01*
X109513764Y-104468747D01*
X109572362Y-104437427D01*
X109641580Y-104209369D01*
X108900000Y-103467789D01*
X108158420Y-104209369D01*
X106234188Y-104209369D01*
X106311281Y-104093992D01*
X106405810Y-103865778D01*
X106454000Y-103623508D01*
X106454000Y-103376492D01*
X106448860Y-103350650D01*
X107539147Y-103350650D01*
X107584931Y-103614205D01*
X107681253Y-103863764D01*
X107712573Y-103922362D01*
X107940631Y-103991580D01*
X108682211Y-103250000D01*
X109117789Y-103250000D01*
X109859369Y-103991580D01*
X110087427Y-103922362D01*
X110195782Y-103677787D01*
X110254341Y-103416773D01*
X110260853Y-103149350D01*
X110215069Y-102885795D01*
X110118747Y-102636236D01*
X110087427Y-102577638D01*
X109859369Y-102508420D01*
X109117789Y-103250000D01*
X108682211Y-103250000D01*
X107940631Y-102508420D01*
X107712573Y-102577638D01*
X107604218Y-102822213D01*
X107545659Y-103083227D01*
X107539147Y-103350650D01*
X106448860Y-103350650D01*
X106408158Y-103146026D01*
X107263553Y-102290631D01*
X108158420Y-102290631D01*
X108900000Y-103032211D01*
X109641580Y-102290631D01*
X109572362Y-102062573D01*
X109327787Y-101954218D01*
X109066773Y-101895659D01*
X108799350Y-101889147D01*
X108535795Y-101934931D01*
X108286236Y-102031253D01*
X108227638Y-102062573D01*
X108158420Y-102290631D01*
X107263553Y-102290631D01*
X107406112Y-102148073D01*
X107429159Y-102129159D01*
X107504637Y-102037188D01*
X107560723Y-101932259D01*
X107595260Y-101818405D01*
X107604000Y-101729667D01*
X107604000Y-101729665D01*
X107606922Y-101700001D01*
X107604000Y-101670336D01*
X107604000Y-97709369D01*
X108158420Y-97709369D01*
X108227638Y-97937427D01*
X108472213Y-98045782D01*
X108733227Y-98104341D01*
X109000650Y-98110853D01*
X109264205Y-98065069D01*
X109513764Y-97968747D01*
X109572362Y-97937427D01*
X109641580Y-97709369D01*
X108900000Y-96967789D01*
X108158420Y-97709369D01*
X107604000Y-97709369D01*
X107604000Y-97163611D01*
X107681253Y-97363764D01*
X107712573Y-97422362D01*
X107940631Y-97491580D01*
X108682211Y-96750000D01*
X109117789Y-96750000D01*
X109859369Y-97491580D01*
X110087427Y-97422362D01*
X110195782Y-97177787D01*
X110254341Y-96916773D01*
X110260853Y-96649350D01*
X110215069Y-96385795D01*
X110118747Y-96136236D01*
X110087427Y-96077638D01*
X109859369Y-96008420D01*
X109117789Y-96750000D01*
X108682211Y-96750000D01*
X107940631Y-96008420D01*
X107712573Y-96077638D01*
X107604218Y-96322213D01*
X107604000Y-96323185D01*
X107604000Y-94615106D01*
X107657366Y-94680134D01*
X107748207Y-94754684D01*
X107851846Y-94810081D01*
X107964301Y-94844194D01*
X108081250Y-94855712D01*
X108391515Y-94855712D01*
X108333293Y-94942847D01*
X108276455Y-95080066D01*
X108247479Y-95225738D01*
X108247479Y-95374262D01*
X108276455Y-95519934D01*
X108282067Y-95533482D01*
X108227638Y-95562573D01*
X108158420Y-95790631D01*
X108900000Y-96532211D01*
X109641580Y-95790631D01*
X109638050Y-95779000D01*
X110001593Y-95779000D01*
X110821001Y-96598409D01*
X110821000Y-99410792D01*
X110818683Y-99434315D01*
X110821000Y-99457838D01*
X110821000Y-99457840D01*
X110827931Y-99528214D01*
X110855321Y-99618506D01*
X110899800Y-99701720D01*
X110959657Y-99774658D01*
X110977940Y-99789662D01*
X112411646Y-101223369D01*
X112331814Y-101342847D01*
X112274976Y-101480066D01*
X112246000Y-101625738D01*
X112246000Y-101774262D01*
X112274976Y-101919934D01*
X112331814Y-102057153D01*
X112414330Y-102180647D01*
X112519353Y-102285670D01*
X112642847Y-102368186D01*
X112698241Y-102391131D01*
X112696241Y-102392467D01*
X112542467Y-102546241D01*
X112421648Y-102727060D01*
X112338426Y-102927975D01*
X112296000Y-103141265D01*
X112296000Y-103358735D01*
X112338426Y-103572025D01*
X112421648Y-103772940D01*
X112542467Y-103953759D01*
X112696241Y-104107533D01*
X112877060Y-104228352D01*
X112921000Y-104246553D01*
X112921001Y-106581406D01*
X112848207Y-106620316D01*
X112757366Y-106694866D01*
X112682816Y-106785707D01*
X112627419Y-106889346D01*
X112625000Y-106897320D01*
X112622581Y-106889346D01*
X112567184Y-106785707D01*
X112492634Y-106694866D01*
X112401793Y-106620316D01*
X112298154Y-106564919D01*
X112185699Y-106530806D01*
X112068750Y-106519288D01*
X111581250Y-106519288D01*
X111464301Y-106530806D01*
X111351846Y-106564919D01*
X111248207Y-106620316D01*
X111157366Y-106694866D01*
X111082816Y-106785707D01*
X111027419Y-106889346D01*
X110993306Y-107001801D01*
X110981788Y-107118750D01*
X110981788Y-108031250D01*
X110993306Y-108148199D01*
X111027419Y-108260654D01*
X111082816Y-108364293D01*
X111157366Y-108455134D01*
X111248207Y-108529684D01*
X111351846Y-108585081D01*
X111464301Y-108619194D01*
X111581250Y-108630712D01*
X112068750Y-108630712D01*
X112185699Y-108619194D01*
X112298154Y-108585081D01*
X112401793Y-108529684D01*
X112492634Y-108455134D01*
X112567184Y-108364293D01*
X112622581Y-108260654D01*
X112625000Y-108252680D01*
X112627419Y-108260654D01*
X112682816Y-108364293D01*
X112757366Y-108455134D01*
X112848207Y-108529684D01*
X112951846Y-108585081D01*
X113064301Y-108619194D01*
X113181250Y-108630712D01*
X113668750Y-108630712D01*
X113785699Y-108619194D01*
X113898154Y-108585081D01*
X114001793Y-108529684D01*
X114092634Y-108455134D01*
X114167184Y-108364293D01*
X114203636Y-108296097D01*
X114213297Y-108394189D01*
X114248063Y-108508797D01*
X114304520Y-108614421D01*
X114380499Y-108707001D01*
X114473079Y-108782980D01*
X114578703Y-108839437D01*
X114693311Y-108874203D01*
X114812500Y-108885942D01*
X114994000Y-108883000D01*
X115146000Y-108731000D01*
X115146000Y-107729000D01*
X115126000Y-107729000D01*
X115126000Y-107421000D01*
X115146000Y-107421000D01*
X115146000Y-106419000D01*
X115454000Y-106419000D01*
X115454000Y-107421000D01*
X115474000Y-107421000D01*
X115474000Y-107729000D01*
X115454000Y-107729000D01*
X115454000Y-108731000D01*
X115606000Y-108883000D01*
X115787500Y-108885942D01*
X115906689Y-108874203D01*
X116021297Y-108839437D01*
X116126921Y-108782980D01*
X116219501Y-108707001D01*
X116295480Y-108614421D01*
X116351937Y-108508797D01*
X116382895Y-108406741D01*
X116421973Y-108445819D01*
X116537888Y-108329903D01*
X116576462Y-108532589D01*
X116778215Y-108615847D01*
X116992335Y-108658144D01*
X117210592Y-108657855D01*
X117424598Y-108614993D01*
X117623538Y-108532589D01*
X117662112Y-108329901D01*
X117100000Y-107767789D01*
X117085858Y-107781931D01*
X116868069Y-107564142D01*
X116882211Y-107550000D01*
X117317789Y-107550000D01*
X117879901Y-108112112D01*
X118082589Y-108073538D01*
X118165847Y-107871785D01*
X118208144Y-107657665D01*
X118207855Y-107439408D01*
X118164993Y-107225402D01*
X118082589Y-107026462D01*
X117879901Y-106987888D01*
X117317789Y-107550000D01*
X116882211Y-107550000D01*
X116868069Y-107535858D01*
X117085858Y-107318069D01*
X117100000Y-107332211D01*
X117662112Y-106770099D01*
X117623538Y-106567411D01*
X117421785Y-106484153D01*
X117207665Y-106441856D01*
X116989408Y-106442145D01*
X116775402Y-106485007D01*
X116576462Y-106567411D01*
X116537888Y-106770097D01*
X116421973Y-106654181D01*
X116371258Y-106704896D01*
X116351937Y-106641203D01*
X116295480Y-106535579D01*
X116219501Y-106442999D01*
X116126921Y-106367020D01*
X116021297Y-106310563D01*
X115906689Y-106275797D01*
X115787500Y-106264058D01*
X115606000Y-106267000D01*
X115454000Y-106419000D01*
X115146000Y-106419000D01*
X114994000Y-106267000D01*
X114812500Y-106264058D01*
X114693311Y-106275797D01*
X114578703Y-106310563D01*
X114473079Y-106367020D01*
X114380499Y-106442999D01*
X114304520Y-106535579D01*
X114248063Y-106641203D01*
X114213297Y-106755811D01*
X114203636Y-106853903D01*
X114167184Y-106785707D01*
X114092634Y-106694866D01*
X114001793Y-106620316D01*
X113898154Y-106564919D01*
X113879000Y-106559109D01*
X113879000Y-104246553D01*
X113922940Y-104228352D01*
X114103759Y-104107533D01*
X114257533Y-103953759D01*
X114378352Y-103772940D01*
X114461574Y-103572025D01*
X114504000Y-103358735D01*
X114504000Y-103141265D01*
X114461574Y-102927975D01*
X114378352Y-102727060D01*
X114257533Y-102546241D01*
X114103759Y-102392467D01*
X113922940Y-102271648D01*
X113722025Y-102188426D01*
X113597079Y-102163573D01*
X113668186Y-102057153D01*
X113725024Y-101919934D01*
X113754000Y-101774262D01*
X113754000Y-101625738D01*
X113725024Y-101480066D01*
X113668186Y-101342847D01*
X113653580Y-101320987D01*
X115106387Y-102773794D01*
X115106000Y-102775738D01*
X115106000Y-102924262D01*
X115134976Y-103069934D01*
X115191814Y-103207153D01*
X115274330Y-103330647D01*
X115325898Y-103382215D01*
X115253236Y-103490961D01*
X115196398Y-103628180D01*
X115167422Y-103773852D01*
X115167422Y-103922376D01*
X115196398Y-104068048D01*
X115253236Y-104205267D01*
X115335752Y-104328761D01*
X115440775Y-104433784D01*
X115564269Y-104516300D01*
X115701488Y-104573138D01*
X115847160Y-104602114D01*
X115995684Y-104602114D01*
X116141356Y-104573138D01*
X116278575Y-104516300D01*
X116402069Y-104433784D01*
X116449965Y-104385888D01*
X119546000Y-104385888D01*
X119546000Y-104554112D01*
X119578819Y-104719103D01*
X119643195Y-104874521D01*
X119736655Y-105014393D01*
X119855607Y-105133345D01*
X119995479Y-105226805D01*
X120150897Y-105291181D01*
X120315888Y-105324000D01*
X120484112Y-105324000D01*
X120649103Y-105291181D01*
X120804521Y-105226805D01*
X120944393Y-105133345D01*
X121063345Y-105014393D01*
X121156805Y-104874521D01*
X121221181Y-104719103D01*
X121254000Y-104554112D01*
X121254000Y-104385888D01*
X121221181Y-104220897D01*
X121156805Y-104065479D01*
X121063345Y-103925607D01*
X120944393Y-103806655D01*
X120804521Y-103713195D01*
X120649103Y-103648819D01*
X120484112Y-103616000D01*
X120315888Y-103616000D01*
X120150897Y-103648819D01*
X119995479Y-103713195D01*
X119855607Y-103806655D01*
X119736655Y-103925607D01*
X119643195Y-104065479D01*
X119578819Y-104220897D01*
X119546000Y-104385888D01*
X116449965Y-104385888D01*
X116507092Y-104328761D01*
X116589608Y-104205267D01*
X116646446Y-104068048D01*
X116675422Y-103922376D01*
X116675422Y-103773852D01*
X116675035Y-103771908D01*
X117189268Y-103257676D01*
X117189058Y-103300000D01*
X117200797Y-103419189D01*
X117235563Y-103533797D01*
X117292020Y-103639421D01*
X117367999Y-103732001D01*
X117460579Y-103807980D01*
X117566203Y-103864437D01*
X117680811Y-103899203D01*
X117800000Y-103910942D01*
X118094000Y-103908000D01*
X118246000Y-103756000D01*
X118246000Y-102554000D01*
X118554000Y-102554000D01*
X118554000Y-103756000D01*
X118706000Y-103908000D01*
X119000000Y-103910942D01*
X119119189Y-103899203D01*
X119233797Y-103864437D01*
X119339421Y-103807980D01*
X119432001Y-103732001D01*
X119507980Y-103639421D01*
X119564437Y-103533797D01*
X119599203Y-103419189D01*
X119610942Y-103300000D01*
X119608000Y-102706000D01*
X119456000Y-102554000D01*
X118554000Y-102554000D01*
X118246000Y-102554000D01*
X118226000Y-102554000D01*
X118226000Y-102246000D01*
X118246000Y-102246000D01*
X118246000Y-101044000D01*
X118554000Y-101044000D01*
X118554000Y-102246000D01*
X119456000Y-102246000D01*
X119608000Y-102094000D01*
X119610942Y-101500000D01*
X120644288Y-101500000D01*
X120644288Y-103300000D01*
X120651123Y-103369396D01*
X120671365Y-103436125D01*
X120704236Y-103497623D01*
X120748474Y-103551526D01*
X120802377Y-103595764D01*
X120863875Y-103628635D01*
X120930604Y-103648877D01*
X121000000Y-103655712D01*
X122200000Y-103655712D01*
X122269396Y-103648877D01*
X122336125Y-103628635D01*
X122397623Y-103595764D01*
X122451526Y-103551526D01*
X122495764Y-103497623D01*
X122528635Y-103436125D01*
X122548877Y-103369396D01*
X122555712Y-103300000D01*
X122555712Y-103200000D01*
X127189058Y-103200000D01*
X127200797Y-103319189D01*
X127235563Y-103433797D01*
X127292020Y-103539421D01*
X127367999Y-103632001D01*
X127460579Y-103707980D01*
X127566203Y-103764437D01*
X127680811Y-103799203D01*
X127800000Y-103810942D01*
X128094000Y-103808000D01*
X128246000Y-103656000D01*
X128246000Y-102454000D01*
X128554000Y-102454000D01*
X128554000Y-103656000D01*
X128706000Y-103808000D01*
X129000000Y-103810942D01*
X129119189Y-103799203D01*
X129233797Y-103764437D01*
X129339421Y-103707980D01*
X129432001Y-103632001D01*
X129507980Y-103539421D01*
X129564437Y-103433797D01*
X129599203Y-103319189D01*
X129610942Y-103200000D01*
X129608000Y-102606000D01*
X129456000Y-102454000D01*
X128554000Y-102454000D01*
X128246000Y-102454000D01*
X127344000Y-102454000D01*
X127192000Y-102606000D01*
X127189058Y-103200000D01*
X122555712Y-103200000D01*
X122555712Y-102679000D01*
X125326477Y-102679000D01*
X125350000Y-102681317D01*
X125373523Y-102679000D01*
X125373526Y-102679000D01*
X125443900Y-102672069D01*
X125534192Y-102644679D01*
X125617405Y-102600200D01*
X125690343Y-102540343D01*
X125705347Y-102522060D01*
X126447065Y-101780343D01*
X126465343Y-101765343D01*
X126501733Y-101721000D01*
X126525200Y-101692406D01*
X126569679Y-101609192D01*
X126572467Y-101600000D01*
X126597069Y-101518900D01*
X126601765Y-101471222D01*
X126606318Y-101425000D01*
X126604000Y-101401469D01*
X126604000Y-101400000D01*
X127189058Y-101400000D01*
X127192000Y-101994000D01*
X127344000Y-102146000D01*
X128246000Y-102146000D01*
X128246000Y-100944000D01*
X128554000Y-100944000D01*
X128554000Y-102146000D01*
X129456000Y-102146000D01*
X129608000Y-101994000D01*
X129610942Y-101400000D01*
X130644288Y-101400000D01*
X130644288Y-103200000D01*
X130651123Y-103269396D01*
X130671365Y-103336125D01*
X130704236Y-103397623D01*
X130748474Y-103451526D01*
X130802377Y-103495764D01*
X130863875Y-103528635D01*
X130930604Y-103548877D01*
X131000000Y-103555712D01*
X132200000Y-103555712D01*
X132269396Y-103548877D01*
X132336125Y-103528635D01*
X132397623Y-103495764D01*
X132451526Y-103451526D01*
X132495764Y-103397623D01*
X132528635Y-103336125D01*
X132548877Y-103269396D01*
X132555712Y-103200000D01*
X137189058Y-103200000D01*
X137200797Y-103319189D01*
X137235563Y-103433797D01*
X137292020Y-103539421D01*
X137367999Y-103632001D01*
X137460579Y-103707980D01*
X137566203Y-103764437D01*
X137680811Y-103799203D01*
X137800000Y-103810942D01*
X138094000Y-103808000D01*
X138246000Y-103656000D01*
X138246000Y-102454000D01*
X138554000Y-102454000D01*
X138554000Y-103656000D01*
X138706000Y-103808000D01*
X139000000Y-103810942D01*
X139119189Y-103799203D01*
X139233797Y-103764437D01*
X139339421Y-103707980D01*
X139432001Y-103632001D01*
X139507980Y-103539421D01*
X139564437Y-103433797D01*
X139599203Y-103319189D01*
X139610942Y-103200000D01*
X139608000Y-102606000D01*
X139456000Y-102454000D01*
X138554000Y-102454000D01*
X138246000Y-102454000D01*
X137344000Y-102454000D01*
X137192000Y-102606000D01*
X137189058Y-103200000D01*
X132555712Y-103200000D01*
X132555712Y-102579000D01*
X135576477Y-102579000D01*
X135600000Y-102581317D01*
X135623523Y-102579000D01*
X135623526Y-102579000D01*
X135693900Y-102572069D01*
X135784192Y-102544679D01*
X135867405Y-102500200D01*
X135940343Y-102440343D01*
X135955347Y-102422060D01*
X136422065Y-101955343D01*
X136440343Y-101940343D01*
X136477013Y-101895659D01*
X136500200Y-101867406D01*
X136544679Y-101784192D01*
X136550397Y-101765343D01*
X136572069Y-101693900D01*
X136579000Y-101623526D01*
X136579000Y-101623523D01*
X136581317Y-101600000D01*
X136579000Y-101576477D01*
X136579000Y-101400000D01*
X137189058Y-101400000D01*
X137192000Y-101994000D01*
X137344000Y-102146000D01*
X138246000Y-102146000D01*
X138246000Y-100944000D01*
X138554000Y-100944000D01*
X138554000Y-102146000D01*
X139456000Y-102146000D01*
X139608000Y-101994000D01*
X139610942Y-101400000D01*
X140644288Y-101400000D01*
X140644288Y-103200000D01*
X140651123Y-103269396D01*
X140671365Y-103336125D01*
X140704236Y-103397623D01*
X140748474Y-103451526D01*
X140802377Y-103495764D01*
X140863875Y-103528635D01*
X140930604Y-103548877D01*
X141000000Y-103555712D01*
X142200000Y-103555712D01*
X142269396Y-103548877D01*
X142336125Y-103528635D01*
X142397623Y-103495764D01*
X142451526Y-103451526D01*
X142495764Y-103397623D01*
X142528635Y-103336125D01*
X142539593Y-103300000D01*
X147189058Y-103300000D01*
X147200797Y-103419189D01*
X147235563Y-103533797D01*
X147292020Y-103639421D01*
X147367999Y-103732001D01*
X147460579Y-103807980D01*
X147566203Y-103864437D01*
X147680811Y-103899203D01*
X147800000Y-103910942D01*
X148094000Y-103908000D01*
X148246000Y-103756000D01*
X148246000Y-102554000D01*
X148554000Y-102554000D01*
X148554000Y-103756000D01*
X148706000Y-103908000D01*
X149000000Y-103910942D01*
X149119189Y-103899203D01*
X149233797Y-103864437D01*
X149339421Y-103807980D01*
X149432001Y-103732001D01*
X149507980Y-103639421D01*
X149564437Y-103533797D01*
X149599203Y-103419189D01*
X149610942Y-103300000D01*
X149608000Y-102706000D01*
X149456000Y-102554000D01*
X148554000Y-102554000D01*
X148246000Y-102554000D01*
X147344000Y-102554000D01*
X147192000Y-102706000D01*
X147189058Y-103300000D01*
X142539593Y-103300000D01*
X142548877Y-103269396D01*
X142555712Y-103200000D01*
X142555712Y-102579000D01*
X145326477Y-102579000D01*
X145350000Y-102581317D01*
X145373523Y-102579000D01*
X145373526Y-102579000D01*
X145443900Y-102572069D01*
X145534192Y-102544679D01*
X145617405Y-102500200D01*
X145690343Y-102440343D01*
X145705347Y-102422060D01*
X146622065Y-101505343D01*
X146628575Y-101500000D01*
X147189058Y-101500000D01*
X147192000Y-102094000D01*
X147344000Y-102246000D01*
X148246000Y-102246000D01*
X148246000Y-101044000D01*
X148554000Y-101044000D01*
X148554000Y-102246000D01*
X149456000Y-102246000D01*
X149608000Y-102094000D01*
X149610942Y-101500000D01*
X150644288Y-101500000D01*
X150644288Y-103300000D01*
X150651123Y-103369396D01*
X150671365Y-103436125D01*
X150704236Y-103497623D01*
X150748474Y-103551526D01*
X150802377Y-103595764D01*
X150863875Y-103628635D01*
X150930604Y-103648877D01*
X151000000Y-103655712D01*
X152200000Y-103655712D01*
X152269396Y-103648877D01*
X152336125Y-103628635D01*
X152397623Y-103595764D01*
X152451526Y-103551526D01*
X152495764Y-103497623D01*
X152528635Y-103436125D01*
X152548877Y-103369396D01*
X152555712Y-103300000D01*
X157189058Y-103300000D01*
X157200797Y-103419189D01*
X157235563Y-103533797D01*
X157292020Y-103639421D01*
X157367999Y-103732001D01*
X157460579Y-103807980D01*
X157566203Y-103864437D01*
X157680811Y-103899203D01*
X157800000Y-103910942D01*
X158094000Y-103908000D01*
X158246000Y-103756000D01*
X158246000Y-102554000D01*
X158554000Y-102554000D01*
X158554000Y-103756000D01*
X158706000Y-103908000D01*
X159000000Y-103910942D01*
X159119189Y-103899203D01*
X159233797Y-103864437D01*
X159339421Y-103807980D01*
X159432001Y-103732001D01*
X159507980Y-103639421D01*
X159564437Y-103533797D01*
X159599203Y-103419189D01*
X159610942Y-103300000D01*
X159608000Y-102706000D01*
X159456000Y-102554000D01*
X158554000Y-102554000D01*
X158246000Y-102554000D01*
X157344000Y-102554000D01*
X157192000Y-102706000D01*
X157189058Y-103300000D01*
X152555712Y-103300000D01*
X152555712Y-102679000D01*
X154951477Y-102679000D01*
X154975000Y-102681317D01*
X154998523Y-102679000D01*
X154998526Y-102679000D01*
X155068900Y-102672069D01*
X155159192Y-102644679D01*
X155242405Y-102600200D01*
X155315343Y-102540343D01*
X155330347Y-102522060D01*
X155997070Y-101855339D01*
X156015343Y-101840343D01*
X156033347Y-101818405D01*
X156075200Y-101767407D01*
X156119678Y-101684193D01*
X156119679Y-101684192D01*
X156147069Y-101593900D01*
X156154000Y-101523526D01*
X156154000Y-101523522D01*
X156156317Y-101500001D01*
X156156317Y-101500000D01*
X157189058Y-101500000D01*
X157192000Y-102094000D01*
X157344000Y-102246000D01*
X158246000Y-102246000D01*
X158246000Y-101044000D01*
X158554000Y-101044000D01*
X158554000Y-102246000D01*
X159456000Y-102246000D01*
X159608000Y-102094000D01*
X159610942Y-101500000D01*
X160644288Y-101500000D01*
X160644288Y-103300000D01*
X160651123Y-103369396D01*
X160671365Y-103436125D01*
X160704236Y-103497623D01*
X160748474Y-103551526D01*
X160802377Y-103595764D01*
X160863875Y-103628635D01*
X160930604Y-103648877D01*
X161000000Y-103655712D01*
X162200000Y-103655712D01*
X162269396Y-103648877D01*
X162336125Y-103628635D01*
X162397623Y-103595764D01*
X162451526Y-103551526D01*
X162495764Y-103497623D01*
X162528635Y-103436125D01*
X162548877Y-103369396D01*
X162555712Y-103300000D01*
X162555712Y-101500000D01*
X162548877Y-101430604D01*
X162528635Y-101363875D01*
X162495764Y-101302377D01*
X162451526Y-101248474D01*
X162397623Y-101204236D01*
X162336125Y-101171365D01*
X162269396Y-101151123D01*
X162207391Y-101145016D01*
X162523794Y-100828613D01*
X162525738Y-100829000D01*
X162674262Y-100829000D01*
X162819934Y-100800024D01*
X162957153Y-100743186D01*
X163080647Y-100660670D01*
X163185670Y-100555647D01*
X163268186Y-100432153D01*
X163325024Y-100294934D01*
X163354000Y-100149262D01*
X163354000Y-100000738D01*
X163325024Y-99855066D01*
X163268186Y-99717847D01*
X163185670Y-99594353D01*
X163080647Y-99489330D01*
X162957153Y-99406814D01*
X162819934Y-99349976D01*
X162674262Y-99321000D01*
X162525738Y-99321000D01*
X162380066Y-99349976D01*
X162242847Y-99406814D01*
X162119353Y-99489330D01*
X162014330Y-99594353D01*
X161931814Y-99717847D01*
X161874976Y-99855066D01*
X161846000Y-100000738D01*
X161846000Y-100149262D01*
X161846387Y-100151206D01*
X161277936Y-100719657D01*
X161259658Y-100734657D01*
X161244661Y-100752932D01*
X161199800Y-100807595D01*
X161155322Y-100890808D01*
X161127932Y-100981100D01*
X161118683Y-101075000D01*
X161121001Y-101098533D01*
X161121001Y-101144288D01*
X161000000Y-101144288D01*
X160930604Y-101151123D01*
X160863875Y-101171365D01*
X160802377Y-101204236D01*
X160748474Y-101248474D01*
X160704236Y-101302377D01*
X160671365Y-101363875D01*
X160651123Y-101430604D01*
X160644288Y-101500000D01*
X159610942Y-101500000D01*
X159599203Y-101380811D01*
X159564437Y-101266203D01*
X159507980Y-101160579D01*
X159432001Y-101067999D01*
X159339421Y-100992020D01*
X159233797Y-100935563D01*
X159119189Y-100900797D01*
X159000000Y-100889058D01*
X158706000Y-100892000D01*
X158554000Y-101044000D01*
X158246000Y-101044000D01*
X158094000Y-100892000D01*
X157800000Y-100889058D01*
X157680811Y-100900797D01*
X157566203Y-100935563D01*
X157460579Y-100992020D01*
X157367999Y-101067999D01*
X157292020Y-101160579D01*
X157235563Y-101266203D01*
X157200797Y-101380811D01*
X157189058Y-101500000D01*
X156156317Y-101500000D01*
X156154000Y-101476480D01*
X156154000Y-99223407D01*
X157098408Y-98279000D01*
X157444288Y-98279000D01*
X157444288Y-98500000D01*
X157451123Y-98569396D01*
X157471365Y-98636125D01*
X157504236Y-98697623D01*
X157548474Y-98751526D01*
X157602377Y-98795764D01*
X157663875Y-98828635D01*
X157730604Y-98848877D01*
X157800000Y-98855712D01*
X159000000Y-98855712D01*
X159069396Y-98848877D01*
X159136125Y-98828635D01*
X159197623Y-98795764D01*
X159251526Y-98751526D01*
X159295764Y-98697623D01*
X159328635Y-98636125D01*
X159348877Y-98569396D01*
X159355712Y-98500000D01*
X159355712Y-96700000D01*
X159348877Y-96630604D01*
X159328635Y-96563875D01*
X159295764Y-96502377D01*
X159251526Y-96448474D01*
X159197623Y-96404236D01*
X159136125Y-96371365D01*
X159069396Y-96351123D01*
X159000000Y-96344288D01*
X157800000Y-96344288D01*
X157730604Y-96351123D01*
X157663875Y-96371365D01*
X157602377Y-96404236D01*
X157548474Y-96448474D01*
X157504236Y-96502377D01*
X157471365Y-96563875D01*
X157451123Y-96630604D01*
X157444288Y-96700000D01*
X157444288Y-97321000D01*
X156923523Y-97321000D01*
X156900000Y-97318683D01*
X156876477Y-97321000D01*
X156876474Y-97321000D01*
X156806100Y-97327931D01*
X156736870Y-97348932D01*
X156715808Y-97355321D01*
X156632594Y-97399800D01*
X156607865Y-97420095D01*
X156559657Y-97459657D01*
X156544660Y-97477932D01*
X155352940Y-98669653D01*
X155334657Y-98684657D01*
X155274800Y-98757595D01*
X155230321Y-98840809D01*
X155202931Y-98931101D01*
X155199100Y-98970000D01*
X155193683Y-99025000D01*
X155196000Y-99048523D01*
X155196001Y-101301591D01*
X154776593Y-101721000D01*
X152555712Y-101721000D01*
X152555712Y-101500000D01*
X152548877Y-101430604D01*
X152528635Y-101363875D01*
X152495764Y-101302377D01*
X152451526Y-101248474D01*
X152397623Y-101204236D01*
X152336125Y-101171365D01*
X152269396Y-101151123D01*
X152200000Y-101144288D01*
X151000000Y-101144288D01*
X150930604Y-101151123D01*
X150863875Y-101171365D01*
X150802377Y-101204236D01*
X150748474Y-101248474D01*
X150704236Y-101302377D01*
X150671365Y-101363875D01*
X150651123Y-101430604D01*
X150644288Y-101500000D01*
X149610942Y-101500000D01*
X149599203Y-101380811D01*
X149564437Y-101266203D01*
X149507980Y-101160579D01*
X149432001Y-101067999D01*
X149339421Y-100992020D01*
X149233797Y-100935563D01*
X149119189Y-100900797D01*
X149000000Y-100889058D01*
X148706000Y-100892000D01*
X148554000Y-101044000D01*
X148246000Y-101044000D01*
X148094000Y-100892000D01*
X147800000Y-100889058D01*
X147680811Y-100900797D01*
X147566203Y-100935563D01*
X147460579Y-100992020D01*
X147367999Y-101067999D01*
X147292020Y-101160579D01*
X147235563Y-101266203D01*
X147200797Y-101380811D01*
X147189058Y-101500000D01*
X146628575Y-101500000D01*
X146640343Y-101490343D01*
X146675435Y-101447583D01*
X146700200Y-101417406D01*
X146744679Y-101334193D01*
X146765303Y-101266203D01*
X146772069Y-101243900D01*
X146779000Y-101173526D01*
X146779000Y-101173523D01*
X146781317Y-101150000D01*
X146779000Y-101126477D01*
X146779000Y-98898407D01*
X147398408Y-98279000D01*
X147444288Y-98279000D01*
X147444288Y-98500000D01*
X147451123Y-98569396D01*
X147471365Y-98636125D01*
X147504236Y-98697623D01*
X147548474Y-98751526D01*
X147602377Y-98795764D01*
X147663875Y-98828635D01*
X147730604Y-98848877D01*
X147800000Y-98855712D01*
X149000000Y-98855712D01*
X149069396Y-98848877D01*
X149136125Y-98828635D01*
X149197623Y-98795764D01*
X149251526Y-98751526D01*
X149295764Y-98697623D01*
X149328635Y-98636125D01*
X149348877Y-98569396D01*
X149355712Y-98500000D01*
X149355712Y-96700000D01*
X149348877Y-96630604D01*
X149328635Y-96563875D01*
X149295764Y-96502377D01*
X149251526Y-96448474D01*
X149197623Y-96404236D01*
X149136125Y-96371365D01*
X149069396Y-96351123D01*
X149000000Y-96344288D01*
X147800000Y-96344288D01*
X147730604Y-96351123D01*
X147663875Y-96371365D01*
X147602377Y-96404236D01*
X147548474Y-96448474D01*
X147504236Y-96502377D01*
X147471365Y-96563875D01*
X147451123Y-96630604D01*
X147444288Y-96700000D01*
X147444288Y-97321000D01*
X147223520Y-97321000D01*
X147199999Y-97318683D01*
X147176478Y-97321000D01*
X147176474Y-97321000D01*
X147106100Y-97327931D01*
X147015808Y-97355321D01*
X147000013Y-97363764D01*
X146932593Y-97399800D01*
X146905102Y-97422362D01*
X146859657Y-97459657D01*
X146844660Y-97477932D01*
X145977940Y-98344653D01*
X145959657Y-98359657D01*
X145899800Y-98432595D01*
X145855321Y-98515809D01*
X145827931Y-98606101D01*
X145821000Y-98676474D01*
X145818683Y-98700000D01*
X145821000Y-98723523D01*
X145821001Y-100951591D01*
X145151593Y-101621000D01*
X142555712Y-101621000D01*
X142555712Y-101400000D01*
X142548877Y-101330604D01*
X142528635Y-101263875D01*
X142495764Y-101202377D01*
X142451526Y-101148474D01*
X142397623Y-101104236D01*
X142336125Y-101071365D01*
X142269396Y-101051123D01*
X142200000Y-101044288D01*
X141000000Y-101044288D01*
X140930604Y-101051123D01*
X140863875Y-101071365D01*
X140802377Y-101104236D01*
X140748474Y-101148474D01*
X140704236Y-101202377D01*
X140671365Y-101263875D01*
X140651123Y-101330604D01*
X140644288Y-101400000D01*
X139610942Y-101400000D01*
X139599203Y-101280811D01*
X139564437Y-101166203D01*
X139507980Y-101060579D01*
X139432001Y-100967999D01*
X139339421Y-100892020D01*
X139233797Y-100835563D01*
X139119189Y-100800797D01*
X139000000Y-100789058D01*
X138706000Y-100792000D01*
X138554000Y-100944000D01*
X138246000Y-100944000D01*
X138094000Y-100792000D01*
X137800000Y-100789058D01*
X137680811Y-100800797D01*
X137566203Y-100835563D01*
X137460579Y-100892020D01*
X137367999Y-100967999D01*
X137292020Y-101060579D01*
X137235563Y-101166203D01*
X137200797Y-101280811D01*
X137189058Y-101400000D01*
X136579000Y-101400000D01*
X136579000Y-98298408D01*
X136698408Y-98179000D01*
X137444288Y-98179000D01*
X137444288Y-98400000D01*
X137451123Y-98469396D01*
X137471365Y-98536125D01*
X137504236Y-98597623D01*
X137548474Y-98651526D01*
X137602377Y-98695764D01*
X137663875Y-98728635D01*
X137730604Y-98748877D01*
X137800000Y-98755712D01*
X139000000Y-98755712D01*
X139069396Y-98748877D01*
X139136125Y-98728635D01*
X139197623Y-98695764D01*
X139251526Y-98651526D01*
X139295764Y-98597623D01*
X139328635Y-98536125D01*
X139348877Y-98469396D01*
X139355712Y-98400000D01*
X139355712Y-96600000D01*
X139348877Y-96530604D01*
X139328635Y-96463875D01*
X139295764Y-96402377D01*
X139251526Y-96348474D01*
X139203175Y-96308792D01*
X139225000Y-96310942D01*
X139406500Y-96308000D01*
X139558500Y-96156000D01*
X139558500Y-95154000D01*
X138769000Y-95154000D01*
X138617000Y-95306000D01*
X138614058Y-95700000D01*
X138625797Y-95819189D01*
X138660563Y-95933797D01*
X138717020Y-96039421D01*
X138792999Y-96132001D01*
X138885579Y-96207980D01*
X138953507Y-96244288D01*
X137800000Y-96244288D01*
X137730604Y-96251123D01*
X137663875Y-96271365D01*
X137602377Y-96304236D01*
X137548474Y-96348474D01*
X137504236Y-96402377D01*
X137471365Y-96463875D01*
X137451123Y-96530604D01*
X137444288Y-96600000D01*
X137444288Y-97221000D01*
X136523520Y-97221000D01*
X136499999Y-97218683D01*
X136476478Y-97221000D01*
X136476474Y-97221000D01*
X136406100Y-97227931D01*
X136315808Y-97255321D01*
X136290565Y-97268814D01*
X136232593Y-97299800D01*
X136180171Y-97342822D01*
X136159657Y-97359657D01*
X136144661Y-97377930D01*
X135777939Y-97744653D01*
X135759657Y-97759657D01*
X135699800Y-97832595D01*
X135655321Y-97915809D01*
X135627931Y-98006101D01*
X135621000Y-98076474D01*
X135618683Y-98100000D01*
X135621000Y-98123523D01*
X135621001Y-101401591D01*
X135401593Y-101621000D01*
X132555712Y-101621000D01*
X132555712Y-101400000D01*
X132548877Y-101330604D01*
X132528635Y-101263875D01*
X132495764Y-101202377D01*
X132451526Y-101148474D01*
X132397623Y-101104236D01*
X132336125Y-101071365D01*
X132269396Y-101051123D01*
X132200000Y-101044288D01*
X131000000Y-101044288D01*
X130930604Y-101051123D01*
X130863875Y-101071365D01*
X130802377Y-101104236D01*
X130748474Y-101148474D01*
X130704236Y-101202377D01*
X130671365Y-101263875D01*
X130651123Y-101330604D01*
X130644288Y-101400000D01*
X129610942Y-101400000D01*
X129599203Y-101280811D01*
X129564437Y-101166203D01*
X129507980Y-101060579D01*
X129432001Y-100967999D01*
X129339421Y-100892020D01*
X129233797Y-100835563D01*
X129119189Y-100800797D01*
X129000000Y-100789058D01*
X128706000Y-100792000D01*
X128554000Y-100944000D01*
X128246000Y-100944000D01*
X128094000Y-100792000D01*
X127800000Y-100789058D01*
X127680811Y-100800797D01*
X127566203Y-100835563D01*
X127460579Y-100892020D01*
X127367999Y-100967999D01*
X127292020Y-101060579D01*
X127235563Y-101166203D01*
X127200797Y-101280811D01*
X127189058Y-101400000D01*
X126604000Y-101400000D01*
X126604000Y-98598407D01*
X127023409Y-98179000D01*
X127444288Y-98179000D01*
X127444288Y-98400000D01*
X127451123Y-98469396D01*
X127471365Y-98536125D01*
X127504236Y-98597623D01*
X127548474Y-98651526D01*
X127602377Y-98695764D01*
X127663875Y-98728635D01*
X127730604Y-98748877D01*
X127800000Y-98755712D01*
X129000000Y-98755712D01*
X129069396Y-98748877D01*
X129136125Y-98728635D01*
X129197623Y-98695764D01*
X129251526Y-98651526D01*
X129295764Y-98597623D01*
X129328635Y-98536125D01*
X129348877Y-98469396D01*
X129355712Y-98400000D01*
X129355712Y-96600000D01*
X129348877Y-96530604D01*
X129328635Y-96463875D01*
X129295764Y-96402377D01*
X129251526Y-96348474D01*
X129203175Y-96308792D01*
X129225000Y-96310942D01*
X129406500Y-96308000D01*
X129558500Y-96156000D01*
X129558500Y-95154000D01*
X128769000Y-95154000D01*
X128617000Y-95306000D01*
X128614058Y-95700000D01*
X128625797Y-95819189D01*
X128660563Y-95933797D01*
X128717020Y-96039421D01*
X128792999Y-96132001D01*
X128885579Y-96207980D01*
X128953507Y-96244288D01*
X127800000Y-96244288D01*
X127730604Y-96251123D01*
X127663875Y-96271365D01*
X127602377Y-96304236D01*
X127548474Y-96348474D01*
X127504236Y-96402377D01*
X127471365Y-96463875D01*
X127451123Y-96530604D01*
X127444288Y-96600000D01*
X127444288Y-97221000D01*
X126848520Y-97221000D01*
X126824999Y-97218683D01*
X126801478Y-97221000D01*
X126801474Y-97221000D01*
X126731100Y-97227931D01*
X126640808Y-97255321D01*
X126615565Y-97268814D01*
X126557593Y-97299800D01*
X126505171Y-97342822D01*
X126484657Y-97359657D01*
X126469661Y-97377930D01*
X125802940Y-98044653D01*
X125784657Y-98059657D01*
X125724800Y-98132595D01*
X125680321Y-98215809D01*
X125652931Y-98306101D01*
X125646000Y-98376474D01*
X125643683Y-98400000D01*
X125646000Y-98423523D01*
X125646001Y-101226591D01*
X125151593Y-101721000D01*
X122555712Y-101721000D01*
X122555712Y-101500000D01*
X122548877Y-101430604D01*
X122528635Y-101363875D01*
X122495764Y-101302377D01*
X122451526Y-101248474D01*
X122397623Y-101204236D01*
X122336125Y-101171365D01*
X122269396Y-101151123D01*
X122200000Y-101144288D01*
X121000000Y-101144288D01*
X120930604Y-101151123D01*
X120863875Y-101171365D01*
X120802377Y-101204236D01*
X120748474Y-101248474D01*
X120704236Y-101302377D01*
X120671365Y-101363875D01*
X120651123Y-101430604D01*
X120644288Y-101500000D01*
X119610942Y-101500000D01*
X119599203Y-101380811D01*
X119564437Y-101266203D01*
X119507980Y-101160579D01*
X119432001Y-101067999D01*
X119339421Y-100992020D01*
X119233797Y-100935563D01*
X119119189Y-100900797D01*
X119000000Y-100889058D01*
X118706000Y-100892000D01*
X118554000Y-101044000D01*
X118246000Y-101044000D01*
X118094000Y-100892000D01*
X117879000Y-100889849D01*
X117879000Y-98855712D01*
X119000000Y-98855712D01*
X119069396Y-98848877D01*
X119136125Y-98828635D01*
X119197623Y-98795764D01*
X119251526Y-98751526D01*
X119295764Y-98697623D01*
X119328635Y-98636125D01*
X119348877Y-98569396D01*
X119355712Y-98500000D01*
X119355712Y-96700000D01*
X119348877Y-96630604D01*
X119328635Y-96563875D01*
X119295764Y-96502377D01*
X119251526Y-96448474D01*
X119197623Y-96404236D01*
X119136125Y-96371365D01*
X119069396Y-96351123D01*
X119000000Y-96344288D01*
X118009964Y-96344288D01*
X118068186Y-96257153D01*
X118125024Y-96119934D01*
X118154000Y-95974262D01*
X118154000Y-95825738D01*
X118128990Y-95700000D01*
X118614058Y-95700000D01*
X118625797Y-95819189D01*
X118660563Y-95933797D01*
X118717020Y-96039421D01*
X118792999Y-96132001D01*
X118885579Y-96207980D01*
X118991203Y-96264437D01*
X119105811Y-96299203D01*
X119225000Y-96310942D01*
X119406500Y-96308000D01*
X119558500Y-96156000D01*
X119558500Y-95154000D01*
X118769000Y-95154000D01*
X118617000Y-95306000D01*
X118614058Y-95700000D01*
X118128990Y-95700000D01*
X118125024Y-95680066D01*
X118068186Y-95542847D01*
X117985670Y-95419353D01*
X117880647Y-95314330D01*
X117757153Y-95231814D01*
X117619934Y-95174976D01*
X117474262Y-95146000D01*
X117325738Y-95146000D01*
X117180066Y-95174976D01*
X117042847Y-95231814D01*
X116919353Y-95314330D01*
X116814330Y-95419353D01*
X116731814Y-95542847D01*
X116674976Y-95680066D01*
X116646000Y-95825738D01*
X116646000Y-95974262D01*
X116674976Y-96119934D01*
X116731814Y-96257153D01*
X116814330Y-96380647D01*
X116919353Y-96485670D01*
X116921000Y-96486771D01*
X116921001Y-102171127D01*
X116549009Y-102543119D01*
X116528186Y-102492847D01*
X116445670Y-102369353D01*
X116340647Y-102264330D01*
X116217153Y-102181814D01*
X116079934Y-102124976D01*
X115934262Y-102096000D01*
X115785738Y-102096000D01*
X115783794Y-102096387D01*
X112459000Y-98771593D01*
X112459000Y-98358200D01*
X114881000Y-98358200D01*
X114881000Y-98501800D01*
X114909015Y-98642641D01*
X114963969Y-98775311D01*
X115043749Y-98894710D01*
X115145290Y-98996251D01*
X115264689Y-99076031D01*
X115397359Y-99130985D01*
X115538200Y-99159000D01*
X115681800Y-99159000D01*
X115822641Y-99130985D01*
X115955311Y-99076031D01*
X116074710Y-98996251D01*
X116176251Y-98894710D01*
X116256031Y-98775311D01*
X116310985Y-98642641D01*
X116339000Y-98501800D01*
X116339000Y-98358200D01*
X116310985Y-98217359D01*
X116256031Y-98084689D01*
X116176251Y-97965290D01*
X116074710Y-97863749D01*
X115955311Y-97783969D01*
X115822641Y-97729015D01*
X115681800Y-97701000D01*
X115538200Y-97701000D01*
X115397359Y-97729015D01*
X115264689Y-97783969D01*
X115145290Y-97863749D01*
X115043749Y-97965290D01*
X114963969Y-98084689D01*
X114909015Y-98217359D01*
X114881000Y-98358200D01*
X112459000Y-98358200D01*
X112459000Y-97328841D01*
X112542467Y-97453759D01*
X112696241Y-97607533D01*
X112877060Y-97728352D01*
X113077975Y-97811574D01*
X113291265Y-97854000D01*
X113508735Y-97854000D01*
X113722025Y-97811574D01*
X113922940Y-97728352D01*
X114103759Y-97607533D01*
X114257533Y-97453759D01*
X114378352Y-97272940D01*
X114461574Y-97072025D01*
X114504000Y-96858735D01*
X114504000Y-96641265D01*
X114461574Y-96427975D01*
X114378352Y-96227060D01*
X114257533Y-96046241D01*
X114103759Y-95892467D01*
X113922940Y-95771648D01*
X113722025Y-95688426D01*
X113508735Y-95646000D01*
X113291265Y-95646000D01*
X113077975Y-95688426D01*
X112877060Y-95771648D01*
X112696241Y-95892467D01*
X112542467Y-96046241D01*
X112459000Y-96171159D01*
X112459000Y-96126770D01*
X112460647Y-96125670D01*
X112565670Y-96020647D01*
X112648186Y-95897153D01*
X112705024Y-95759934D01*
X112734000Y-95614262D01*
X112734000Y-95465738D01*
X112705024Y-95320066D01*
X112648186Y-95182847D01*
X112565670Y-95059353D01*
X112460647Y-94954330D01*
X112337153Y-94871814D01*
X112199934Y-94814976D01*
X112189113Y-94812824D01*
X112198154Y-94810081D01*
X112301793Y-94754684D01*
X112392634Y-94680134D01*
X112467184Y-94589293D01*
X112503636Y-94521097D01*
X112513297Y-94619189D01*
X112548063Y-94733797D01*
X112604520Y-94839421D01*
X112680499Y-94932001D01*
X112773079Y-95007980D01*
X112878703Y-95064437D01*
X112993311Y-95099203D01*
X113112500Y-95110942D01*
X113294000Y-95108000D01*
X113446000Y-94956000D01*
X113446000Y-93954000D01*
X113754000Y-93954000D01*
X113754000Y-94956000D01*
X113906000Y-95108000D01*
X114087500Y-95110942D01*
X114206689Y-95099203D01*
X114321297Y-95064437D01*
X114426921Y-95007980D01*
X114519501Y-94932001D01*
X114595480Y-94839421D01*
X114651937Y-94733797D01*
X114686703Y-94619189D01*
X114698442Y-94500000D01*
X114695500Y-94106000D01*
X114543500Y-93954000D01*
X113754000Y-93954000D01*
X113446000Y-93954000D01*
X113426000Y-93954000D01*
X113426000Y-93646000D01*
X113446000Y-93646000D01*
X113446000Y-92644000D01*
X113294000Y-92492000D01*
X113112500Y-92489058D01*
X112993311Y-92500797D01*
X112878703Y-92535563D01*
X112773079Y-92592020D01*
X112680499Y-92667999D01*
X112604520Y-92760579D01*
X112548063Y-92866203D01*
X112513297Y-92980811D01*
X112503636Y-93078903D01*
X112467184Y-93010707D01*
X112392634Y-92919866D01*
X112301793Y-92845316D01*
X112198154Y-92789919D01*
X112085699Y-92755806D01*
X111968750Y-92744288D01*
X111481250Y-92744288D01*
X111364301Y-92755806D01*
X111251846Y-92789919D01*
X111148207Y-92845316D01*
X111057366Y-92919866D01*
X110982816Y-93010707D01*
X110962500Y-93048715D01*
X110942184Y-93010707D01*
X110867634Y-92919866D01*
X110776793Y-92845316D01*
X110673154Y-92789919D01*
X110560699Y-92755806D01*
X110443750Y-92744288D01*
X109956250Y-92744288D01*
X109839301Y-92755806D01*
X109726846Y-92789919D01*
X109623207Y-92845316D01*
X109532366Y-92919866D01*
X109457816Y-93010707D01*
X109402419Y-93114346D01*
X109368306Y-93226801D01*
X109356788Y-93343750D01*
X109356788Y-94256250D01*
X109368306Y-94373199D01*
X109402419Y-94485654D01*
X109457816Y-94589293D01*
X109532366Y-94680134D01*
X109623207Y-94754684D01*
X109721001Y-94806957D01*
X109721001Y-94821000D01*
X109588249Y-94821000D01*
X109587149Y-94819353D01*
X109482126Y-94714330D01*
X109358632Y-94631814D01*
X109221413Y-94574976D01*
X109088923Y-94548622D01*
X109122581Y-94485654D01*
X109156694Y-94373199D01*
X109168212Y-94256250D01*
X109168212Y-93343750D01*
X109156694Y-93226801D01*
X109122581Y-93114346D01*
X109067184Y-93010707D01*
X108992634Y-92919866D01*
X108906627Y-92849283D01*
X108968186Y-92757153D01*
X109025024Y-92619934D01*
X109054000Y-92474262D01*
X109054000Y-92325738D01*
X109025024Y-92180066D01*
X108993516Y-92104000D01*
X113849816Y-92104000D01*
X114263997Y-92518181D01*
X114206689Y-92500797D01*
X114087500Y-92489058D01*
X113906000Y-92492000D01*
X113754000Y-92644000D01*
X113754000Y-93646000D01*
X114543500Y-93646000D01*
X114695500Y-93494000D01*
X114698442Y-93100000D01*
X114686703Y-92980811D01*
X114669319Y-92923504D01*
X115276927Y-93531112D01*
X115295841Y-93554159D01*
X115387812Y-93629637D01*
X115492741Y-93685723D01*
X115601396Y-93718683D01*
X115606595Y-93720260D01*
X115724999Y-93731922D01*
X115754666Y-93729000D01*
X119012838Y-93729000D01*
X118991203Y-93735563D01*
X118885579Y-93792020D01*
X118792999Y-93867999D01*
X118717020Y-93960579D01*
X118660563Y-94066203D01*
X118625797Y-94180811D01*
X118614058Y-94300000D01*
X118617000Y-94694000D01*
X118769000Y-94846000D01*
X119558500Y-94846000D01*
X119558500Y-94826000D01*
X119866500Y-94826000D01*
X119866500Y-94846000D01*
X119886500Y-94846000D01*
X119886500Y-95154000D01*
X119866500Y-95154000D01*
X119866500Y-96156000D01*
X120018500Y-96308000D01*
X120200000Y-96310942D01*
X120319189Y-96299203D01*
X120433797Y-96264437D01*
X120539421Y-96207980D01*
X120632001Y-96132001D01*
X120707980Y-96039421D01*
X120764437Y-95933797D01*
X120799203Y-95819189D01*
X120808864Y-95721097D01*
X120845316Y-95789293D01*
X120919866Y-95880134D01*
X121010707Y-95954684D01*
X121068500Y-95985576D01*
X121068500Y-96344288D01*
X121000000Y-96344288D01*
X120930604Y-96351123D01*
X120863875Y-96371365D01*
X120802377Y-96404236D01*
X120748474Y-96448474D01*
X120704236Y-96502377D01*
X120671365Y-96563875D01*
X120651123Y-96630604D01*
X120644288Y-96700000D01*
X120644288Y-98500000D01*
X120651123Y-98569396D01*
X120671365Y-98636125D01*
X120704236Y-98697623D01*
X120748474Y-98751526D01*
X120802377Y-98795764D01*
X120863875Y-98828635D01*
X120930604Y-98848877D01*
X121000000Y-98855712D01*
X122200000Y-98855712D01*
X122269396Y-98848877D01*
X122336125Y-98828635D01*
X122397623Y-98795764D01*
X122451526Y-98751526D01*
X122495764Y-98697623D01*
X122528635Y-98636125D01*
X122548877Y-98569396D01*
X122555712Y-98500000D01*
X122555712Y-96700000D01*
X122548877Y-96630604D01*
X122528635Y-96563875D01*
X122495764Y-96502377D01*
X122451526Y-96448474D01*
X122397623Y-96404236D01*
X122336125Y-96371365D01*
X122269396Y-96351123D01*
X122200000Y-96344288D01*
X122106500Y-96344288D01*
X122106500Y-95985575D01*
X122164293Y-95954684D01*
X122255134Y-95880134D01*
X122329684Y-95789293D01*
X122385081Y-95685654D01*
X122419194Y-95573199D01*
X122430712Y-95456250D01*
X122430712Y-94543750D01*
X122419194Y-94426801D01*
X122385081Y-94314346D01*
X122329684Y-94210707D01*
X122255134Y-94119866D01*
X122164293Y-94045316D01*
X122106500Y-94014425D01*
X122106500Y-93862985D01*
X122109010Y-93837499D01*
X122106500Y-93812013D01*
X122106500Y-93812006D01*
X122098990Y-93735758D01*
X122097827Y-93731922D01*
X122096940Y-93729000D01*
X129012838Y-93729000D01*
X128991203Y-93735563D01*
X128885579Y-93792020D01*
X128792999Y-93867999D01*
X128717020Y-93960579D01*
X128660563Y-94066203D01*
X128625797Y-94180811D01*
X128614058Y-94300000D01*
X128617000Y-94694000D01*
X128769000Y-94846000D01*
X129558500Y-94846000D01*
X129558500Y-94826000D01*
X129866500Y-94826000D01*
X129866500Y-94846000D01*
X129886500Y-94846000D01*
X129886500Y-95154000D01*
X129866500Y-95154000D01*
X129866500Y-96156000D01*
X130018500Y-96308000D01*
X130200000Y-96310942D01*
X130319189Y-96299203D01*
X130433797Y-96264437D01*
X130539421Y-96207980D01*
X130632001Y-96132001D01*
X130707980Y-96039421D01*
X130764437Y-95933797D01*
X130799203Y-95819189D01*
X130808864Y-95721097D01*
X130845316Y-95789293D01*
X130919866Y-95880134D01*
X131010707Y-95954684D01*
X131068500Y-95985576D01*
X131068500Y-96244288D01*
X131000000Y-96244288D01*
X130930604Y-96251123D01*
X130863875Y-96271365D01*
X130802377Y-96304236D01*
X130748474Y-96348474D01*
X130704236Y-96402377D01*
X130671365Y-96463875D01*
X130651123Y-96530604D01*
X130644288Y-96600000D01*
X130644288Y-98400000D01*
X130651123Y-98469396D01*
X130671365Y-98536125D01*
X130704236Y-98597623D01*
X130748474Y-98651526D01*
X130802377Y-98695764D01*
X130863875Y-98728635D01*
X130930604Y-98748877D01*
X131000000Y-98755712D01*
X132200000Y-98755712D01*
X132269396Y-98748877D01*
X132336125Y-98728635D01*
X132397623Y-98695764D01*
X132451526Y-98651526D01*
X132495764Y-98597623D01*
X132528635Y-98536125D01*
X132548877Y-98469396D01*
X132555712Y-98400000D01*
X132555712Y-96600000D01*
X132548877Y-96530604D01*
X132528635Y-96463875D01*
X132495764Y-96402377D01*
X132451526Y-96348474D01*
X132397623Y-96304236D01*
X132336125Y-96271365D01*
X132269396Y-96251123D01*
X132200000Y-96244288D01*
X132106500Y-96244288D01*
X132106500Y-95985575D01*
X132164293Y-95954684D01*
X132255134Y-95880134D01*
X132329684Y-95789293D01*
X132385081Y-95685654D01*
X132419194Y-95573199D01*
X132430712Y-95456250D01*
X132430712Y-94543750D01*
X132419194Y-94426801D01*
X132385081Y-94314346D01*
X132329684Y-94210707D01*
X132255134Y-94119866D01*
X132164293Y-94045316D01*
X132139000Y-94031796D01*
X132139000Y-93729000D01*
X139012838Y-93729000D01*
X138991203Y-93735563D01*
X138885579Y-93792020D01*
X138792999Y-93867999D01*
X138717020Y-93960579D01*
X138660563Y-94066203D01*
X138625797Y-94180811D01*
X138614058Y-94300000D01*
X138617000Y-94694000D01*
X138769000Y-94846000D01*
X139558500Y-94846000D01*
X139558500Y-94826000D01*
X139866500Y-94826000D01*
X139866500Y-94846000D01*
X139886500Y-94846000D01*
X139886500Y-95154000D01*
X139866500Y-95154000D01*
X139866500Y-96156000D01*
X140018500Y-96308000D01*
X140200000Y-96310942D01*
X140319189Y-96299203D01*
X140433797Y-96264437D01*
X140539421Y-96207980D01*
X140632001Y-96132001D01*
X140707980Y-96039421D01*
X140764437Y-95933797D01*
X140799203Y-95819189D01*
X140808864Y-95721097D01*
X140845316Y-95789293D01*
X140919866Y-95880134D01*
X141010707Y-95954684D01*
X141081000Y-95992257D01*
X141081000Y-96244288D01*
X141000000Y-96244288D01*
X140930604Y-96251123D01*
X140863875Y-96271365D01*
X140802377Y-96304236D01*
X140748474Y-96348474D01*
X140704236Y-96402377D01*
X140671365Y-96463875D01*
X140651123Y-96530604D01*
X140644288Y-96600000D01*
X140644288Y-98400000D01*
X140651123Y-98469396D01*
X140671365Y-98536125D01*
X140704236Y-98597623D01*
X140748474Y-98651526D01*
X140802377Y-98695764D01*
X140863875Y-98728635D01*
X140930604Y-98748877D01*
X141000000Y-98755712D01*
X142200000Y-98755712D01*
X142269396Y-98748877D01*
X142336125Y-98728635D01*
X142397623Y-98695764D01*
X142451526Y-98651526D01*
X142495764Y-98597623D01*
X142528635Y-98536125D01*
X142548877Y-98469396D01*
X142555712Y-98400000D01*
X142555712Y-96600000D01*
X142548877Y-96530604D01*
X142528635Y-96463875D01*
X142495764Y-96402377D01*
X142451526Y-96348474D01*
X142397623Y-96304236D01*
X142336125Y-96271365D01*
X142269396Y-96251123D01*
X142200000Y-96244288D01*
X142119000Y-96244288D01*
X142119000Y-95978894D01*
X142164293Y-95954684D01*
X142255134Y-95880134D01*
X142329684Y-95789293D01*
X142377412Y-95700000D01*
X148614058Y-95700000D01*
X148625797Y-95819189D01*
X148660563Y-95933797D01*
X148717020Y-96039421D01*
X148792999Y-96132001D01*
X148885579Y-96207980D01*
X148991203Y-96264437D01*
X149105811Y-96299203D01*
X149225000Y-96310942D01*
X149406500Y-96308000D01*
X149558500Y-96156000D01*
X149558500Y-95154000D01*
X148769000Y-95154000D01*
X148617000Y-95306000D01*
X148614058Y-95700000D01*
X142377412Y-95700000D01*
X142385081Y-95685654D01*
X142419194Y-95573199D01*
X142430712Y-95456250D01*
X142430712Y-94543750D01*
X142419194Y-94426801D01*
X142385081Y-94314346D01*
X142329684Y-94210707D01*
X142255134Y-94119866D01*
X142164293Y-94045316D01*
X142106500Y-94014425D01*
X142106500Y-93972994D01*
X142109011Y-93947500D01*
X142098990Y-93845758D01*
X142075190Y-93767300D01*
X142069313Y-93747926D01*
X142059197Y-93729000D01*
X149012838Y-93729000D01*
X148991203Y-93735563D01*
X148885579Y-93792020D01*
X148792999Y-93867999D01*
X148717020Y-93960579D01*
X148660563Y-94066203D01*
X148625797Y-94180811D01*
X148614058Y-94300000D01*
X148617000Y-94694000D01*
X148769000Y-94846000D01*
X149558500Y-94846000D01*
X149558500Y-94826000D01*
X149866500Y-94826000D01*
X149866500Y-94846000D01*
X149886500Y-94846000D01*
X149886500Y-95154000D01*
X149866500Y-95154000D01*
X149866500Y-96156000D01*
X150018500Y-96308000D01*
X150200000Y-96310942D01*
X150319189Y-96299203D01*
X150433797Y-96264437D01*
X150539421Y-96207980D01*
X150632001Y-96132001D01*
X150707980Y-96039421D01*
X150764437Y-95933797D01*
X150799203Y-95819189D01*
X150808864Y-95721097D01*
X150845316Y-95789293D01*
X150919866Y-95880134D01*
X151010707Y-95954684D01*
X151081000Y-95992257D01*
X151081000Y-96344288D01*
X151000000Y-96344288D01*
X150930604Y-96351123D01*
X150863875Y-96371365D01*
X150802377Y-96404236D01*
X150748474Y-96448474D01*
X150704236Y-96502377D01*
X150671365Y-96563875D01*
X150651123Y-96630604D01*
X150644288Y-96700000D01*
X150644288Y-98500000D01*
X150651123Y-98569396D01*
X150671365Y-98636125D01*
X150704236Y-98697623D01*
X150748474Y-98751526D01*
X150802377Y-98795764D01*
X150863875Y-98828635D01*
X150930604Y-98848877D01*
X151000000Y-98855712D01*
X152200000Y-98855712D01*
X152269396Y-98848877D01*
X152336125Y-98828635D01*
X152397623Y-98795764D01*
X152451526Y-98751526D01*
X152495764Y-98697623D01*
X152528635Y-98636125D01*
X152548877Y-98569396D01*
X152555712Y-98500000D01*
X152555712Y-96700000D01*
X152548877Y-96630604D01*
X152528635Y-96563875D01*
X152495764Y-96502377D01*
X152451526Y-96448474D01*
X152397623Y-96404236D01*
X152336125Y-96371365D01*
X152269396Y-96351123D01*
X152200000Y-96344288D01*
X152119000Y-96344288D01*
X152119000Y-95978894D01*
X152164293Y-95954684D01*
X152255134Y-95880134D01*
X152329684Y-95789293D01*
X152377412Y-95700000D01*
X158614058Y-95700000D01*
X158625797Y-95819189D01*
X158660563Y-95933797D01*
X158717020Y-96039421D01*
X158792999Y-96132001D01*
X158885579Y-96207980D01*
X158991203Y-96264437D01*
X159105811Y-96299203D01*
X159225000Y-96310942D01*
X159406500Y-96308000D01*
X159558500Y-96156000D01*
X159558500Y-95154000D01*
X158769000Y-95154000D01*
X158617000Y-95306000D01*
X158614058Y-95700000D01*
X152377412Y-95700000D01*
X152385081Y-95685654D01*
X152419194Y-95573199D01*
X152430712Y-95456250D01*
X152430712Y-94543750D01*
X152419194Y-94426801D01*
X152385081Y-94314346D01*
X152329684Y-94210707D01*
X152255134Y-94119866D01*
X152164293Y-94045316D01*
X152106500Y-94014425D01*
X152106500Y-93837994D01*
X152109011Y-93812500D01*
X152100787Y-93729000D01*
X159012838Y-93729000D01*
X158991203Y-93735563D01*
X158885579Y-93792020D01*
X158792999Y-93867999D01*
X158717020Y-93960579D01*
X158660563Y-94066203D01*
X158625797Y-94180811D01*
X158614058Y-94300000D01*
X158617000Y-94694000D01*
X158769000Y-94846000D01*
X159558500Y-94846000D01*
X159558500Y-94826000D01*
X159866500Y-94826000D01*
X159866500Y-94846000D01*
X159886500Y-94846000D01*
X159886500Y-95154000D01*
X159866500Y-95154000D01*
X159866500Y-96156000D01*
X160018500Y-96308000D01*
X160200000Y-96310942D01*
X160319189Y-96299203D01*
X160433797Y-96264437D01*
X160539421Y-96207980D01*
X160632001Y-96132001D01*
X160707980Y-96039421D01*
X160764437Y-95933797D01*
X160799203Y-95819189D01*
X160808864Y-95721097D01*
X160845316Y-95789293D01*
X160919866Y-95880134D01*
X161010707Y-95954684D01*
X161068500Y-95985576D01*
X161068500Y-96344288D01*
X161000000Y-96344288D01*
X160930604Y-96351123D01*
X160863875Y-96371365D01*
X160802377Y-96404236D01*
X160748474Y-96448474D01*
X160704236Y-96502377D01*
X160671365Y-96563875D01*
X160651123Y-96630604D01*
X160644288Y-96700000D01*
X160644288Y-98500000D01*
X160651123Y-98569396D01*
X160671365Y-98636125D01*
X160704236Y-98697623D01*
X160748474Y-98751526D01*
X160802377Y-98795764D01*
X160863875Y-98828635D01*
X160930604Y-98848877D01*
X161000000Y-98855712D01*
X162200000Y-98855712D01*
X162269396Y-98848877D01*
X162336125Y-98828635D01*
X162397623Y-98795764D01*
X162451526Y-98751526D01*
X162495764Y-98697623D01*
X162528635Y-98636125D01*
X162548877Y-98569396D01*
X162555712Y-98500000D01*
X162555712Y-96700000D01*
X162548877Y-96630604D01*
X162528635Y-96563875D01*
X162495764Y-96502377D01*
X162451526Y-96448474D01*
X162397623Y-96404236D01*
X162336125Y-96371365D01*
X162269396Y-96351123D01*
X162200000Y-96344288D01*
X162106500Y-96344288D01*
X162106500Y-95985575D01*
X162164293Y-95954684D01*
X162255134Y-95880134D01*
X162329684Y-95789293D01*
X162385081Y-95685654D01*
X162419194Y-95573199D01*
X162430712Y-95456250D01*
X162430712Y-94543750D01*
X162419194Y-94426801D01*
X162385081Y-94314346D01*
X162329684Y-94210707D01*
X162255134Y-94119866D01*
X162191500Y-94067644D01*
X162191500Y-93617167D01*
X162194422Y-93587500D01*
X162182760Y-93469095D01*
X162148223Y-93355241D01*
X162092137Y-93250312D01*
X162066358Y-93218900D01*
X162016659Y-93158341D01*
X161993613Y-93139428D01*
X161573077Y-92718893D01*
X161554159Y-92695841D01*
X161462188Y-92620363D01*
X161357259Y-92564277D01*
X161243405Y-92529740D01*
X161154667Y-92521000D01*
X161125000Y-92518078D01*
X161095333Y-92521000D01*
X115975185Y-92521000D01*
X114548078Y-91093894D01*
X114529159Y-91070841D01*
X114437188Y-90995363D01*
X114332259Y-90939277D01*
X114218405Y-90904740D01*
X114129667Y-90896000D01*
X114100000Y-90893078D01*
X114070333Y-90896000D01*
X107629666Y-90896000D01*
X107599999Y-90893078D01*
X107481595Y-90904740D01*
X107367741Y-90939277D01*
X107262812Y-90995363D01*
X107170841Y-91070841D01*
X107151927Y-91093888D01*
X106593893Y-91651923D01*
X106570841Y-91670841D01*
X106495363Y-91762813D01*
X106439277Y-91867742D01*
X106416391Y-91943187D01*
X106404740Y-91981596D01*
X106393078Y-92100000D01*
X106396000Y-92129667D01*
X106396000Y-95697532D01*
X106266721Y-95651068D01*
X105417789Y-96500000D01*
X106266721Y-97348932D01*
X106396001Y-97302468D01*
X106396001Y-101449814D01*
X105553974Y-102291842D01*
X105323508Y-102246000D01*
X105076492Y-102246000D01*
X104834222Y-102294190D01*
X104606008Y-102388719D01*
X104400621Y-102525954D01*
X104225954Y-102700621D01*
X104088719Y-102906008D01*
X103994190Y-103134222D01*
X103946000Y-103376492D01*
X100454000Y-103376492D01*
X100454000Y-102160964D01*
X101896000Y-102160964D01*
X101896000Y-102339036D01*
X101930740Y-102513687D01*
X101998886Y-102678205D01*
X102097817Y-102826266D01*
X102223734Y-102952183D01*
X102371795Y-103051114D01*
X102536313Y-103119260D01*
X102710964Y-103154000D01*
X102889036Y-103154000D01*
X103063687Y-103119260D01*
X103228205Y-103051114D01*
X103376266Y-102952183D01*
X103502183Y-102826266D01*
X103601114Y-102678205D01*
X103669260Y-102513687D01*
X103704000Y-102339036D01*
X103704000Y-102160964D01*
X103669260Y-101986313D01*
X103601114Y-101821795D01*
X103502183Y-101673734D01*
X103376266Y-101547817D01*
X103228205Y-101448886D01*
X103063687Y-101380740D01*
X102889036Y-101346000D01*
X102710964Y-101346000D01*
X102536313Y-101380740D01*
X102371795Y-101448886D01*
X102223734Y-101547817D01*
X102097817Y-101673734D01*
X101998886Y-101821795D01*
X101930740Y-101986313D01*
X101896000Y-102160964D01*
X100454000Y-102160964D01*
X100454000Y-98886341D01*
X104046000Y-98886341D01*
X104046000Y-99113659D01*
X104090347Y-99336609D01*
X104177338Y-99546624D01*
X104303629Y-99735632D01*
X104464368Y-99896371D01*
X104619460Y-100000000D01*
X104464368Y-100103629D01*
X104303629Y-100264368D01*
X104177338Y-100453376D01*
X104090347Y-100663391D01*
X104046000Y-100886341D01*
X104046000Y-101113659D01*
X104090347Y-101336609D01*
X104177338Y-101546624D01*
X104303629Y-101735632D01*
X104464368Y-101896371D01*
X104653376Y-102022662D01*
X104863391Y-102109653D01*
X105086341Y-102154000D01*
X105313659Y-102154000D01*
X105536609Y-102109653D01*
X105746624Y-102022662D01*
X105935632Y-101896371D01*
X106096371Y-101735632D01*
X106222662Y-101546624D01*
X106309653Y-101336609D01*
X106354000Y-101113659D01*
X106354000Y-100886341D01*
X106309653Y-100663391D01*
X106222662Y-100453376D01*
X106096371Y-100264368D01*
X105935632Y-100103629D01*
X105780540Y-100000000D01*
X105935632Y-99896371D01*
X106096371Y-99735632D01*
X106222662Y-99546624D01*
X106309653Y-99336609D01*
X106354000Y-99113659D01*
X106354000Y-98886341D01*
X106309653Y-98663391D01*
X106222662Y-98453376D01*
X106096371Y-98264368D01*
X105935632Y-98103629D01*
X105746624Y-97977338D01*
X105655497Y-97939592D01*
X105866237Y-97860976D01*
X105961469Y-97810072D01*
X106048932Y-97566721D01*
X105200000Y-96717789D01*
X104351068Y-97566721D01*
X104438531Y-97810072D01*
X104708745Y-97933455D01*
X104740951Y-97941063D01*
X104653376Y-97977338D01*
X104464368Y-98103629D01*
X104303629Y-98264368D01*
X104177338Y-98453376D01*
X104090347Y-98663391D01*
X104046000Y-98886341D01*
X100454000Y-98886341D01*
X100454000Y-97660964D01*
X101896000Y-97660964D01*
X101896000Y-97839036D01*
X101930740Y-98013687D01*
X101998886Y-98178205D01*
X102097817Y-98326266D01*
X102223734Y-98452183D01*
X102371795Y-98551114D01*
X102536313Y-98619260D01*
X102710964Y-98654000D01*
X102889036Y-98654000D01*
X103063687Y-98619260D01*
X103228205Y-98551114D01*
X103376266Y-98452183D01*
X103502183Y-98326266D01*
X103601114Y-98178205D01*
X103669260Y-98013687D01*
X103704000Y-97839036D01*
X103704000Y-97660964D01*
X103669260Y-97486313D01*
X103601114Y-97321795D01*
X103502183Y-97173734D01*
X103376266Y-97047817D01*
X103228205Y-96948886D01*
X103063687Y-96880740D01*
X102889036Y-96846000D01*
X102710964Y-96846000D01*
X102536313Y-96880740D01*
X102371795Y-96948886D01*
X102223734Y-97047817D01*
X102097817Y-97173734D01*
X101998886Y-97321795D01*
X101930740Y-97486313D01*
X101896000Y-97660964D01*
X100454000Y-97660964D01*
X100454000Y-94304002D01*
X100602458Y-94304002D01*
X100492809Y-94544635D01*
X100501662Y-94603943D01*
X100619012Y-94887532D01*
X100789433Y-95142778D01*
X101006375Y-95359872D01*
X101261501Y-95530471D01*
X101545008Y-95648020D01*
X101846000Y-95708000D01*
X102646000Y-95708000D01*
X102646000Y-94304000D01*
X102954000Y-94304000D01*
X102954000Y-95708000D01*
X103754000Y-95708000D01*
X104054992Y-95648020D01*
X104108177Y-95625968D01*
X104133278Y-95651069D01*
X103889928Y-95738531D01*
X103766545Y-96008745D01*
X103698249Y-96297837D01*
X103687665Y-96594699D01*
X103735199Y-96887922D01*
X103839024Y-97166237D01*
X103889928Y-97261469D01*
X104133279Y-97348932D01*
X104982211Y-96500000D01*
X104968069Y-96485858D01*
X105185858Y-96268069D01*
X105200000Y-96282211D01*
X106048932Y-95433279D01*
X105961469Y-95189928D01*
X105691255Y-95066545D01*
X105402163Y-94998249D01*
X105105301Y-94987665D01*
X104890929Y-95022417D01*
X104980988Y-94887532D01*
X105098338Y-94603943D01*
X105107191Y-94544635D01*
X104997541Y-94304000D01*
X102954000Y-94304000D01*
X102646000Y-94304000D01*
X102626000Y-94304000D01*
X102626000Y-93996000D01*
X102646000Y-93996000D01*
X102646000Y-93976000D01*
X102954000Y-93976000D01*
X102954000Y-93996000D01*
X104997541Y-93996000D01*
X105107191Y-93755365D01*
X105098338Y-93696057D01*
X104980988Y-93412468D01*
X104810567Y-93157222D01*
X104593625Y-92940128D01*
X104338499Y-92769529D01*
X104054992Y-92651980D01*
X103754000Y-92592000D01*
X101846000Y-92592000D01*
X101545008Y-92651980D01*
X101261501Y-92769529D01*
X101006375Y-92940128D01*
X100789433Y-93157222D01*
X100619012Y-93412468D01*
X100501662Y-93696057D01*
X100492809Y-93755365D01*
X100602458Y-93995998D01*
X100454000Y-93995998D01*
X100454000Y-89209188D01*
X165546000Y-89948870D01*
M02*
